%TF.GenerationSoftware,KiCad,Pcbnew,8.0.7-unknown-202412152340~ed5068829f~ubuntu24.04.1*%
%TF.CreationDate,2025-01-05T18:10:37+01:00*%
%TF.ProjectId,sterownik_rolety_Zigbee,73746572-6f77-46e6-996b-5f726f6c6574,rev?*%
%TF.SameCoordinates,Original*%
%TF.FileFunction,Legend,Bot*%
%TF.FilePolarity,Positive*%
%FSLAX46Y46*%
G04 Gerber Fmt 4.6, Leading zero omitted, Abs format (unit mm)*
G04 Created by KiCad (PCBNEW 8.0.7-unknown-202412152340~ed5068829f~ubuntu24.04.1) date 2025-01-05 18:10:37*
%MOMM*%
%LPD*%
G01*
G04 APERTURE LIST*
%ADD10C,0.150000*%
%ADD11C,0.254000*%
%ADD12C,0.120000*%
%ADD13C,0.200000*%
G04 APERTURE END LIST*
D10*
X109538094Y-78894819D02*
X109538094Y-77894819D01*
X109538094Y-77894819D02*
X109299999Y-77894819D01*
X109299999Y-77894819D02*
X109157142Y-77942438D01*
X109157142Y-77942438D02*
X109061904Y-78037676D01*
X109061904Y-78037676D02*
X109014285Y-78132914D01*
X109014285Y-78132914D02*
X108966666Y-78323390D01*
X108966666Y-78323390D02*
X108966666Y-78466247D01*
X108966666Y-78466247D02*
X109014285Y-78656723D01*
X109014285Y-78656723D02*
X109061904Y-78751961D01*
X109061904Y-78751961D02*
X109157142Y-78847200D01*
X109157142Y-78847200D02*
X109299999Y-78894819D01*
X109299999Y-78894819D02*
X109538094Y-78894819D01*
X108014285Y-78894819D02*
X108585713Y-78894819D01*
X108299999Y-78894819D02*
X108299999Y-77894819D01*
X108299999Y-77894819D02*
X108395237Y-78037676D01*
X108395237Y-78037676D02*
X108490475Y-78132914D01*
X108490475Y-78132914D02*
X108585713Y-78180533D01*
D11*
X127603332Y-100404318D02*
X127603332Y-101311461D01*
X127603332Y-101311461D02*
X127663809Y-101492889D01*
X127663809Y-101492889D02*
X127784761Y-101613842D01*
X127784761Y-101613842D02*
X127966190Y-101674318D01*
X127966190Y-101674318D02*
X128087142Y-101674318D01*
X126333332Y-101674318D02*
X127059047Y-101674318D01*
X126696190Y-101674318D02*
X126696190Y-100404318D01*
X126696190Y-100404318D02*
X126817142Y-100585746D01*
X126817142Y-100585746D02*
X126938094Y-100706699D01*
X126938094Y-100706699D02*
X127059047Y-100767175D01*
D10*
X144738094Y-78904819D02*
X144738094Y-77904819D01*
X144738094Y-77904819D02*
X144499999Y-77904819D01*
X144499999Y-77904819D02*
X144357142Y-77952438D01*
X144357142Y-77952438D02*
X144261904Y-78047676D01*
X144261904Y-78047676D02*
X144214285Y-78142914D01*
X144214285Y-78142914D02*
X144166666Y-78333390D01*
X144166666Y-78333390D02*
X144166666Y-78476247D01*
X144166666Y-78476247D02*
X144214285Y-78666723D01*
X144214285Y-78666723D02*
X144261904Y-78761961D01*
X144261904Y-78761961D02*
X144357142Y-78857200D01*
X144357142Y-78857200D02*
X144499999Y-78904819D01*
X144499999Y-78904819D02*
X144738094Y-78904819D01*
X143785713Y-78000057D02*
X143738094Y-77952438D01*
X143738094Y-77952438D02*
X143642856Y-77904819D01*
X143642856Y-77904819D02*
X143404761Y-77904819D01*
X143404761Y-77904819D02*
X143309523Y-77952438D01*
X143309523Y-77952438D02*
X143261904Y-78000057D01*
X143261904Y-78000057D02*
X143214285Y-78095295D01*
X143214285Y-78095295D02*
X143214285Y-78190533D01*
X143214285Y-78190533D02*
X143261904Y-78333390D01*
X143261904Y-78333390D02*
X143833332Y-78904819D01*
X143833332Y-78904819D02*
X143214285Y-78904819D01*
X142171255Y-93757507D02*
X142260113Y-93816176D01*
X142260113Y-93816176D02*
X142390211Y-93851035D01*
X142390211Y-93851035D02*
X142585358Y-93903325D01*
X142585358Y-93903325D02*
X142674216Y-93961994D01*
X142674216Y-93961994D02*
X142721835Y-94044472D01*
X142491829Y-94122281D02*
X142580687Y-94180950D01*
X142580687Y-94180950D02*
X142710785Y-94215809D01*
X142710785Y-94215809D02*
X142899552Y-94161811D01*
X142899552Y-94161811D02*
X143188227Y-93995144D01*
X143188227Y-93995144D02*
X143329375Y-93858666D01*
X143329375Y-93858666D02*
X143364234Y-93728569D01*
X143364234Y-93728569D02*
X143357854Y-93622281D01*
X143357854Y-93622281D02*
X143262616Y-93457323D01*
X143262616Y-93457323D02*
X143173758Y-93398654D01*
X143173758Y-93398654D02*
X143043660Y-93363795D01*
X143043660Y-93363795D02*
X142854893Y-93417794D01*
X142854893Y-93417794D02*
X142566218Y-93584460D01*
X142566218Y-93584460D02*
X142425071Y-93720938D01*
X142425071Y-93720938D02*
X142390211Y-93851035D01*
X142390211Y-93851035D02*
X142396591Y-93957323D01*
X142396591Y-93957323D02*
X142491829Y-94122281D01*
X142870614Y-92968832D02*
X142888044Y-92903783D01*
X142888044Y-92903783D02*
X142881664Y-92797495D01*
X142881664Y-92797495D02*
X142762616Y-92591298D01*
X142762616Y-92591298D02*
X142673758Y-92532629D01*
X142673758Y-92532629D02*
X142608709Y-92515199D01*
X142608709Y-92515199D02*
X142502421Y-92521579D01*
X142502421Y-92521579D02*
X142419942Y-92569198D01*
X142419942Y-92569198D02*
X142320034Y-92681866D01*
X142320034Y-92681866D02*
X142110877Y-93462452D01*
X142110877Y-93462452D02*
X141801353Y-92926341D01*
D11*
X118923332Y-54304318D02*
X118923332Y-55211461D01*
X118923332Y-55211461D02*
X118983809Y-55392889D01*
X118983809Y-55392889D02*
X119104761Y-55513842D01*
X119104761Y-55513842D02*
X119286190Y-55574318D01*
X119286190Y-55574318D02*
X119407142Y-55574318D01*
X118379047Y-54425270D02*
X118318571Y-54364794D01*
X118318571Y-54364794D02*
X118197618Y-54304318D01*
X118197618Y-54304318D02*
X117895237Y-54304318D01*
X117895237Y-54304318D02*
X117774285Y-54364794D01*
X117774285Y-54364794D02*
X117713809Y-54425270D01*
X117713809Y-54425270D02*
X117653332Y-54546222D01*
X117653332Y-54546222D02*
X117653332Y-54667175D01*
X117653332Y-54667175D02*
X117713809Y-54848603D01*
X117713809Y-54848603D02*
X118439523Y-55574318D01*
X118439523Y-55574318D02*
X117653332Y-55574318D01*
D10*
X111555963Y-94450372D02*
X111534616Y-94346054D01*
X111534616Y-94346054D02*
X111467273Y-94229412D01*
X111467273Y-94229412D02*
X111366258Y-94054448D01*
X111366258Y-94054448D02*
X111344911Y-93950131D01*
X111344911Y-93950131D02*
X111369560Y-93858138D01*
X111587218Y-93965758D02*
X111565871Y-93861440D01*
X111565871Y-93861440D02*
X111498527Y-93744798D01*
X111498527Y-93744798D02*
X111326866Y-93649502D01*
X111326866Y-93649502D02*
X111004891Y-93563229D01*
X111004891Y-93563229D02*
X110808580Y-93559927D01*
X110808580Y-93559927D02*
X110691938Y-93627270D01*
X110691938Y-93627270D02*
X110621292Y-93706939D01*
X110621292Y-93706939D02*
X110571993Y-93890925D01*
X110571993Y-93890925D02*
X110593340Y-93995242D01*
X110593340Y-93995242D02*
X110660683Y-94111885D01*
X110660683Y-94111885D02*
X110832345Y-94207180D01*
X110832345Y-94207180D02*
X111154320Y-94293453D01*
X111154320Y-94293453D02*
X111350630Y-94296755D01*
X111350630Y-94296755D02*
X111467273Y-94229412D01*
X111467273Y-94229412D02*
X111537919Y-94149744D01*
X111537919Y-94149744D02*
X111587218Y-93965758D01*
X111229801Y-95299655D02*
X111377697Y-94747698D01*
X111303749Y-95023676D02*
X110337823Y-94764857D01*
X110337823Y-94764857D02*
X110500462Y-94709839D01*
X110500462Y-94709839D02*
X110617104Y-94642495D01*
X110617104Y-94642495D02*
X110687750Y-94562827D01*
X111054819Y-82085714D02*
X110054819Y-82085714D01*
X110054819Y-82085714D02*
X110054819Y-82466666D01*
X110054819Y-82466666D02*
X110102438Y-82561904D01*
X110102438Y-82561904D02*
X110150057Y-82609523D01*
X110150057Y-82609523D02*
X110245295Y-82657142D01*
X110245295Y-82657142D02*
X110388152Y-82657142D01*
X110388152Y-82657142D02*
X110483390Y-82609523D01*
X110483390Y-82609523D02*
X110531009Y-82561904D01*
X110531009Y-82561904D02*
X110578628Y-82466666D01*
X110578628Y-82466666D02*
X110578628Y-82085714D01*
X111007200Y-83038095D02*
X111054819Y-83180952D01*
X111054819Y-83180952D02*
X111054819Y-83419047D01*
X111054819Y-83419047D02*
X111007200Y-83514285D01*
X111007200Y-83514285D02*
X110959580Y-83561904D01*
X110959580Y-83561904D02*
X110864342Y-83609523D01*
X110864342Y-83609523D02*
X110769104Y-83609523D01*
X110769104Y-83609523D02*
X110673866Y-83561904D01*
X110673866Y-83561904D02*
X110626247Y-83514285D01*
X110626247Y-83514285D02*
X110578628Y-83419047D01*
X110578628Y-83419047D02*
X110531009Y-83228571D01*
X110531009Y-83228571D02*
X110483390Y-83133333D01*
X110483390Y-83133333D02*
X110435771Y-83085714D01*
X110435771Y-83085714D02*
X110340533Y-83038095D01*
X110340533Y-83038095D02*
X110245295Y-83038095D01*
X110245295Y-83038095D02*
X110150057Y-83085714D01*
X110150057Y-83085714D02*
X110102438Y-83133333D01*
X110102438Y-83133333D02*
X110054819Y-83228571D01*
X110054819Y-83228571D02*
X110054819Y-83466666D01*
X110054819Y-83466666D02*
X110102438Y-83609523D01*
X111054819Y-84561904D02*
X111054819Y-83990476D01*
X111054819Y-84276190D02*
X110054819Y-84276190D01*
X110054819Y-84276190D02*
X110197676Y-84180952D01*
X110197676Y-84180952D02*
X110292914Y-84085714D01*
X110292914Y-84085714D02*
X110340533Y-83990476D01*
D12*
%TO.C,D1*%
X108075000Y-80985000D02*
X110535000Y-80985000D01*
X110535000Y-79515000D02*
X108075000Y-79515000D01*
X110535000Y-80985000D02*
X110535000Y-79515000D01*
D13*
%TO.C,J1*%
X114100000Y-90400000D02*
X139100000Y-90400000D01*
X114100000Y-98600000D02*
X114100000Y-90400000D01*
X139100000Y-90400000D02*
X139100000Y-98600000D01*
X139100000Y-98600000D02*
X114100000Y-98600000D01*
X139600000Y-94500000D02*
X139600000Y-94500000D01*
X139800000Y-94500000D02*
X139800000Y-94500000D01*
X139600000Y-94500000D02*
G75*
G02*
X139800000Y-94500000I100000J0D01*
G01*
X139800000Y-94500000D02*
G75*
G02*
X139600000Y-94500000I-100000J0D01*
G01*
D12*
%TO.C,D2*%
X142340000Y-79265000D02*
X142340000Y-80735000D01*
X142340000Y-80735000D02*
X144800000Y-80735000D01*
X144800000Y-79265000D02*
X142340000Y-79265000D01*
%TO.C,Q2*%
X144150795Y-88722145D02*
X142843094Y-87967146D01*
X145227318Y-93119551D02*
X141208096Y-90799050D01*
X146001295Y-85516986D02*
X144693597Y-84761986D01*
X146328096Y-81930950D02*
X141208096Y-90799050D01*
X147635795Y-82685949D02*
X142515793Y-91554049D01*
X150347321Y-84251447D02*
X145227318Y-93119551D01*
X150347321Y-84251447D02*
X146328096Y-81930950D01*
D13*
%TO.C,J2*%
X120160000Y-56060000D02*
X120160000Y-56060000D01*
X120160000Y-56060000D02*
X120160000Y-56060000D01*
X120260000Y-56060000D02*
X120260000Y-56060000D01*
X120760000Y-52960000D02*
X120760000Y-59160000D01*
X120760000Y-59160000D02*
X121360000Y-59160000D01*
X123160000Y-59160000D02*
X123760000Y-59160000D01*
X125560000Y-59160000D02*
X126460000Y-59160000D01*
X128260000Y-59160000D02*
X128840000Y-59160000D01*
X128840000Y-52960000D02*
X120760000Y-52960000D01*
X128840000Y-59160000D02*
X128840000Y-52960000D01*
X120160000Y-56060000D02*
G75*
G02*
X120260000Y-56060000I50000J0D01*
G01*
X120260000Y-56060000D02*
G75*
G02*
X120160000Y-56060000I-50000J0D01*
G01*
X120260000Y-56060000D02*
G75*
G02*
X120160000Y-56060000I-50000J0D01*
G01*
D12*
%TO.C,Q1*%
X103782677Y-84851745D02*
X107801903Y-82531245D01*
X103782677Y-84851745D02*
X108902679Y-93719845D01*
X106494204Y-83286244D02*
X111614205Y-92154344D01*
X107801903Y-82531245D02*
X112921903Y-91399345D01*
X108128704Y-86117281D02*
X109436402Y-85362281D01*
X108902679Y-93719845D02*
X112921903Y-91399345D01*
X109979204Y-89322440D02*
X111286904Y-88567441D01*
%TO.C,PS1*%
X111680000Y-62092500D02*
X111680000Y-87822500D01*
X111680000Y-87822500D02*
X137320000Y-87822500D01*
X129170000Y-88122500D02*
X131170000Y-88122500D01*
X137320000Y-62092500D02*
X111680000Y-62092500D01*
X137320000Y-62092500D02*
X137320000Y-87822500D01*
%TD*%
M02*
