M48
; DRILL file {KiCad 8.0.7-unknown-202412152340~ed5068829f~ubuntu24.04.1} date 2025-01-05T18:11:07+0100
; FORMAT={-:-/ absolute / inch / decimal}
; #@! TF.CreationDate,2025-01-05T18:11:07+01:00
; #@! TF.GenerationSoftware,Kicad,Pcbnew,8.0.7-unknown-202412152340~ed5068829f~ubuntu24.04.1
; #@! TF.FileFunction,Plated,1,2,PTH
FMAT,2
INCH
; #@! TA.AperFunction,Plated,PTH,ViaDrill
T1C0.0197
; #@! TA.AperFunction,Plated,PTH,ComponentDrill
T2C0.0394
; #@! TA.AperFunction,Plated,PTH,ComponentDrill
T3C0.0433
%
G90
G05
T1
X4.2362Y-3.2283
X4.4724Y-2.9134
X4.622Y-2.6614
X4.6378Y-3.2677
X4.6614Y-2.8583
X4.6614Y-2.937
X4.7323Y-3.3307
X4.7756Y-3.0
X4.874Y-2.5984
X4.9528Y-2.5984
X4.9547Y-3.0837
X4.9626Y-2.8957
X5.0157Y-2.748
X5.0492Y-3.2805
X5.0551Y-2.5276
X5.061Y-3.1545
X5.0886Y-2.7333
X5.1831Y-2.9656
X5.187Y-3.1624
X5.2283Y-2.6024
X5.2677Y-2.9252
X5.2677Y-3.0039
X5.3189Y-3.1496
X5.3819Y-3.0157
X5.5748Y-2.7953
X5.5748Y-2.7953
X5.5748Y-2.7953
X5.6142Y-2.8425
X5.7598Y-3.1496
T2
X4.4791Y-2.5292
X4.9291Y-2.5292
X5.1248Y-3.3466
X5.2783Y-3.3466
X5.3291Y-2.5292
T3
X4.1835Y-3.4016
X4.2335Y-3.4882
X4.2835Y-3.5748
X4.5906Y-3.7205
X4.7874Y-3.7205
X4.8134Y-2.2071
X4.9134Y-2.2071
X4.9843Y-3.7205
X5.0134Y-2.2071
X5.1811Y-3.7205
X5.378Y-3.7205
X5.7217Y-3.5512
X5.7717Y-3.4646
X5.8217Y-3.378
M30
