%TF.GenerationSoftware,KiCad,Pcbnew,8.0.7-unknown-202412152340~ed5068829f~ubuntu24.04.1*%
%TF.CreationDate,2025-01-05T18:10:28+01:00*%
%TF.ProjectId,sterownik_rolety_Zigbee,73746572-6f77-46e6-996b-5f726f6c6574,rev?*%
%TF.SameCoordinates,Original*%
%TF.FileFunction,Paste,Top*%
%TF.FilePolarity,Positive*%
%FSLAX46Y46*%
G04 Gerber Fmt 4.6, Leading zero omitted, Abs format (unit mm)*
G04 Created by KiCad (PCBNEW 8.0.7-unknown-202412152340~ed5068829f~ubuntu24.04.1) date 2025-01-05 18:10:28*
%MOMM*%
%LPD*%
G01*
G04 APERTURE LIST*
G04 Aperture macros list*
%AMRoundRect*
0 Rectangle with rounded corners*
0 $1 Rounding radius*
0 $2 $3 $4 $5 $6 $7 $8 $9 X,Y pos of 4 corners*
0 Add a 4 corners polygon primitive as box body*
4,1,4,$2,$3,$4,$5,$6,$7,$8,$9,$2,$3,0*
0 Add four circle primitives for the rounded corners*
1,1,$1+$1,$2,$3*
1,1,$1+$1,$4,$5*
1,1,$1+$1,$6,$7*
1,1,$1+$1,$8,$9*
0 Add four rect primitives between the rounded corners*
20,1,$1+$1,$2,$3,$4,$5,0*
20,1,$1+$1,$4,$5,$6,$7,0*
20,1,$1+$1,$6,$7,$8,$9,0*
20,1,$1+$1,$8,$9,$2,$3,0*%
G04 Aperture macros list end*
%ADD10RoundRect,0.237500X0.237500X-0.300000X0.237500X0.300000X-0.237500X0.300000X-0.237500X-0.300000X0*%
%ADD11RoundRect,0.237500X-0.237500X0.250000X-0.237500X-0.250000X0.237500X-0.250000X0.237500X0.250000X0*%
%ADD12R,3.100000X1.600000*%
%ADD13RoundRect,0.237500X-0.300000X-0.237500X0.300000X-0.237500X0.300000X0.237500X-0.300000X0.237500X0*%
%ADD14RoundRect,0.237500X-0.287500X-0.237500X0.287500X-0.237500X0.287500X0.237500X-0.287500X0.237500X0*%
%ADD15RoundRect,0.237500X-0.237500X0.300000X-0.237500X-0.300000X0.237500X-0.300000X0.237500X0.300000X0*%
%ADD16RoundRect,0.237500X-0.250000X-0.237500X0.250000X-0.237500X0.250000X0.237500X-0.250000X0.237500X0*%
%ADD17R,1.780000X2.000000*%
%ADD18RoundRect,0.200000X0.200000X-0.250000X0.200000X0.250000X-0.200000X0.250000X-0.200000X-0.250000X0*%
%ADD19RoundRect,0.237500X0.300000X0.237500X-0.300000X0.237500X-0.300000X-0.237500X0.300000X-0.237500X0*%
%ADD20R,0.800000X1.600000*%
%ADD21R,2.100000X3.000000*%
%ADD22R,0.275000X0.700000*%
%ADD23R,0.450000X0.245000*%
%ADD24RoundRect,0.237500X0.237500X-0.250000X0.237500X0.250000X-0.237500X0.250000X-0.237500X-0.250000X0*%
%ADD25R,0.300000X0.850000*%
%ADD26R,0.850000X0.300000*%
%ADD27R,3.700000X3.700000*%
G04 APERTURE END LIST*
D10*
%TO.C,C17*%
X123250000Y-84587500D03*
X123250000Y-82862500D03*
%TD*%
D11*
%TO.C,R4*%
X140400000Y-86087500D03*
X140400000Y-87912500D03*
%TD*%
D12*
%TO.C,Q3*%
X104805000Y-77320000D03*
X104805000Y-79860000D03*
X104805000Y-82400000D03*
X113695000Y-82400000D03*
X113695000Y-79860000D03*
X113695000Y-77320000D03*
%TD*%
D13*
%TO.C,C10*%
X130750000Y-69325000D03*
X132475000Y-69325000D03*
%TD*%
D14*
%TO.C,L1*%
X132750000Y-78325000D03*
X134500000Y-78325000D03*
%TD*%
D15*
%TO.C,C15*%
X136200000Y-78325000D03*
X136200000Y-80050000D03*
%TD*%
D13*
%TO.C,C8*%
X130750000Y-76325000D03*
X132475000Y-76325000D03*
%TD*%
D16*
%TO.C,R6*%
X136587500Y-86800000D03*
X138412500Y-86800000D03*
%TD*%
D13*
%TO.C,C1*%
X130775000Y-71325000D03*
X132500000Y-71325000D03*
%TD*%
D11*
%TO.C,R1*%
X109400000Y-84975000D03*
X109400000Y-86800000D03*
%TD*%
D13*
%TO.C,C6*%
X130750000Y-67325000D03*
X132475000Y-67325000D03*
%TD*%
D12*
%TO.C,Q4*%
X148645000Y-82540000D03*
X148645000Y-80000000D03*
X148645000Y-77460000D03*
X139755000Y-77460000D03*
X139755000Y-80000000D03*
X139755000Y-82540000D03*
%TD*%
D17*
%TO.C,U1*%
X119240000Y-56270000D03*
X116700000Y-56270000D03*
X116700000Y-65800000D03*
X119240000Y-65800000D03*
%TD*%
D11*
%TO.C,R3*%
X143400000Y-86087500D03*
X143400000Y-87912500D03*
%TD*%
D18*
%TO.C,Y1*%
X137850000Y-73825000D03*
X137850000Y-72425000D03*
X136750000Y-72425000D03*
X136750000Y-73825000D03*
%TD*%
D15*
%TO.C,C12*%
X125650000Y-80200000D03*
X125650000Y-81925000D03*
%TD*%
D10*
%TO.C,C3*%
X123800000Y-69000000D03*
X123800000Y-67275000D03*
%TD*%
D13*
%TO.C,C2*%
X130750000Y-74325000D03*
X132475000Y-74325000D03*
%TD*%
D17*
%TO.C,U2*%
X132570000Y-54635000D03*
X130030000Y-54635000D03*
X130030000Y-64165000D03*
X132570000Y-64165000D03*
%TD*%
D15*
%TO.C,C9*%
X127350000Y-80200000D03*
X127350000Y-81925000D03*
%TD*%
D19*
%TO.C,C7*%
X121300000Y-74500000D03*
X119575000Y-74500000D03*
%TD*%
D15*
%TO.C,C11*%
X130250000Y-78462500D03*
X130250000Y-80187500D03*
%TD*%
D20*
%TO.C,J3*%
X112000000Y-73750000D03*
X110750001Y-73750000D03*
X109500001Y-73750000D03*
X108250001Y-73750000D03*
X107000000Y-73750000D03*
D21*
X104450000Y-70850000D03*
X114550001Y-70850000D03*
%TD*%
D10*
%TO.C,C4*%
X125800000Y-69000000D03*
X125800000Y-67275000D03*
%TD*%
D19*
%TO.C,C14*%
X141325000Y-73600000D03*
X139600000Y-73600000D03*
%TD*%
D22*
%TO.C,FL1*%
X146288000Y-74273000D03*
D23*
X146900000Y-74500000D03*
D22*
X147513000Y-74273000D03*
D23*
X146900000Y-74046000D03*
%TD*%
D24*
%TO.C,R5*%
X117800000Y-81512500D03*
X117800000Y-79687500D03*
%TD*%
D11*
%TO.C,R2*%
X111800000Y-84975000D03*
X111800000Y-86800000D03*
%TD*%
D19*
%TO.C,C5*%
X121300000Y-72575000D03*
X119575000Y-72575000D03*
%TD*%
D10*
%TO.C,C16*%
X121450000Y-84587500D03*
X121450000Y-82862500D03*
%TD*%
D25*
%TO.C,IC1*%
X127800000Y-71100000D03*
X127300000Y-71100000D03*
X126800000Y-71100000D03*
X126300000Y-71100000D03*
X125800000Y-71100000D03*
X125300000Y-71100000D03*
X124800000Y-71100000D03*
X124300000Y-71100000D03*
D26*
X123600000Y-71800000D03*
X123600000Y-72300000D03*
X123600000Y-72800000D03*
X123600000Y-73300000D03*
X123600000Y-73800000D03*
X123600000Y-74300000D03*
X123600000Y-74800000D03*
X123600000Y-75300000D03*
D25*
X124300000Y-76000000D03*
X124800000Y-76000000D03*
X125300000Y-76000000D03*
X125800000Y-76000000D03*
X126300000Y-76000000D03*
X126800000Y-76000000D03*
X127300000Y-76000000D03*
X127800000Y-76000000D03*
D26*
X128500000Y-75300000D03*
X128500000Y-74800000D03*
X128500000Y-74300000D03*
X128500000Y-73800000D03*
X128500000Y-73300000D03*
X128500000Y-72800000D03*
X128500000Y-72300000D03*
X128500000Y-71800000D03*
D27*
X126050000Y-73550000D03*
%TD*%
D19*
%TO.C,C13*%
X138575000Y-69825000D03*
X136850000Y-69825000D03*
%TD*%
M02*
