%TF.GenerationSoftware,KiCad,Pcbnew,8.0.7-unknown-202412152340~ed5068829f~ubuntu24.04.1*%
%TF.CreationDate,2025-01-04T16:16:26+01:00*%
%TF.ProjectId,sterownik_rolety_Zigbee,73746572-6f77-46e6-996b-5f726f6c6574,rev?*%
%TF.SameCoordinates,Original*%
%TF.FileFunction,Copper,L2,Bot*%
%TF.FilePolarity,Positive*%
%FSLAX46Y46*%
G04 Gerber Fmt 4.6, Leading zero omitted, Abs format (unit mm)*
G04 Created by KiCad (PCBNEW 8.0.7-unknown-202412152340~ed5068829f~ubuntu24.04.1) date 2025-01-04 16:16:26*
%MOMM*%
%LPD*%
G01*
G04 APERTURE LIST*
%TA.AperFunction,ComponentPad*%
%ADD10R,1.600000X1.600000*%
%TD*%
%TA.AperFunction,ComponentPad*%
%ADD11O,1.600000X1.600000*%
%TD*%
%TA.AperFunction,ComponentPad*%
%ADD12R,1.800000X1.800000*%
%TD*%
%TA.AperFunction,ComponentPad*%
%ADD13C,1.800000*%
%TD*%
%TA.AperFunction,ComponentPad*%
%ADD14C,1.650000*%
%TD*%
%TA.AperFunction,ComponentPad*%
%ADD15R,0.900000X0.500000*%
%TD*%
%TA.AperFunction,ComponentPad*%
%ADD16R,1.905000X2.000000*%
%TD*%
%TA.AperFunction,ComponentPad*%
%ADD17O,1.905000X2.000000*%
%TD*%
%TA.AperFunction,ComponentPad*%
%ADD18R,1.650000X1.650000*%
%TD*%
%TA.AperFunction,ComponentPad*%
%ADD19C,1.400000*%
%TD*%
%TA.AperFunction,ViaPad*%
%ADD20C,0.750000*%
%TD*%
%TA.AperFunction,Conductor*%
%ADD21C,0.150000*%
%TD*%
G04 APERTURE END LIST*
D10*
%TO.P,Q3,1,1*%
%TO.N,Net-(Q3-Pad1)*%
X135800000Y-94025000D03*
D11*
%TO.P,Q3,2,2*%
%TO.N,Net-(D1-A)*%
X135800000Y-91485000D03*
%TO.P,Q3,3,3*%
%TO.N,unconnected-(Q3-Pad3)*%
X135800000Y-88945000D03*
%TO.P,Q3,4,4*%
%TO.N,Net-(Q3-Pad4)*%
X128180000Y-88945000D03*
%TO.P,Q3,5,5*%
%TO.N,unconnected-(Q3-Pad5)*%
X128180000Y-91485000D03*
%TO.P,Q3,6,6*%
%TO.N,Net-(Q3-Pad6)*%
X128180000Y-94025000D03*
%TD*%
D12*
%TO.P,D2,1,K*%
%TO.N,Motor_output_2*%
X108040000Y-88000000D03*
D13*
%TO.P,D2,2,A*%
%TO.N,Net-(D2-A)*%
X105500000Y-88000000D03*
%TD*%
D10*
%TO.P,Q4,1,1*%
%TO.N,Net-(Q4-Pad1)*%
X121800000Y-94025000D03*
D11*
%TO.P,Q4,2,2*%
%TO.N,Net-(D2-A)*%
X121800000Y-91485000D03*
%TO.P,Q4,3,3*%
%TO.N,unconnected-(Q4-Pad3)*%
X121800000Y-88945000D03*
%TO.P,Q4,4,4*%
%TO.N,Net-(Q4-Pad4)*%
X114180000Y-88945000D03*
%TO.P,Q4,5,5*%
%TO.N,unconnected-(Q4-Pad5)*%
X114180000Y-91485000D03*
%TO.P,Q4,6,6*%
%TO.N,Net-(Q4-Pad6)*%
X114180000Y-94025000D03*
%TD*%
D10*
%TO.P,U1,1*%
%TO.N,Switch_input_1*%
X101500000Y-74025000D03*
D11*
%TO.P,U1,2*%
%TO.N,Switch_Common*%
X101500000Y-76565000D03*
%TO.P,U1,3*%
%TO.N,GND*%
X109120000Y-76565000D03*
%TO.P,U1,4*%
%TO.N,Net-(IC1-PA0)*%
X109120000Y-74025000D03*
%TD*%
D14*
%TO.P,J1,1,1*%
%TO.N,Q2_connector*%
X118480000Y-138700000D03*
%TO.P,J1,2,2*%
%TO.N,Q1_connector*%
X123480000Y-138700000D03*
%TO.P,J1,3,3*%
%TO.N,N_connector*%
X128480000Y-138700000D03*
%TO.P,J1,4,4*%
X133480000Y-138700000D03*
%TO.P,J1,5,5*%
%TO.N,L_connector*%
X138480000Y-138700000D03*
%TD*%
D15*
%TO.P,AE1,2*%
%TO.N,N/C*%
X126850000Y-56125000D03*
%TD*%
D16*
%TO.P,Q2,1,A1*%
%TO.N,L_connector*%
X117308000Y-103438000D03*
D17*
%TO.P,Q2,2,A2*%
%TO.N,Q2_connector*%
X114768000Y-103438000D03*
%TO.P,Q2,3,G*%
%TO.N,Net-(Q2-G)*%
X112228000Y-103438000D03*
%TD*%
D10*
%TO.P,U2,1*%
%TO.N,Switch_Input_2*%
X101500000Y-66525000D03*
D11*
%TO.P,U2,2*%
%TO.N,Switch_Common*%
X101500000Y-69065000D03*
%TO.P,U2,3*%
%TO.N,GND*%
X109120000Y-69065000D03*
%TO.P,U2,4*%
%TO.N,Net-(IC1-PA1)*%
X109120000Y-66525000D03*
%TD*%
D18*
%TO.P,J2,1,1*%
%TO.N,Switch_input_1*%
X94200000Y-73725000D03*
D14*
%TO.P,J2,2,2*%
%TO.N,Switch_Input_2*%
X94200000Y-71185000D03*
%TO.P,J2,3,3*%
%TO.N,Switch_Common*%
X94200000Y-68645000D03*
%TD*%
D19*
%TO.P,U3,1,+V*%
%TO.N,VDD*%
X150620000Y-99000000D03*
%TO.P,U3,2,-V*%
%TO.N,GND*%
X143020000Y-99000000D03*
%TO.P,U3,3,AC/N*%
%TO.N,N_connector*%
X143000000Y-127000000D03*
%TO.P,U3,4,AC/L*%
%TO.N,L_connector*%
X158200000Y-127000000D03*
%TD*%
D16*
%TO.P,Q1,1,A1*%
%TO.N,L_connector*%
X129500000Y-103438000D03*
D17*
%TO.P,Q1,2,A2*%
%TO.N,Q1_connector*%
X126960000Y-103438000D03*
%TO.P,Q1,3,G*%
%TO.N,Net-(Q1-G)*%
X124420000Y-103438000D03*
%TD*%
D12*
%TO.P,D1,1,K*%
%TO.N,Motor_output_1*%
X143000000Y-88500000D03*
D13*
%TO.P,D1,2,A*%
%TO.N,Net-(D1-A)*%
X145540000Y-88500000D03*
%TD*%
D20*
%TO.N,VDD*%
X125600000Y-72000000D03*
X131500000Y-69600000D03*
X133050000Y-79950000D03*
X136300000Y-72700000D03*
%TO.N,Motor_output_2*%
X134500000Y-75400000D03*
X110700000Y-88000000D03*
%TO.N,Motor_output_1*%
X139900000Y-88500000D03*
X124100000Y-73300000D03*
%TO.N,GND*%
X123600000Y-60900000D03*
X136225000Y-63300000D03*
X136500000Y-69500000D03*
X132000000Y-65300000D03*
X121225000Y-68775000D03*
X129725000Y-75200000D03*
X122300000Y-74000000D03*
X139500000Y-73000000D03*
X137100000Y-81675000D03*
X143400000Y-79900000D03*
%TD*%
D21*
%TO.N,VDD*%
X126200000Y-72700000D02*
X125600000Y-72100000D01*
X136300000Y-72700000D02*
X126200000Y-72700000D01*
X125500000Y-72000000D02*
X125550000Y-72050000D01*
X136300000Y-72700000D02*
X133200000Y-69600000D01*
X133050000Y-79950000D02*
X136300000Y-76700000D01*
X133200000Y-69600000D02*
X131500000Y-69600000D01*
X125600000Y-72100000D02*
X125600000Y-72000000D01*
X136300000Y-76700000D02*
X136300000Y-72700000D01*
X125600000Y-72000000D02*
X125500000Y-72000000D01*
%TO.N,Motor_output_2*%
X132700000Y-77200000D02*
X134500000Y-75400000D01*
X121500000Y-77200000D02*
X132700000Y-77200000D01*
X110700000Y-88000000D02*
X121500000Y-77200000D01*
%TO.N,Motor_output_1*%
X139900000Y-88500000D02*
X140900000Y-87500000D01*
X126500000Y-68300000D02*
X124100000Y-70700000D01*
X140900000Y-87500000D02*
X140900000Y-71100000D01*
X140900000Y-71100000D02*
X138100000Y-68300000D01*
X124100000Y-70700000D02*
X124100000Y-73300000D01*
X138100000Y-68300000D02*
X126500000Y-68300000D01*
%TD*%
%TA.AperFunction,Conductor*%
%TO.N,GND*%
G36*
X121227656Y-48237907D02*
G01*
X121280402Y-48283730D01*
X121300000Y-48350635D01*
X121300000Y-57600000D01*
X143700000Y-57600000D01*
X143700000Y-50465686D01*
X143719685Y-50398647D01*
X143772489Y-50352892D01*
X143841647Y-50342948D01*
X143861982Y-50347647D01*
X143878281Y-50352892D01*
X143906422Y-50361948D01*
X143909746Y-50363069D01*
X145234036Y-50830970D01*
X145237282Y-50832169D01*
X146547808Y-51337362D01*
X146551033Y-51338658D01*
X147241853Y-51627673D01*
X147846704Y-51880721D01*
X147849922Y-51882121D01*
X149129715Y-52460624D01*
X149132892Y-52462114D01*
X150395843Y-53076622D01*
X150398976Y-53078202D01*
X151643989Y-53728182D01*
X151647075Y-53729849D01*
X152873245Y-54414828D01*
X152876252Y-54416564D01*
X154082543Y-55135967D01*
X154085461Y-55137763D01*
X154992528Y-55714126D01*
X155270931Y-55891027D01*
X155273860Y-55892947D01*
X156437526Y-56679448D01*
X156440344Y-56681411D01*
X157581274Y-57500519D01*
X157584096Y-57502606D01*
X158701380Y-58353665D01*
X158704130Y-58355823D01*
X159796886Y-59238160D01*
X159799568Y-59240389D01*
X160866881Y-60153268D01*
X160869516Y-60155586D01*
X161910619Y-61098348D01*
X161913186Y-61100740D01*
X162927177Y-62072573D01*
X162929634Y-62074995D01*
X163915716Y-63075130D01*
X163918145Y-63077664D01*
X164875528Y-64105304D01*
X164877883Y-64107905D01*
X165805788Y-65162209D01*
X165808062Y-65164867D01*
X166567384Y-66078511D01*
X166705770Y-66245021D01*
X166707965Y-66247740D01*
X167574729Y-67352843D01*
X167576856Y-67355635D01*
X168412041Y-68484880D01*
X168414087Y-68487730D01*
X169216928Y-69640080D01*
X169218894Y-69642988D01*
X169988835Y-70817646D01*
X169990717Y-70820608D01*
X170727105Y-72016579D01*
X170728902Y-72019593D01*
X171097293Y-72657664D01*
X171420479Y-73217438D01*
X171431133Y-73235890D01*
X171432835Y-73238936D01*
X171735010Y-73798302D01*
X172100393Y-74474674D01*
X172102017Y-74477785D01*
X172734320Y-75731885D01*
X172735855Y-75735040D01*
X173332410Y-77006518D01*
X173333856Y-77009716D01*
X173894211Y-78297612D01*
X173895565Y-78300850D01*
X174419217Y-79604009D01*
X174420480Y-79607283D01*
X174907074Y-80924820D01*
X174908243Y-80928129D01*
X175357347Y-82258873D01*
X175358422Y-82262214D01*
X175769687Y-83605136D01*
X175770667Y-83608506D01*
X176143766Y-84962533D01*
X176144650Y-84965929D01*
X176479277Y-86329956D01*
X176480065Y-86333376D01*
X176775961Y-87706335D01*
X176776652Y-87709776D01*
X177033578Y-89090572D01*
X177034171Y-89094031D01*
X177251916Y-90481527D01*
X177252411Y-90485001D01*
X177430809Y-91878130D01*
X177431205Y-91881617D01*
X177570101Y-93279186D01*
X177570399Y-93282682D01*
X177669696Y-94683689D01*
X177669894Y-94687193D01*
X177729500Y-96090368D01*
X177729600Y-96093876D01*
X177749475Y-97498245D01*
X177749475Y-97501755D01*
X177729600Y-98906123D01*
X177729500Y-98909631D01*
X177669894Y-100312806D01*
X177669696Y-100316310D01*
X177570399Y-101717317D01*
X177570101Y-101720813D01*
X177431205Y-103118382D01*
X177430809Y-103121869D01*
X177252411Y-104514998D01*
X177251916Y-104518472D01*
X177034171Y-105905968D01*
X177033578Y-105909427D01*
X176776652Y-107290223D01*
X176775961Y-107293664D01*
X176480065Y-108666623D01*
X176479277Y-108670043D01*
X176144650Y-110034070D01*
X176143766Y-110037466D01*
X175770667Y-111391493D01*
X175769687Y-111394863D01*
X175358422Y-112737785D01*
X175357347Y-112741126D01*
X174908243Y-114071870D01*
X174907074Y-114075179D01*
X174420480Y-115392716D01*
X174419217Y-115395990D01*
X173895565Y-116699149D01*
X173894211Y-116702387D01*
X173333856Y-117990283D01*
X173332410Y-117993481D01*
X172735855Y-119264959D01*
X172734320Y-119268114D01*
X172102017Y-120522214D01*
X172100393Y-120525325D01*
X171432845Y-121761045D01*
X171431133Y-121764109D01*
X170728902Y-122980406D01*
X170727105Y-122983420D01*
X169990717Y-124179391D01*
X169988835Y-124182353D01*
X169218894Y-125357011D01*
X169216928Y-125359919D01*
X168414087Y-126512269D01*
X168412041Y-126515119D01*
X167576856Y-127644364D01*
X167574729Y-127647156D01*
X166707975Y-128752247D01*
X166705770Y-128754978D01*
X165808069Y-129835123D01*
X165805788Y-129837790D01*
X164877883Y-130892094D01*
X164875528Y-130894695D01*
X163918145Y-131922335D01*
X163915716Y-131924869D01*
X162929655Y-132924983D01*
X162927156Y-132927447D01*
X161913186Y-133899259D01*
X161910619Y-133901651D01*
X160869516Y-134844413D01*
X160866881Y-134846731D01*
X159799568Y-135759610D01*
X159796869Y-135761853D01*
X158704141Y-136644168D01*
X158701380Y-136646334D01*
X157584096Y-137497393D01*
X157581274Y-137499480D01*
X156440375Y-138318566D01*
X156437496Y-138320572D01*
X155273866Y-139107048D01*
X155270931Y-139108972D01*
X154085496Y-139862214D01*
X154082507Y-139864054D01*
X152876268Y-140583425D01*
X152873229Y-140585180D01*
X151647077Y-141270149D01*
X151643989Y-141271817D01*
X150398976Y-141921797D01*
X150395843Y-141923377D01*
X149132892Y-142537885D01*
X149129715Y-142539375D01*
X147849922Y-143117878D01*
X147846704Y-143119278D01*
X146551049Y-143661334D01*
X146547792Y-143662643D01*
X145237305Y-144167821D01*
X145234013Y-144169037D01*
X143909745Y-144636930D01*
X143906420Y-144638052D01*
X142569473Y-145068273D01*
X142566118Y-145069301D01*
X141217479Y-145461532D01*
X141214095Y-145462464D01*
X139854942Y-145816360D01*
X139851534Y-145817196D01*
X138482883Y-146132493D01*
X138479452Y-146133232D01*
X137102458Y-146409667D01*
X137099008Y-146410309D01*
X135714719Y-146647668D01*
X135711252Y-146648212D01*
X134320818Y-146846302D01*
X134317337Y-146846748D01*
X132921832Y-147005411D01*
X132918340Y-147005758D01*
X131518913Y-147124868D01*
X131515412Y-147125116D01*
X130113183Y-147204574D01*
X130109677Y-147204723D01*
X128705764Y-147244469D01*
X128702255Y-147244519D01*
X127297745Y-147244519D01*
X127294236Y-147244469D01*
X125890322Y-147204723D01*
X125886816Y-147204574D01*
X124484587Y-147125116D01*
X124481086Y-147124868D01*
X123081659Y-147005758D01*
X123078167Y-147005411D01*
X121682662Y-146846748D01*
X121679181Y-146846302D01*
X120288747Y-146648212D01*
X120285280Y-146647668D01*
X118900991Y-146410309D01*
X118897541Y-146409667D01*
X117520547Y-146133232D01*
X117517116Y-146132493D01*
X116148465Y-145817196D01*
X116145057Y-145816360D01*
X114785904Y-145462464D01*
X114782520Y-145461532D01*
X113433881Y-145069301D01*
X113430526Y-145068273D01*
X112093579Y-144638052D01*
X112090254Y-144636930D01*
X110765986Y-144169037D01*
X110762694Y-144167821D01*
X109452207Y-143662643D01*
X109448950Y-143661334D01*
X108153295Y-143119278D01*
X108150077Y-143117878D01*
X106870284Y-142539375D01*
X106867107Y-142537885D01*
X105604156Y-141923377D01*
X105601023Y-141921797D01*
X104356010Y-141271817D01*
X104352922Y-141270149D01*
X103126770Y-140585180D01*
X103123731Y-140583425D01*
X102162799Y-140010349D01*
X101917476Y-139864044D01*
X101914519Y-139862224D01*
X101007472Y-139285874D01*
X100729068Y-139108972D01*
X100726133Y-139107048D01*
X100123887Y-138700001D01*
X100123883Y-138699998D01*
X117149437Y-138699998D01*
X117149437Y-138700001D01*
X117169650Y-138931044D01*
X117169651Y-138931051D01*
X117229678Y-139155074D01*
X117229679Y-139155076D01*
X117229680Y-139155079D01*
X117327699Y-139365282D01*
X117460730Y-139555269D01*
X117624731Y-139719270D01*
X117814718Y-139852301D01*
X118024921Y-139950320D01*
X118248950Y-140010349D01*
X118413985Y-140024787D01*
X118479998Y-140030563D01*
X118480000Y-140030563D01*
X118480002Y-140030563D01*
X118537762Y-140025509D01*
X118711050Y-140010349D01*
X118935079Y-139950320D01*
X119145282Y-139852301D01*
X119335269Y-139719270D01*
X119499270Y-139555269D01*
X119632301Y-139365282D01*
X119730320Y-139155079D01*
X119790349Y-138931050D01*
X119810563Y-138700000D01*
X119810563Y-138699998D01*
X122149437Y-138699998D01*
X122149437Y-138700001D01*
X122169650Y-138931044D01*
X122169651Y-138931051D01*
X122229678Y-139155074D01*
X122229679Y-139155076D01*
X122229680Y-139155079D01*
X122327699Y-139365282D01*
X122460730Y-139555269D01*
X122624731Y-139719270D01*
X122814718Y-139852301D01*
X123024921Y-139950320D01*
X123248950Y-140010349D01*
X123413985Y-140024787D01*
X123479998Y-140030563D01*
X123480000Y-140030563D01*
X123480002Y-140030563D01*
X123537762Y-140025509D01*
X123711050Y-140010349D01*
X123935079Y-139950320D01*
X124145282Y-139852301D01*
X124335269Y-139719270D01*
X124499270Y-139555269D01*
X124632301Y-139365282D01*
X124730320Y-139155079D01*
X124790349Y-138931050D01*
X124810563Y-138700000D01*
X124810563Y-138699998D01*
X127149437Y-138699998D01*
X127149437Y-138700001D01*
X127169650Y-138931044D01*
X127169651Y-138931051D01*
X127229678Y-139155074D01*
X127229679Y-139155076D01*
X127229680Y-139155079D01*
X127327699Y-139365282D01*
X127460730Y-139555269D01*
X127624731Y-139719270D01*
X127814718Y-139852301D01*
X128024921Y-139950320D01*
X128248950Y-140010349D01*
X128413985Y-140024787D01*
X128479998Y-140030563D01*
X128480000Y-140030563D01*
X128480002Y-140030563D01*
X128537762Y-140025509D01*
X128711050Y-140010349D01*
X128935079Y-139950320D01*
X129145282Y-139852301D01*
X129335269Y-139719270D01*
X129499270Y-139555269D01*
X129632301Y-139365282D01*
X129730320Y-139155079D01*
X129790349Y-138931050D01*
X129810563Y-138700000D01*
X129810563Y-138699998D01*
X132149437Y-138699998D01*
X132149437Y-138700001D01*
X132169650Y-138931044D01*
X132169651Y-138931051D01*
X132229678Y-139155074D01*
X132229679Y-139155076D01*
X132229680Y-139155079D01*
X132327699Y-139365282D01*
X132460730Y-139555269D01*
X132624731Y-139719270D01*
X132814718Y-139852301D01*
X133024921Y-139950320D01*
X133248950Y-140010349D01*
X133413985Y-140024787D01*
X133479998Y-140030563D01*
X133480000Y-140030563D01*
X133480002Y-140030563D01*
X133537762Y-140025509D01*
X133711050Y-140010349D01*
X133935079Y-139950320D01*
X134145282Y-139852301D01*
X134335269Y-139719270D01*
X134499270Y-139555269D01*
X134632301Y-139365282D01*
X134730320Y-139155079D01*
X134790349Y-138931050D01*
X134810563Y-138700000D01*
X134810563Y-138699998D01*
X137149437Y-138699998D01*
X137149437Y-138700001D01*
X137169650Y-138931044D01*
X137169651Y-138931051D01*
X137229678Y-139155074D01*
X137229679Y-139155076D01*
X137229680Y-139155079D01*
X137327699Y-139365282D01*
X137460730Y-139555269D01*
X137624731Y-139719270D01*
X137814718Y-139852301D01*
X138024921Y-139950320D01*
X138248950Y-140010349D01*
X138413985Y-140024787D01*
X138479998Y-140030563D01*
X138480000Y-140030563D01*
X138480002Y-140030563D01*
X138537762Y-140025509D01*
X138711050Y-140010349D01*
X138935079Y-139950320D01*
X139145282Y-139852301D01*
X139335269Y-139719270D01*
X139499270Y-139555269D01*
X139632301Y-139365282D01*
X139730320Y-139155079D01*
X139790349Y-138931050D01*
X139810563Y-138700000D01*
X139790349Y-138468950D01*
X139730320Y-138244921D01*
X139632301Y-138034719D01*
X139632299Y-138034716D01*
X139632298Y-138034714D01*
X139499273Y-137844735D01*
X139499268Y-137844729D01*
X139335269Y-137680730D01*
X139297989Y-137654626D01*
X139145282Y-137547699D01*
X138935079Y-137449680D01*
X138935076Y-137449679D01*
X138935074Y-137449678D01*
X138711051Y-137389651D01*
X138711044Y-137389650D01*
X138480002Y-137369437D01*
X138479998Y-137369437D01*
X138248955Y-137389650D01*
X138248948Y-137389651D01*
X138024917Y-137449681D01*
X137814718Y-137547699D01*
X137814714Y-137547701D01*
X137624735Y-137680726D01*
X137624729Y-137680731D01*
X137460731Y-137844729D01*
X137460726Y-137844735D01*
X137327701Y-138034714D01*
X137327699Y-138034718D01*
X137229681Y-138244917D01*
X137169651Y-138468948D01*
X137169650Y-138468955D01*
X137149437Y-138699998D01*
X134810563Y-138699998D01*
X134790349Y-138468950D01*
X134730320Y-138244921D01*
X134632301Y-138034719D01*
X134632299Y-138034716D01*
X134632298Y-138034714D01*
X134499273Y-137844735D01*
X134499268Y-137844729D01*
X134335269Y-137680730D01*
X134297989Y-137654626D01*
X134145282Y-137547699D01*
X133935079Y-137449680D01*
X133935076Y-137449679D01*
X133935074Y-137449678D01*
X133711051Y-137389651D01*
X133711044Y-137389650D01*
X133480002Y-137369437D01*
X133479998Y-137369437D01*
X133248955Y-137389650D01*
X133248948Y-137389651D01*
X133024917Y-137449681D01*
X132814718Y-137547699D01*
X132814714Y-137547701D01*
X132624735Y-137680726D01*
X132624729Y-137680731D01*
X132460731Y-137844729D01*
X132460726Y-137844735D01*
X132327701Y-138034714D01*
X132327699Y-138034718D01*
X132229681Y-138244917D01*
X132169651Y-138468948D01*
X132169650Y-138468955D01*
X132149437Y-138699998D01*
X129810563Y-138699998D01*
X129790349Y-138468950D01*
X129730320Y-138244921D01*
X129632301Y-138034719D01*
X129632299Y-138034716D01*
X129632298Y-138034714D01*
X129499273Y-137844735D01*
X129499268Y-137844729D01*
X129335269Y-137680730D01*
X129297989Y-137654626D01*
X129145282Y-137547699D01*
X128935079Y-137449680D01*
X128935076Y-137449679D01*
X128935074Y-137449678D01*
X128711051Y-137389651D01*
X128711044Y-137389650D01*
X128480002Y-137369437D01*
X128479998Y-137369437D01*
X128248955Y-137389650D01*
X128248948Y-137389651D01*
X128024917Y-137449681D01*
X127814718Y-137547699D01*
X127814714Y-137547701D01*
X127624735Y-137680726D01*
X127624729Y-137680731D01*
X127460731Y-137844729D01*
X127460726Y-137844735D01*
X127327701Y-138034714D01*
X127327699Y-138034718D01*
X127229681Y-138244917D01*
X127169651Y-138468948D01*
X127169650Y-138468955D01*
X127149437Y-138699998D01*
X124810563Y-138699998D01*
X124790349Y-138468950D01*
X124730320Y-138244921D01*
X124632301Y-138034719D01*
X124632299Y-138034716D01*
X124632298Y-138034714D01*
X124499273Y-137844735D01*
X124499268Y-137844729D01*
X124335269Y-137680730D01*
X124297989Y-137654626D01*
X124145282Y-137547699D01*
X123935079Y-137449680D01*
X123935076Y-137449679D01*
X123935074Y-137449678D01*
X123711051Y-137389651D01*
X123711044Y-137389650D01*
X123480002Y-137369437D01*
X123479998Y-137369437D01*
X123248955Y-137389650D01*
X123248948Y-137389651D01*
X123024917Y-137449681D01*
X122814718Y-137547699D01*
X122814714Y-137547701D01*
X122624735Y-137680726D01*
X122624729Y-137680731D01*
X122460731Y-137844729D01*
X122460726Y-137844735D01*
X122327701Y-138034714D01*
X122327699Y-138034718D01*
X122229681Y-138244917D01*
X122169651Y-138468948D01*
X122169650Y-138468955D01*
X122149437Y-138699998D01*
X119810563Y-138699998D01*
X119790349Y-138468950D01*
X119730320Y-138244921D01*
X119632301Y-138034719D01*
X119632299Y-138034716D01*
X119632298Y-138034714D01*
X119499273Y-137844735D01*
X119499268Y-137844729D01*
X119335269Y-137680730D01*
X119297989Y-137654626D01*
X119145282Y-137547699D01*
X118935079Y-137449680D01*
X118935076Y-137449679D01*
X118935074Y-137449678D01*
X118711051Y-137389651D01*
X118711044Y-137389650D01*
X118480002Y-137369437D01*
X118479998Y-137369437D01*
X118248955Y-137389650D01*
X118248948Y-137389651D01*
X118024917Y-137449681D01*
X117814718Y-137547699D01*
X117814714Y-137547701D01*
X117624735Y-137680726D01*
X117624729Y-137680731D01*
X117460731Y-137844729D01*
X117460726Y-137844735D01*
X117327701Y-138034714D01*
X117327699Y-138034718D01*
X117229681Y-138244917D01*
X117169651Y-138468948D01*
X117169650Y-138468955D01*
X117149437Y-138699998D01*
X100123883Y-138699998D01*
X99562487Y-138320561D01*
X99559624Y-138318566D01*
X99457044Y-138244921D01*
X98634827Y-137654626D01*
X98418725Y-137499480D01*
X98415903Y-137497393D01*
X97298619Y-136646334D01*
X97295858Y-136644168D01*
X96203120Y-135761845D01*
X96200431Y-135759610D01*
X95133118Y-134846731D01*
X95130483Y-134844413D01*
X94089380Y-133901651D01*
X94086813Y-133899259D01*
X93186069Y-133035965D01*
X93072822Y-132927427D01*
X93070365Y-132925003D01*
X92084270Y-131924856D01*
X92081854Y-131922335D01*
X91124471Y-130894695D01*
X91122116Y-130892094D01*
X90194211Y-129837790D01*
X90191930Y-129835123D01*
X89294229Y-128754978D01*
X89292024Y-128752247D01*
X88859273Y-128200500D01*
X88425256Y-127647137D01*
X88423143Y-127644364D01*
X87946573Y-126999999D01*
X141794357Y-126999999D01*
X141794357Y-127000000D01*
X141814884Y-127221535D01*
X141814885Y-127221537D01*
X141875769Y-127435523D01*
X141875775Y-127435538D01*
X141974938Y-127634683D01*
X141974943Y-127634691D01*
X142109020Y-127812238D01*
X142273437Y-127962123D01*
X142273439Y-127962125D01*
X142462595Y-128079245D01*
X142462596Y-128079245D01*
X142462599Y-128079247D01*
X142670060Y-128159618D01*
X142888757Y-128200500D01*
X142888759Y-128200500D01*
X143111241Y-128200500D01*
X143111243Y-128200500D01*
X143329940Y-128159618D01*
X143537401Y-128079247D01*
X143726562Y-127962124D01*
X143890981Y-127812236D01*
X144025058Y-127634689D01*
X144124229Y-127435528D01*
X144185115Y-127221536D01*
X144205643Y-127000000D01*
X144205643Y-126999999D01*
X156994357Y-126999999D01*
X156994357Y-127000000D01*
X157014884Y-127221535D01*
X157014885Y-127221537D01*
X157075769Y-127435523D01*
X157075775Y-127435538D01*
X157174938Y-127634683D01*
X157174943Y-127634691D01*
X157309020Y-127812238D01*
X157473437Y-127962123D01*
X157473439Y-127962125D01*
X157662595Y-128079245D01*
X157662596Y-128079245D01*
X157662599Y-128079247D01*
X157870060Y-128159618D01*
X158088757Y-128200500D01*
X158088759Y-128200500D01*
X158311241Y-128200500D01*
X158311243Y-128200500D01*
X158529940Y-128159618D01*
X158737401Y-128079247D01*
X158926562Y-127962124D01*
X159090981Y-127812236D01*
X159225058Y-127634689D01*
X159324229Y-127435528D01*
X159385115Y-127221536D01*
X159405643Y-127000000D01*
X159385115Y-126778464D01*
X159324229Y-126564472D01*
X159298235Y-126512269D01*
X159225061Y-126365316D01*
X159225056Y-126365308D01*
X159090979Y-126187761D01*
X158926562Y-126037876D01*
X158926560Y-126037874D01*
X158737404Y-125920754D01*
X158737398Y-125920752D01*
X158529940Y-125840382D01*
X158311243Y-125799500D01*
X158088757Y-125799500D01*
X157870060Y-125840382D01*
X157738864Y-125891207D01*
X157662601Y-125920752D01*
X157662595Y-125920754D01*
X157473439Y-126037874D01*
X157473437Y-126037876D01*
X157309020Y-126187761D01*
X157174943Y-126365308D01*
X157174938Y-126365316D01*
X157075775Y-126564461D01*
X157075769Y-126564476D01*
X157014885Y-126778462D01*
X157014884Y-126778464D01*
X156994357Y-126999999D01*
X144205643Y-126999999D01*
X144185115Y-126778464D01*
X144124229Y-126564472D01*
X144098235Y-126512269D01*
X144025061Y-126365316D01*
X144025056Y-126365308D01*
X143890979Y-126187761D01*
X143726562Y-126037876D01*
X143726560Y-126037874D01*
X143537404Y-125920754D01*
X143537398Y-125920752D01*
X143329940Y-125840382D01*
X143111243Y-125799500D01*
X142888757Y-125799500D01*
X142670060Y-125840382D01*
X142538864Y-125891207D01*
X142462601Y-125920752D01*
X142462595Y-125920754D01*
X142273439Y-126037874D01*
X142273437Y-126037876D01*
X142109020Y-126187761D01*
X141974943Y-126365308D01*
X141974938Y-126365316D01*
X141875775Y-126564461D01*
X141875769Y-126564476D01*
X141814885Y-126778462D01*
X141814884Y-126778464D01*
X141794357Y-126999999D01*
X87946573Y-126999999D01*
X87587958Y-126515119D01*
X87585912Y-126512269D01*
X87173804Y-125920754D01*
X86783061Y-125359904D01*
X86781105Y-125357011D01*
X86011164Y-124182353D01*
X86009282Y-124179391D01*
X85272894Y-122983420D01*
X85271097Y-122980406D01*
X85018285Y-122542523D01*
X84568842Y-121764067D01*
X84567177Y-121761086D01*
X83899595Y-120525303D01*
X83897982Y-120522214D01*
X83815981Y-120359575D01*
X83815977Y-120359568D01*
X148099500Y-120359568D01*
X148099500Y-120640431D01*
X148130942Y-120919494D01*
X148130945Y-120919512D01*
X148193439Y-121193317D01*
X148193443Y-121193329D01*
X148286200Y-121458411D01*
X148408053Y-121711442D01*
X148408055Y-121711445D01*
X148557477Y-121949248D01*
X148732584Y-122168825D01*
X148931175Y-122367416D01*
X149150752Y-122542523D01*
X149388555Y-122691945D01*
X149641592Y-122813801D01*
X149840680Y-122883465D01*
X149906670Y-122906556D01*
X149906682Y-122906560D01*
X150180491Y-122969055D01*
X150180497Y-122969055D01*
X150180505Y-122969057D01*
X150366547Y-122990018D01*
X150459569Y-123000499D01*
X150459572Y-123000500D01*
X150459575Y-123000500D01*
X150740428Y-123000500D01*
X150740429Y-123000499D01*
X150905160Y-122981939D01*
X151019494Y-122969057D01*
X151019499Y-122969056D01*
X151019509Y-122969055D01*
X151293318Y-122906560D01*
X151558408Y-122813801D01*
X151811445Y-122691945D01*
X152049248Y-122542523D01*
X152268825Y-122367416D01*
X152467416Y-122168825D01*
X152642523Y-121949248D01*
X152791945Y-121711445D01*
X152913801Y-121458408D01*
X153006560Y-121193318D01*
X153069055Y-120919509D01*
X153100500Y-120640425D01*
X153100500Y-120359575D01*
X153069055Y-120080491D01*
X153006560Y-119806682D01*
X152913801Y-119541592D01*
X152791945Y-119288555D01*
X152642523Y-119050752D01*
X152467416Y-118831175D01*
X152268825Y-118632584D01*
X152049248Y-118457477D01*
X151811445Y-118308055D01*
X151811442Y-118308053D01*
X151558411Y-118186200D01*
X151293329Y-118093443D01*
X151293317Y-118093439D01*
X151019512Y-118030945D01*
X151019494Y-118030942D01*
X150740431Y-117999500D01*
X150740425Y-117999500D01*
X150459575Y-117999500D01*
X150459568Y-117999500D01*
X150180505Y-118030942D01*
X150180487Y-118030945D01*
X149906682Y-118093439D01*
X149906670Y-118093443D01*
X149641588Y-118186200D01*
X149388557Y-118308053D01*
X149150753Y-118457476D01*
X148931175Y-118632583D01*
X148732583Y-118831175D01*
X148557476Y-119050753D01*
X148408053Y-119288557D01*
X148286200Y-119541588D01*
X148193443Y-119806670D01*
X148193439Y-119806682D01*
X148130945Y-120080487D01*
X148130942Y-120080505D01*
X148099500Y-120359568D01*
X83815977Y-120359568D01*
X83265677Y-119268111D01*
X83264144Y-119264959D01*
X82667589Y-117993481D01*
X82666143Y-117990283D01*
X82105788Y-116702387D01*
X82104434Y-116699149D01*
X81580771Y-115395962D01*
X81579519Y-115392716D01*
X81092925Y-114075179D01*
X81091756Y-114071870D01*
X80642633Y-112741069D01*
X80641595Y-112737842D01*
X80230299Y-111394820D01*
X80229344Y-111391537D01*
X79856220Y-110037417D01*
X79855362Y-110034120D01*
X79520721Y-108670042D01*
X79519934Y-108666623D01*
X79224038Y-107293664D01*
X79223347Y-107290223D01*
X78966418Y-105909411D01*
X78965828Y-105905968D01*
X78880079Y-105359568D01*
X148099500Y-105359568D01*
X148099500Y-105640431D01*
X148130942Y-105919494D01*
X148130945Y-105919512D01*
X148193439Y-106193317D01*
X148193443Y-106193329D01*
X148286200Y-106458411D01*
X148408053Y-106711442D01*
X148408055Y-106711445D01*
X148557477Y-106949248D01*
X148732584Y-107168825D01*
X148931175Y-107367416D01*
X149150752Y-107542523D01*
X149388555Y-107691945D01*
X149641592Y-107813801D01*
X149840680Y-107883465D01*
X149906670Y-107906556D01*
X149906682Y-107906560D01*
X150180491Y-107969055D01*
X150180497Y-107969055D01*
X150180505Y-107969057D01*
X150366547Y-107990018D01*
X150459569Y-108000499D01*
X150459572Y-108000500D01*
X150459575Y-108000500D01*
X150740428Y-108000500D01*
X150740429Y-108000499D01*
X150883055Y-107984429D01*
X151019494Y-107969057D01*
X151019499Y-107969056D01*
X151019509Y-107969055D01*
X151293318Y-107906560D01*
X151558408Y-107813801D01*
X151811445Y-107691945D01*
X152049248Y-107542523D01*
X152268825Y-107367416D01*
X152467416Y-107168825D01*
X152642523Y-106949248D01*
X152791945Y-106711445D01*
X152913801Y-106458408D01*
X153006560Y-106193318D01*
X153069055Y-105919509D01*
X153100500Y-105640425D01*
X153100500Y-105359575D01*
X153069055Y-105080491D01*
X153006560Y-104806682D01*
X153002663Y-104795546D01*
X152932063Y-104593783D01*
X152913801Y-104541592D01*
X152791945Y-104288555D01*
X152642523Y-104050752D01*
X152467416Y-103831175D01*
X152268825Y-103632584D01*
X152049248Y-103457477D01*
X151811445Y-103308055D01*
X151811442Y-103308053D01*
X151558411Y-103186200D01*
X151293329Y-103093443D01*
X151293317Y-103093439D01*
X151019512Y-103030945D01*
X151019494Y-103030942D01*
X150740431Y-102999500D01*
X150740425Y-102999500D01*
X150459575Y-102999500D01*
X150459568Y-102999500D01*
X150180505Y-103030942D01*
X150180487Y-103030945D01*
X149906682Y-103093439D01*
X149906670Y-103093443D01*
X149641588Y-103186200D01*
X149388557Y-103308053D01*
X149150753Y-103457476D01*
X148931175Y-103632583D01*
X148732583Y-103831175D01*
X148557476Y-104050753D01*
X148408053Y-104288557D01*
X148286200Y-104541588D01*
X148193443Y-104806670D01*
X148193439Y-104806682D01*
X148130945Y-105080487D01*
X148130942Y-105080505D01*
X148099500Y-105359568D01*
X78880079Y-105359568D01*
X78748078Y-104518441D01*
X78747588Y-104514998D01*
X78743860Y-104485883D01*
X78588946Y-103276146D01*
X110775000Y-103276146D01*
X110775000Y-103599853D01*
X110810778Y-103825746D01*
X110810778Y-103825749D01*
X110881450Y-104043255D01*
X110958000Y-104193492D01*
X110985283Y-104247038D01*
X111119714Y-104432066D01*
X111281434Y-104593786D01*
X111466462Y-104728217D01*
X111670242Y-104832048D01*
X111670244Y-104832049D01*
X111887751Y-104902721D01*
X111887752Y-104902721D01*
X111887755Y-104902722D01*
X112113646Y-104938500D01*
X112113647Y-104938500D01*
X112342353Y-104938500D01*
X112342354Y-104938500D01*
X112568245Y-104902722D01*
X112568248Y-104902721D01*
X112568249Y-104902721D01*
X112785755Y-104832049D01*
X112785755Y-104832048D01*
X112785758Y-104832048D01*
X112989538Y-104728217D01*
X113174566Y-104593786D01*
X113336286Y-104432066D01*
X113397683Y-104347559D01*
X113453012Y-104304896D01*
X113522625Y-104298917D01*
X113584420Y-104331523D01*
X113598314Y-104347556D01*
X113659714Y-104432066D01*
X113821434Y-104593786D01*
X114006462Y-104728217D01*
X114210242Y-104832048D01*
X114210244Y-104832049D01*
X114427751Y-104902721D01*
X114427752Y-104902721D01*
X114427755Y-104902722D01*
X114653646Y-104938500D01*
X114653647Y-104938500D01*
X114882353Y-104938500D01*
X114882354Y-104938500D01*
X115108245Y-104902722D01*
X115108248Y-104902721D01*
X115108249Y-104902721D01*
X115325755Y-104832049D01*
X115325755Y-104832048D01*
X115325758Y-104832048D01*
X115529538Y-104728217D01*
X115712245Y-104595472D01*
X115778046Y-104571994D01*
X115846100Y-104587819D01*
X115894795Y-104637924D01*
X115901308Y-104652459D01*
X115911702Y-104680328D01*
X115911706Y-104680335D01*
X115997952Y-104795544D01*
X115997955Y-104795547D01*
X116113164Y-104881793D01*
X116113171Y-104881797D01*
X116248017Y-104932091D01*
X116248016Y-104932091D01*
X116254944Y-104932835D01*
X116307627Y-104938500D01*
X118308372Y-104938499D01*
X118367983Y-104932091D01*
X118502831Y-104881796D01*
X118618046Y-104795546D01*
X118704296Y-104680331D01*
X118754591Y-104545483D01*
X118761000Y-104485873D01*
X118760999Y-103276146D01*
X122967000Y-103276146D01*
X122967000Y-103599853D01*
X123002778Y-103825746D01*
X123002778Y-103825749D01*
X123073450Y-104043255D01*
X123150000Y-104193492D01*
X123177283Y-104247038D01*
X123311714Y-104432066D01*
X123473434Y-104593786D01*
X123658462Y-104728217D01*
X123862242Y-104832048D01*
X123862244Y-104832049D01*
X124079751Y-104902721D01*
X124079752Y-104902721D01*
X124079755Y-104902722D01*
X124305646Y-104938500D01*
X124305647Y-104938500D01*
X124534353Y-104938500D01*
X124534354Y-104938500D01*
X124760245Y-104902722D01*
X124760248Y-104902721D01*
X124760249Y-104902721D01*
X124977755Y-104832049D01*
X124977755Y-104832048D01*
X124977758Y-104832048D01*
X125181538Y-104728217D01*
X125366566Y-104593786D01*
X125528286Y-104432066D01*
X125589683Y-104347559D01*
X125645012Y-104304896D01*
X125714625Y-104298917D01*
X125776420Y-104331523D01*
X125790314Y-104347556D01*
X125851714Y-104432066D01*
X126013434Y-104593786D01*
X126198462Y-104728217D01*
X126402242Y-104832048D01*
X126402244Y-104832049D01*
X126619751Y-104902721D01*
X126619752Y-104902721D01*
X126619755Y-104902722D01*
X126845646Y-104938500D01*
X126845647Y-104938500D01*
X127074353Y-104938500D01*
X127074354Y-104938500D01*
X127300245Y-104902722D01*
X127300248Y-104902721D01*
X127300249Y-104902721D01*
X127517755Y-104832049D01*
X127517755Y-104832048D01*
X127517758Y-104832048D01*
X127721538Y-104728217D01*
X127904245Y-104595472D01*
X127970046Y-104571994D01*
X128038100Y-104587819D01*
X128086795Y-104637924D01*
X128093308Y-104652459D01*
X128103702Y-104680328D01*
X128103706Y-104680335D01*
X128189952Y-104795544D01*
X128189955Y-104795547D01*
X128305164Y-104881793D01*
X128305171Y-104881797D01*
X128440017Y-104932091D01*
X128440016Y-104932091D01*
X128446944Y-104932835D01*
X128499627Y-104938500D01*
X130500372Y-104938499D01*
X130559983Y-104932091D01*
X130694831Y-104881796D01*
X130810046Y-104795546D01*
X130896296Y-104680331D01*
X130946591Y-104545483D01*
X130953000Y-104485873D01*
X130952999Y-102390128D01*
X130946591Y-102330517D01*
X130936660Y-102303891D01*
X130896297Y-102195671D01*
X130896293Y-102195664D01*
X130810047Y-102080455D01*
X130810044Y-102080452D01*
X130694835Y-101994206D01*
X130694828Y-101994202D01*
X130559982Y-101943908D01*
X130559983Y-101943908D01*
X130500383Y-101937501D01*
X130500381Y-101937500D01*
X130500373Y-101937500D01*
X130500364Y-101937500D01*
X128499629Y-101937500D01*
X128499623Y-101937501D01*
X128440016Y-101943908D01*
X128305171Y-101994202D01*
X128305164Y-101994206D01*
X128189955Y-102080452D01*
X128189952Y-102080455D01*
X128103706Y-102195664D01*
X128103703Y-102195670D01*
X128093308Y-102223541D01*
X128051436Y-102279474D01*
X127985972Y-102303891D01*
X127917699Y-102289039D01*
X127904250Y-102280531D01*
X127721538Y-102147783D01*
X127517755Y-102043950D01*
X127300248Y-101973278D01*
X127114812Y-101943908D01*
X127074354Y-101937500D01*
X126845646Y-101937500D01*
X126805188Y-101943908D01*
X126619753Y-101973278D01*
X126619750Y-101973278D01*
X126402244Y-102043950D01*
X126198461Y-102147783D01*
X126132551Y-102195670D01*
X126013434Y-102282214D01*
X126013432Y-102282216D01*
X126013431Y-102282216D01*
X125851715Y-102443932D01*
X125790318Y-102528438D01*
X125734987Y-102571103D01*
X125665374Y-102577082D01*
X125603579Y-102544476D01*
X125589682Y-102528438D01*
X125578773Y-102513423D01*
X125528286Y-102443934D01*
X125366566Y-102282214D01*
X125181538Y-102147783D01*
X124977755Y-102043950D01*
X124760248Y-101973278D01*
X124574812Y-101943908D01*
X124534354Y-101937500D01*
X124305646Y-101937500D01*
X124265188Y-101943908D01*
X124079753Y-101973278D01*
X124079750Y-101973278D01*
X123862244Y-102043950D01*
X123658461Y-102147783D01*
X123592551Y-102195670D01*
X123473434Y-102282214D01*
X123473432Y-102282216D01*
X123473431Y-102282216D01*
X123311716Y-102443931D01*
X123311716Y-102443932D01*
X123311714Y-102443934D01*
X123253980Y-102523396D01*
X123177283Y-102628961D01*
X123073450Y-102832744D01*
X123002778Y-103050250D01*
X123002778Y-103050253D01*
X122967000Y-103276146D01*
X118760999Y-103276146D01*
X118760999Y-102390128D01*
X118754591Y-102330517D01*
X118744660Y-102303891D01*
X118704297Y-102195671D01*
X118704293Y-102195664D01*
X118618047Y-102080455D01*
X118618044Y-102080452D01*
X118502835Y-101994206D01*
X118502828Y-101994202D01*
X118367982Y-101943908D01*
X118367983Y-101943908D01*
X118308383Y-101937501D01*
X118308381Y-101937500D01*
X118308373Y-101937500D01*
X118308364Y-101937500D01*
X116307629Y-101937500D01*
X116307623Y-101937501D01*
X116248016Y-101943908D01*
X116113171Y-101994202D01*
X116113164Y-101994206D01*
X115997955Y-102080452D01*
X115997952Y-102080455D01*
X115911706Y-102195664D01*
X115911703Y-102195670D01*
X115901308Y-102223541D01*
X115859436Y-102279474D01*
X115793972Y-102303891D01*
X115725699Y-102289039D01*
X115712250Y-102280531D01*
X115529538Y-102147783D01*
X115325755Y-102043950D01*
X115108248Y-101973278D01*
X114922812Y-101943908D01*
X114882354Y-101937500D01*
X114653646Y-101937500D01*
X114613188Y-101943908D01*
X114427753Y-101973278D01*
X114427750Y-101973278D01*
X114210244Y-102043950D01*
X114006461Y-102147783D01*
X113940551Y-102195670D01*
X113821434Y-102282214D01*
X113821432Y-102282216D01*
X113821431Y-102282216D01*
X113659715Y-102443932D01*
X113598318Y-102528438D01*
X113542987Y-102571103D01*
X113473374Y-102577082D01*
X113411579Y-102544476D01*
X113397682Y-102528438D01*
X113386773Y-102513423D01*
X113336286Y-102443934D01*
X113174566Y-102282214D01*
X112989538Y-102147783D01*
X112785755Y-102043950D01*
X112568248Y-101973278D01*
X112382812Y-101943908D01*
X112342354Y-101937500D01*
X112113646Y-101937500D01*
X112073188Y-101943908D01*
X111887753Y-101973278D01*
X111887750Y-101973278D01*
X111670244Y-102043950D01*
X111466461Y-102147783D01*
X111400551Y-102195670D01*
X111281434Y-102282214D01*
X111281432Y-102282216D01*
X111281431Y-102282216D01*
X111119716Y-102443931D01*
X111119716Y-102443932D01*
X111119714Y-102443934D01*
X111061980Y-102523396D01*
X110985283Y-102628961D01*
X110881450Y-102832744D01*
X110810778Y-103050250D01*
X110810778Y-103050253D01*
X110775000Y-103276146D01*
X78588946Y-103276146D01*
X78569183Y-103121816D01*
X78568800Y-103118437D01*
X78429897Y-101720811D01*
X78429600Y-101717317D01*
X78330412Y-100317845D01*
X78330300Y-100316267D01*
X78330107Y-100312851D01*
X78274338Y-98999999D01*
X141814859Y-98999999D01*
X141814859Y-99000000D01*
X141835378Y-99221439D01*
X141896240Y-99435350D01*
X141995364Y-99634419D01*
X141995366Y-99634421D01*
X142011138Y-99655306D01*
X142577861Y-99088584D01*
X142600667Y-99173694D01*
X142659910Y-99276306D01*
X142743694Y-99360090D01*
X142846306Y-99419333D01*
X142931415Y-99442138D01*
X142366671Y-100006880D01*
X142482823Y-100078798D01*
X142482824Y-100078799D01*
X142690195Y-100159134D01*
X142908807Y-100200000D01*
X143131193Y-100200000D01*
X143349804Y-100159134D01*
X143557177Y-100078798D01*
X143557178Y-100078797D01*
X143673327Y-100006880D01*
X143108585Y-99442138D01*
X143193694Y-99419333D01*
X143296306Y-99360090D01*
X143380090Y-99276306D01*
X143439333Y-99173694D01*
X143462138Y-99088584D01*
X144028860Y-99655306D01*
X144028861Y-99655306D01*
X144044631Y-99634425D01*
X144044632Y-99634422D01*
X144143759Y-99435350D01*
X144204621Y-99221439D01*
X144225141Y-99000000D01*
X144225141Y-98999999D01*
X149414357Y-98999999D01*
X149414357Y-99000000D01*
X149434884Y-99221535D01*
X149434885Y-99221537D01*
X149495769Y-99435523D01*
X149495775Y-99435538D01*
X149594938Y-99634683D01*
X149594943Y-99634691D01*
X149729020Y-99812238D01*
X149893437Y-99962123D01*
X149893439Y-99962125D01*
X150082595Y-100079245D01*
X150082596Y-100079245D01*
X150082599Y-100079247D01*
X150290060Y-100159618D01*
X150508757Y-100200500D01*
X150508759Y-100200500D01*
X150731241Y-100200500D01*
X150731243Y-100200500D01*
X150949940Y-100159618D01*
X151157401Y-100079247D01*
X151346562Y-99962124D01*
X151510981Y-99812236D01*
X151645058Y-99634689D01*
X151744229Y-99435528D01*
X151805115Y-99221536D01*
X151825643Y-99000000D01*
X151805115Y-98778464D01*
X151744229Y-98564472D01*
X151737023Y-98550000D01*
X151645061Y-98365316D01*
X151645056Y-98365308D01*
X151510979Y-98187761D01*
X151346562Y-98037876D01*
X151346560Y-98037874D01*
X151157404Y-97920754D01*
X151157398Y-97920752D01*
X150949940Y-97840382D01*
X150731243Y-97799500D01*
X150508757Y-97799500D01*
X150290060Y-97840382D01*
X150158864Y-97891207D01*
X150082601Y-97920752D01*
X150082595Y-97920754D01*
X149893439Y-98037874D01*
X149893437Y-98037876D01*
X149729020Y-98187761D01*
X149594943Y-98365308D01*
X149594938Y-98365316D01*
X149495775Y-98564461D01*
X149495769Y-98564476D01*
X149434885Y-98778462D01*
X149434884Y-98778464D01*
X149414357Y-98999999D01*
X144225141Y-98999999D01*
X144204621Y-98778560D01*
X144143759Y-98564649D01*
X144044633Y-98365577D01*
X144044631Y-98365574D01*
X144028860Y-98344691D01*
X143462137Y-98911414D01*
X143439333Y-98826306D01*
X143380090Y-98723694D01*
X143296306Y-98639910D01*
X143193694Y-98580667D01*
X143108584Y-98557861D01*
X143673327Y-97993118D01*
X143673326Y-97993117D01*
X143557181Y-97921203D01*
X143557175Y-97921200D01*
X143349804Y-97840865D01*
X143131193Y-97800000D01*
X142908807Y-97800000D01*
X142690195Y-97840865D01*
X142482824Y-97921200D01*
X142482818Y-97921204D01*
X142366672Y-97993117D01*
X142366671Y-97993118D01*
X142931415Y-98557861D01*
X142846306Y-98580667D01*
X142743694Y-98639910D01*
X142659910Y-98723694D01*
X142600667Y-98826306D01*
X142577861Y-98911414D01*
X142011138Y-98344691D01*
X142011137Y-98344691D01*
X141995369Y-98365571D01*
X141896240Y-98564649D01*
X141835378Y-98778560D01*
X141814859Y-98999999D01*
X78274338Y-98999999D01*
X78270498Y-98909596D01*
X78270399Y-98906158D01*
X78250524Y-97501695D01*
X78250524Y-97498304D01*
X78270400Y-96093839D01*
X78270497Y-96090405D01*
X78330107Y-94687144D01*
X78330300Y-94683736D01*
X78429600Y-93282674D01*
X78429898Y-93279186D01*
X78440041Y-93177127D01*
X78568801Y-91881554D01*
X78569182Y-91878191D01*
X78747595Y-90484953D01*
X78748077Y-90481568D01*
X78965832Y-89094002D01*
X78966421Y-89090572D01*
X78968035Y-89081901D01*
X79169346Y-87999993D01*
X104094700Y-87999993D01*
X104094700Y-88000006D01*
X104113864Y-88231297D01*
X104113866Y-88231308D01*
X104170842Y-88456300D01*
X104264075Y-88668848D01*
X104391016Y-88863147D01*
X104391019Y-88863151D01*
X104391021Y-88863153D01*
X104548216Y-89033913D01*
X104548219Y-89033915D01*
X104548222Y-89033918D01*
X104731365Y-89176464D01*
X104731371Y-89176468D01*
X104731374Y-89176470D01*
X104935497Y-89286936D01*
X105021428Y-89316436D01*
X105155015Y-89362297D01*
X105155017Y-89362297D01*
X105155019Y-89362298D01*
X105383951Y-89400500D01*
X105383952Y-89400500D01*
X105616048Y-89400500D01*
X105616049Y-89400500D01*
X105844981Y-89362298D01*
X106064503Y-89286936D01*
X106268626Y-89176470D01*
X106274759Y-89171697D01*
X106378988Y-89090572D01*
X106451784Y-89033913D01*
X106460130Y-89024846D01*
X106520010Y-88988854D01*
X106589849Y-88990949D01*
X106647468Y-89030469D01*
X106667544Y-89065491D01*
X106696203Y-89142330D01*
X106696206Y-89142335D01*
X106782452Y-89257544D01*
X106782455Y-89257547D01*
X106897664Y-89343793D01*
X106897671Y-89343797D01*
X107032517Y-89394091D01*
X107032516Y-89394091D01*
X107039444Y-89394835D01*
X107092127Y-89400500D01*
X108987872Y-89400499D01*
X109047483Y-89394091D01*
X109182331Y-89343796D01*
X109297546Y-89257546D01*
X109383796Y-89142331D01*
X109434091Y-89007483D01*
X109440500Y-88947873D01*
X109440500Y-88944998D01*
X112874532Y-88944998D01*
X112874532Y-88945001D01*
X112894364Y-89171686D01*
X112894366Y-89171697D01*
X112953258Y-89391488D01*
X112953261Y-89391497D01*
X113049431Y-89597732D01*
X113049432Y-89597734D01*
X113179954Y-89784141D01*
X113340858Y-89945045D01*
X113340861Y-89945047D01*
X113527266Y-90075568D01*
X113585275Y-90102618D01*
X113637714Y-90148791D01*
X113656866Y-90215984D01*
X113636650Y-90282865D01*
X113585275Y-90327382D01*
X113527267Y-90354431D01*
X113527265Y-90354432D01*
X113340858Y-90484954D01*
X113179954Y-90645858D01*
X113049432Y-90832265D01*
X113049431Y-90832267D01*
X112953261Y-91038502D01*
X112953258Y-91038511D01*
X112894366Y-91258302D01*
X112894364Y-91258313D01*
X112874532Y-91484998D01*
X112874532Y-91485001D01*
X112894364Y-91711686D01*
X112894366Y-91711697D01*
X112953258Y-91931488D01*
X112953261Y-91931497D01*
X113049431Y-92137732D01*
X113049432Y-92137734D01*
X113179954Y-92324141D01*
X113340858Y-92485045D01*
X113380914Y-92513092D01*
X113527266Y-92615568D01*
X113550384Y-92626348D01*
X113585275Y-92642618D01*
X113637714Y-92688791D01*
X113656866Y-92755984D01*
X113636650Y-92822865D01*
X113585275Y-92867381D01*
X113585118Y-92867455D01*
X113527267Y-92894431D01*
X113527265Y-92894432D01*
X113340858Y-93024954D01*
X113179954Y-93185858D01*
X113049432Y-93372265D01*
X113049431Y-93372267D01*
X112953261Y-93578502D01*
X112953258Y-93578511D01*
X112894366Y-93798302D01*
X112894364Y-93798313D01*
X112874532Y-94024998D01*
X112874532Y-94025001D01*
X112894364Y-94251686D01*
X112894366Y-94251697D01*
X112953258Y-94471488D01*
X112953261Y-94471497D01*
X113049431Y-94677732D01*
X113049432Y-94677734D01*
X113179954Y-94864141D01*
X113340858Y-95025045D01*
X113340861Y-95025047D01*
X113527266Y-95155568D01*
X113733504Y-95251739D01*
X113953308Y-95310635D01*
X114115230Y-95324801D01*
X114179998Y-95330468D01*
X114180000Y-95330468D01*
X114180002Y-95330468D01*
X114236807Y-95325498D01*
X114406692Y-95310635D01*
X114626496Y-95251739D01*
X114832734Y-95155568D01*
X115019139Y-95025047D01*
X115180047Y-94864139D01*
X115310568Y-94677734D01*
X115406739Y-94471496D01*
X115465635Y-94251692D01*
X115485468Y-94025000D01*
X115465635Y-93798308D01*
X115406739Y-93578504D01*
X115310568Y-93372266D01*
X115180047Y-93185861D01*
X115180045Y-93185858D01*
X115019141Y-93024954D01*
X114832734Y-92894432D01*
X114832728Y-92894429D01*
X114774882Y-92867455D01*
X114774724Y-92867381D01*
X114722285Y-92821210D01*
X114703133Y-92754017D01*
X114723348Y-92687135D01*
X114774725Y-92642618D01*
X114832734Y-92615568D01*
X115019139Y-92485047D01*
X115180047Y-92324139D01*
X115310568Y-92137734D01*
X115406739Y-91931496D01*
X115465635Y-91711692D01*
X115485468Y-91485000D01*
X115465635Y-91258308D01*
X115406739Y-91038504D01*
X115310568Y-90832266D01*
X115180047Y-90645861D01*
X115180045Y-90645858D01*
X115019141Y-90484954D01*
X114832734Y-90354432D01*
X114832728Y-90354429D01*
X114774725Y-90327382D01*
X114722285Y-90281210D01*
X114703133Y-90214017D01*
X114723348Y-90147135D01*
X114774725Y-90102618D01*
X114832734Y-90075568D01*
X115019139Y-89945047D01*
X115180047Y-89784139D01*
X115310568Y-89597734D01*
X115406739Y-89391496D01*
X115465635Y-89171692D01*
X115485217Y-88947872D01*
X115485468Y-88945001D01*
X115485468Y-88944998D01*
X120494532Y-88944998D01*
X120494532Y-88945001D01*
X120514364Y-89171686D01*
X120514366Y-89171697D01*
X120573258Y-89391488D01*
X120573261Y-89391497D01*
X120669431Y-89597732D01*
X120669432Y-89597734D01*
X120799954Y-89784141D01*
X120960858Y-89945045D01*
X120960861Y-89945047D01*
X121147266Y-90075568D01*
X121205275Y-90102618D01*
X121257714Y-90148791D01*
X121276866Y-90215984D01*
X121256650Y-90282865D01*
X121205275Y-90327382D01*
X121147267Y-90354431D01*
X121147265Y-90354432D01*
X120960858Y-90484954D01*
X120799954Y-90645858D01*
X120669432Y-90832265D01*
X120669431Y-90832267D01*
X120573261Y-91038502D01*
X120573258Y-91038511D01*
X120514366Y-91258302D01*
X120514364Y-91258313D01*
X120494532Y-91484998D01*
X120494532Y-91485001D01*
X120514364Y-91711686D01*
X120514366Y-91711697D01*
X120573258Y-91931488D01*
X120573261Y-91931497D01*
X120669431Y-92137732D01*
X120669432Y-92137734D01*
X120799954Y-92324141D01*
X120960858Y-92485045D01*
X120985462Y-92502273D01*
X121029087Y-92556849D01*
X121036281Y-92626348D01*
X121004758Y-92688703D01*
X120944529Y-92724117D01*
X120927593Y-92727138D01*
X120892516Y-92730908D01*
X120757671Y-92781202D01*
X120757664Y-92781206D01*
X120642455Y-92867452D01*
X120642452Y-92867455D01*
X120556206Y-92982664D01*
X120556202Y-92982671D01*
X120505908Y-93117517D01*
X120499501Y-93177116D01*
X120499501Y-93177123D01*
X120499500Y-93177135D01*
X120499500Y-94872870D01*
X120499501Y-94872876D01*
X120505908Y-94932483D01*
X120556202Y-95067328D01*
X120556206Y-95067335D01*
X120642452Y-95182544D01*
X120642455Y-95182547D01*
X120757664Y-95268793D01*
X120757671Y-95268797D01*
X120892517Y-95319091D01*
X120892516Y-95319091D01*
X120899444Y-95319835D01*
X120952127Y-95325500D01*
X122647872Y-95325499D01*
X122707483Y-95319091D01*
X122842331Y-95268796D01*
X122957546Y-95182546D01*
X123043796Y-95067331D01*
X123094091Y-94932483D01*
X123100500Y-94872873D01*
X123100499Y-93177128D01*
X123094091Y-93117517D01*
X123059567Y-93024954D01*
X123043797Y-92982671D01*
X123043793Y-92982664D01*
X122957547Y-92867455D01*
X122957544Y-92867452D01*
X122842335Y-92781206D01*
X122842328Y-92781202D01*
X122707482Y-92730908D01*
X122707483Y-92730908D01*
X122672404Y-92727137D01*
X122607853Y-92700399D01*
X122568005Y-92643006D01*
X122565512Y-92573181D01*
X122601165Y-92513092D01*
X122614539Y-92502272D01*
X122639140Y-92485046D01*
X122800045Y-92324141D01*
X122800047Y-92324139D01*
X122930568Y-92137734D01*
X123026739Y-91931496D01*
X123085635Y-91711692D01*
X123105468Y-91485000D01*
X123085635Y-91258308D01*
X123026739Y-91038504D01*
X122930568Y-90832266D01*
X122800047Y-90645861D01*
X122800045Y-90645858D01*
X122639141Y-90484954D01*
X122452734Y-90354432D01*
X122452728Y-90354429D01*
X122394725Y-90327382D01*
X122342285Y-90281210D01*
X122323133Y-90214017D01*
X122343348Y-90147135D01*
X122394725Y-90102618D01*
X122452734Y-90075568D01*
X122639139Y-89945047D01*
X122800047Y-89784139D01*
X122930568Y-89597734D01*
X123026739Y-89391496D01*
X123085635Y-89171692D01*
X123105217Y-88947872D01*
X123105468Y-88945001D01*
X123105468Y-88944998D01*
X126874532Y-88944998D01*
X126874532Y-88945001D01*
X126894364Y-89171686D01*
X126894366Y-89171697D01*
X126953258Y-89391488D01*
X126953261Y-89391497D01*
X127049431Y-89597732D01*
X127049432Y-89597734D01*
X127179954Y-89784141D01*
X127340858Y-89945045D01*
X127340861Y-89945047D01*
X127527266Y-90075568D01*
X127585275Y-90102618D01*
X127637714Y-90148791D01*
X127656866Y-90215984D01*
X127636650Y-90282865D01*
X127585275Y-90327382D01*
X127527267Y-90354431D01*
X127527265Y-90354432D01*
X127340858Y-90484954D01*
X127179954Y-90645858D01*
X127049432Y-90832265D01*
X127049431Y-90832267D01*
X126953261Y-91038502D01*
X126953258Y-91038511D01*
X126894366Y-91258302D01*
X126894364Y-91258313D01*
X126874532Y-91484998D01*
X126874532Y-91485001D01*
X126894364Y-91711686D01*
X126894366Y-91711697D01*
X126953258Y-91931488D01*
X126953261Y-91931497D01*
X127049431Y-92137732D01*
X127049432Y-92137734D01*
X127179954Y-92324141D01*
X127340858Y-92485045D01*
X127380914Y-92513092D01*
X127527266Y-92615568D01*
X127550384Y-92626348D01*
X127585275Y-92642618D01*
X127637714Y-92688791D01*
X127656866Y-92755984D01*
X127636650Y-92822865D01*
X127585275Y-92867381D01*
X127585118Y-92867455D01*
X127527267Y-92894431D01*
X127527265Y-92894432D01*
X127340858Y-93024954D01*
X127179954Y-93185858D01*
X127049432Y-93372265D01*
X127049431Y-93372267D01*
X126953261Y-93578502D01*
X126953258Y-93578511D01*
X126894366Y-93798302D01*
X126894364Y-93798313D01*
X126874532Y-94024998D01*
X126874532Y-94025001D01*
X126894364Y-94251686D01*
X126894366Y-94251697D01*
X126953258Y-94471488D01*
X126953261Y-94471497D01*
X127049431Y-94677732D01*
X127049432Y-94677734D01*
X127179954Y-94864141D01*
X127340858Y-95025045D01*
X127340861Y-95025047D01*
X127527266Y-95155568D01*
X127733504Y-95251739D01*
X127953308Y-95310635D01*
X128115230Y-95324801D01*
X128179998Y-95330468D01*
X128180000Y-95330468D01*
X128180002Y-95330468D01*
X128236807Y-95325498D01*
X128406692Y-95310635D01*
X128626496Y-95251739D01*
X128832734Y-95155568D01*
X129019139Y-95025047D01*
X129180047Y-94864139D01*
X129310568Y-94677734D01*
X129406739Y-94471496D01*
X129465635Y-94251692D01*
X129485468Y-94025000D01*
X129465635Y-93798308D01*
X129406739Y-93578504D01*
X129310568Y-93372266D01*
X129180047Y-93185861D01*
X129180045Y-93185858D01*
X129019141Y-93024954D01*
X128832734Y-92894432D01*
X128832728Y-92894429D01*
X128774882Y-92867455D01*
X128774724Y-92867381D01*
X128722285Y-92821210D01*
X128703133Y-92754017D01*
X128723348Y-92687135D01*
X128774725Y-92642618D01*
X128832734Y-92615568D01*
X129019139Y-92485047D01*
X129180047Y-92324139D01*
X129310568Y-92137734D01*
X129406739Y-91931496D01*
X129465635Y-91711692D01*
X129485468Y-91485000D01*
X129465635Y-91258308D01*
X129406739Y-91038504D01*
X129310568Y-90832266D01*
X129180047Y-90645861D01*
X129180045Y-90645858D01*
X129019141Y-90484954D01*
X128832734Y-90354432D01*
X128832728Y-90354429D01*
X128774725Y-90327382D01*
X128722285Y-90281210D01*
X128703133Y-90214017D01*
X128723348Y-90147135D01*
X128774725Y-90102618D01*
X128832734Y-90075568D01*
X129019139Y-89945047D01*
X129180047Y-89784139D01*
X129310568Y-89597734D01*
X129406739Y-89391496D01*
X129465635Y-89171692D01*
X129485217Y-88947872D01*
X129485468Y-88945001D01*
X129485468Y-88944998D01*
X134494532Y-88944998D01*
X134494532Y-88945001D01*
X134514364Y-89171686D01*
X134514366Y-89171697D01*
X134573258Y-89391488D01*
X134573261Y-89391497D01*
X134669431Y-89597732D01*
X134669432Y-89597734D01*
X134799954Y-89784141D01*
X134960858Y-89945045D01*
X134960861Y-89945047D01*
X135147266Y-90075568D01*
X135205275Y-90102618D01*
X135257714Y-90148791D01*
X135276866Y-90215984D01*
X135256650Y-90282865D01*
X135205275Y-90327382D01*
X135147267Y-90354431D01*
X135147265Y-90354432D01*
X134960858Y-90484954D01*
X134799954Y-90645858D01*
X134669432Y-90832265D01*
X134669431Y-90832267D01*
X134573261Y-91038502D01*
X134573258Y-91038511D01*
X134514366Y-91258302D01*
X134514364Y-91258313D01*
X134494532Y-91484998D01*
X134494532Y-91485001D01*
X134514364Y-91711686D01*
X134514366Y-91711697D01*
X134573258Y-91931488D01*
X134573261Y-91931497D01*
X134669431Y-92137732D01*
X134669432Y-92137734D01*
X134799954Y-92324141D01*
X134960858Y-92485045D01*
X134985462Y-92502273D01*
X135029087Y-92556849D01*
X135036281Y-92626348D01*
X135004758Y-92688703D01*
X134944529Y-92724117D01*
X134927593Y-92727138D01*
X134892516Y-92730908D01*
X134757671Y-92781202D01*
X134757664Y-92781206D01*
X134642455Y-92867452D01*
X134642452Y-92867455D01*
X134556206Y-92982664D01*
X134556202Y-92982671D01*
X134505908Y-93117517D01*
X134499501Y-93177116D01*
X134499501Y-93177123D01*
X134499500Y-93177135D01*
X134499500Y-94872870D01*
X134499501Y-94872876D01*
X134505908Y-94932483D01*
X134556202Y-95067328D01*
X134556206Y-95067335D01*
X134642452Y-95182544D01*
X134642455Y-95182547D01*
X134757664Y-95268793D01*
X134757671Y-95268797D01*
X134892517Y-95319091D01*
X134892516Y-95319091D01*
X134899444Y-95319835D01*
X134952127Y-95325500D01*
X136647872Y-95325499D01*
X136707483Y-95319091D01*
X136842331Y-95268796D01*
X136957546Y-95182546D01*
X137043796Y-95067331D01*
X137094091Y-94932483D01*
X137100500Y-94872873D01*
X137100499Y-93177128D01*
X137094091Y-93117517D01*
X137059567Y-93024954D01*
X137043797Y-92982671D01*
X137043793Y-92982664D01*
X136957547Y-92867455D01*
X136957544Y-92867452D01*
X136842335Y-92781206D01*
X136842328Y-92781202D01*
X136707482Y-92730908D01*
X136707483Y-92730908D01*
X136672404Y-92727137D01*
X136607853Y-92700399D01*
X136568005Y-92643006D01*
X136565512Y-92573181D01*
X136601165Y-92513092D01*
X136614539Y-92502272D01*
X136639140Y-92485046D01*
X136800045Y-92324141D01*
X136800047Y-92324139D01*
X136930568Y-92137734D01*
X137026739Y-91931496D01*
X137085635Y-91711692D01*
X137105468Y-91485000D01*
X137085635Y-91258308D01*
X137026739Y-91038504D01*
X136930568Y-90832266D01*
X136800047Y-90645861D01*
X136800045Y-90645858D01*
X136639141Y-90484954D01*
X136452734Y-90354432D01*
X136452728Y-90354429D01*
X136394725Y-90327382D01*
X136342285Y-90281210D01*
X136323133Y-90214017D01*
X136343348Y-90147135D01*
X136394725Y-90102618D01*
X136452734Y-90075568D01*
X136639139Y-89945047D01*
X136800047Y-89784139D01*
X136930568Y-89597734D01*
X137026739Y-89391496D01*
X137085635Y-89171692D01*
X137105217Y-88947872D01*
X137105468Y-88945001D01*
X137105468Y-88944998D01*
X137089491Y-88762381D01*
X137085635Y-88718308D01*
X137031812Y-88517438D01*
X137026741Y-88498511D01*
X137026738Y-88498502D01*
X137007059Y-88456300D01*
X136930568Y-88292266D01*
X136800047Y-88105861D01*
X136800045Y-88105858D01*
X136639141Y-87944954D01*
X136452734Y-87814432D01*
X136452732Y-87814431D01*
X136246497Y-87718261D01*
X136246488Y-87718258D01*
X136026697Y-87659366D01*
X136026693Y-87659365D01*
X136026692Y-87659365D01*
X136026691Y-87659364D01*
X136026686Y-87659364D01*
X135800002Y-87639532D01*
X135799998Y-87639532D01*
X135573313Y-87659364D01*
X135573302Y-87659366D01*
X135353511Y-87718258D01*
X135353502Y-87718261D01*
X135147267Y-87814431D01*
X135147265Y-87814432D01*
X134960858Y-87944954D01*
X134799954Y-88105858D01*
X134669432Y-88292265D01*
X134669431Y-88292267D01*
X134573261Y-88498502D01*
X134573258Y-88498511D01*
X134514366Y-88718302D01*
X134514364Y-88718313D01*
X134494532Y-88944998D01*
X129485468Y-88944998D01*
X129469491Y-88762381D01*
X129465635Y-88718308D01*
X129411812Y-88517438D01*
X129406741Y-88498511D01*
X129406738Y-88498502D01*
X129387059Y-88456300D01*
X129310568Y-88292266D01*
X129180047Y-88105861D01*
X129180045Y-88105858D01*
X129019141Y-87944954D01*
X128832734Y-87814432D01*
X128832732Y-87814431D01*
X128626497Y-87718261D01*
X128626488Y-87718258D01*
X128406697Y-87659366D01*
X128406693Y-87659365D01*
X128406692Y-87659365D01*
X128406691Y-87659364D01*
X128406686Y-87659364D01*
X128180002Y-87639532D01*
X128179998Y-87639532D01*
X127953313Y-87659364D01*
X127953302Y-87659366D01*
X127733511Y-87718258D01*
X127733502Y-87718261D01*
X127527267Y-87814431D01*
X127527265Y-87814432D01*
X127340858Y-87944954D01*
X127179954Y-88105858D01*
X127049432Y-88292265D01*
X127049431Y-88292267D01*
X126953261Y-88498502D01*
X126953258Y-88498511D01*
X126894366Y-88718302D01*
X126894364Y-88718313D01*
X126874532Y-88944998D01*
X123105468Y-88944998D01*
X123089491Y-88762381D01*
X123085635Y-88718308D01*
X123031812Y-88517438D01*
X123026741Y-88498511D01*
X123026738Y-88498502D01*
X123007059Y-88456300D01*
X122930568Y-88292266D01*
X122800047Y-88105861D01*
X122800045Y-88105858D01*
X122639141Y-87944954D01*
X122452734Y-87814432D01*
X122452732Y-87814431D01*
X122246497Y-87718261D01*
X122246488Y-87718258D01*
X122026697Y-87659366D01*
X122026693Y-87659365D01*
X122026692Y-87659365D01*
X122026691Y-87659364D01*
X122026686Y-87659364D01*
X121800002Y-87639532D01*
X121799998Y-87639532D01*
X121573313Y-87659364D01*
X121573302Y-87659366D01*
X121353511Y-87718258D01*
X121353502Y-87718261D01*
X121147267Y-87814431D01*
X121147265Y-87814432D01*
X120960858Y-87944954D01*
X120799954Y-88105858D01*
X120669432Y-88292265D01*
X120669431Y-88292267D01*
X120573261Y-88498502D01*
X120573258Y-88498511D01*
X120514366Y-88718302D01*
X120514364Y-88718313D01*
X120494532Y-88944998D01*
X115485468Y-88944998D01*
X115469491Y-88762381D01*
X115465635Y-88718308D01*
X115411812Y-88517438D01*
X115406741Y-88498511D01*
X115406738Y-88498502D01*
X115387059Y-88456300D01*
X115310568Y-88292266D01*
X115180047Y-88105861D01*
X115180045Y-88105858D01*
X115019141Y-87944954D01*
X114832734Y-87814432D01*
X114832732Y-87814431D01*
X114626497Y-87718261D01*
X114626488Y-87718258D01*
X114406697Y-87659366D01*
X114406693Y-87659365D01*
X114406692Y-87659365D01*
X114406691Y-87659364D01*
X114406686Y-87659364D01*
X114180002Y-87639532D01*
X114179998Y-87639532D01*
X113953313Y-87659364D01*
X113953302Y-87659366D01*
X113733511Y-87718258D01*
X113733502Y-87718261D01*
X113527267Y-87814431D01*
X113527265Y-87814432D01*
X113340858Y-87944954D01*
X113179954Y-88105858D01*
X113049432Y-88292265D01*
X113049431Y-88292267D01*
X112953261Y-88498502D01*
X112953258Y-88498511D01*
X112894366Y-88718302D01*
X112894364Y-88718313D01*
X112874532Y-88944998D01*
X109440500Y-88944998D01*
X109440499Y-88000000D01*
X109819678Y-88000000D01*
X109838915Y-88183029D01*
X109838916Y-88183032D01*
X109895783Y-88358053D01*
X109895786Y-88358059D01*
X109987805Y-88517440D01*
X110097327Y-88639077D01*
X110110949Y-88654206D01*
X110110951Y-88654208D01*
X110259834Y-88762378D01*
X110259835Y-88762378D01*
X110259839Y-88762381D01*
X110381246Y-88816435D01*
X110427961Y-88837234D01*
X110427966Y-88837236D01*
X110607981Y-88875500D01*
X110792019Y-88875500D01*
X110972034Y-88837236D01*
X111140161Y-88762381D01*
X111289050Y-88654207D01*
X111412195Y-88517440D01*
X111504214Y-88358059D01*
X111561085Y-88183029D01*
X111580322Y-88000000D01*
X111580186Y-87998708D01*
X111580322Y-87997965D01*
X111580322Y-87993500D01*
X111581138Y-87993500D01*
X111592747Y-87929979D01*
X111615821Y-87898057D01*
X121702061Y-77811819D01*
X121763384Y-77778334D01*
X121789742Y-77775500D01*
X132775764Y-77775500D01*
X132775766Y-77775500D01*
X132922135Y-77736281D01*
X133053365Y-77660515D01*
X134402061Y-76311819D01*
X134463384Y-76278334D01*
X134489742Y-76275500D01*
X134592019Y-76275500D01*
X134772034Y-76237236D01*
X134940161Y-76162381D01*
X135089050Y-76054207D01*
X135212195Y-75917440D01*
X135304214Y-75758059D01*
X135361085Y-75583029D01*
X135380322Y-75400000D01*
X135361085Y-75216971D01*
X135306995Y-75050499D01*
X135304216Y-75041946D01*
X135304213Y-75041940D01*
X135294459Y-75025045D01*
X135212195Y-74882560D01*
X135089050Y-74745793D01*
X135089048Y-74745791D01*
X134940165Y-74637621D01*
X134940162Y-74637619D01*
X134940161Y-74637619D01*
X134850897Y-74597876D01*
X134772038Y-74562765D01*
X134772033Y-74562763D01*
X134592019Y-74524500D01*
X134407981Y-74524500D01*
X134227966Y-74562763D01*
X134227961Y-74562765D01*
X134059839Y-74637619D01*
X134059834Y-74637621D01*
X133910951Y-74745791D01*
X133910949Y-74745793D01*
X133787804Y-74882561D01*
X133695786Y-75041940D01*
X133695783Y-75041946D01*
X133638916Y-75216967D01*
X133638915Y-75216971D01*
X133627508Y-75325500D01*
X133619678Y-75400000D01*
X133619815Y-75401301D01*
X133619678Y-75402050D01*
X133619678Y-75406498D01*
X133618865Y-75406498D01*
X133607245Y-75470031D01*
X133584175Y-75501943D01*
X132497939Y-76588181D01*
X132436616Y-76621666D01*
X132410258Y-76624500D01*
X121424233Y-76624500D01*
X121315290Y-76653690D01*
X121315290Y-76653691D01*
X121302815Y-76657033D01*
X121277863Y-76663719D01*
X121146635Y-76739485D01*
X121146632Y-76739487D01*
X110797939Y-87088181D01*
X110736616Y-87121666D01*
X110710258Y-87124500D01*
X110607981Y-87124500D01*
X110427966Y-87162763D01*
X110427961Y-87162765D01*
X110259839Y-87237619D01*
X110259834Y-87237621D01*
X110110951Y-87345791D01*
X110110949Y-87345793D01*
X109987804Y-87482561D01*
X109895786Y-87641940D01*
X109895783Y-87641946D01*
X109842892Y-87804731D01*
X109838915Y-87816971D01*
X109819678Y-88000000D01*
X109440499Y-88000000D01*
X109440499Y-87052128D01*
X109434091Y-86992517D01*
X109424233Y-86966087D01*
X109383797Y-86857671D01*
X109383793Y-86857664D01*
X109297547Y-86742455D01*
X109297544Y-86742452D01*
X109182335Y-86656206D01*
X109182328Y-86656202D01*
X109047482Y-86605908D01*
X109047483Y-86605908D01*
X108987883Y-86599501D01*
X108987881Y-86599500D01*
X108987873Y-86599500D01*
X108987864Y-86599500D01*
X107092129Y-86599500D01*
X107092123Y-86599501D01*
X107032516Y-86605908D01*
X106897671Y-86656202D01*
X106897664Y-86656206D01*
X106782455Y-86742452D01*
X106782452Y-86742455D01*
X106696206Y-86857664D01*
X106696203Y-86857670D01*
X106667544Y-86934508D01*
X106625672Y-86990441D01*
X106560208Y-87014858D01*
X106491935Y-87000006D01*
X106460135Y-86975158D01*
X106451784Y-86966087D01*
X106451778Y-86966082D01*
X106451777Y-86966081D01*
X106268634Y-86823535D01*
X106268628Y-86823531D01*
X106064504Y-86713064D01*
X106064495Y-86713061D01*
X105844984Y-86637702D01*
X105654450Y-86605908D01*
X105616049Y-86599500D01*
X105383951Y-86599500D01*
X105345550Y-86605908D01*
X105155015Y-86637702D01*
X104935504Y-86713061D01*
X104935495Y-86713064D01*
X104731371Y-86823531D01*
X104731365Y-86823535D01*
X104548222Y-86966081D01*
X104548219Y-86966084D01*
X104548216Y-86966086D01*
X104548216Y-86966087D01*
X104503319Y-87014858D01*
X104391016Y-87136852D01*
X104264075Y-87331151D01*
X104170842Y-87543699D01*
X104113866Y-87768691D01*
X104113864Y-87768702D01*
X104094700Y-87999993D01*
X79169346Y-87999993D01*
X79223351Y-87709753D01*
X79224038Y-87706335D01*
X79233429Y-87662764D01*
X79519937Y-86333359D01*
X79520722Y-86329956D01*
X79523873Y-86317112D01*
X79855366Y-84965861D01*
X79856215Y-84962600D01*
X80229350Y-83608443D01*
X80230293Y-83605198D01*
X80641601Y-82262136D01*
X80642627Y-82258950D01*
X81091765Y-80928102D01*
X81092925Y-80924820D01*
X81579537Y-79607233D01*
X81580761Y-79604061D01*
X82104453Y-78300802D01*
X82105768Y-78297659D01*
X82666147Y-77009706D01*
X82667589Y-77006518D01*
X82757446Y-76815000D01*
X82874742Y-76564998D01*
X100194532Y-76564998D01*
X100194532Y-76565001D01*
X100214364Y-76791686D01*
X100214366Y-76791697D01*
X100273258Y-77011488D01*
X100273261Y-77011497D01*
X100369431Y-77217732D01*
X100369432Y-77217734D01*
X100499954Y-77404141D01*
X100660858Y-77565045D01*
X100660861Y-77565047D01*
X100847266Y-77695568D01*
X101053504Y-77791739D01*
X101273308Y-77850635D01*
X101435230Y-77864801D01*
X101499998Y-77870468D01*
X101500000Y-77870468D01*
X101500002Y-77870468D01*
X101556673Y-77865509D01*
X101726692Y-77850635D01*
X101946496Y-77791739D01*
X102152734Y-77695568D01*
X102339139Y-77565047D01*
X102500047Y-77404139D01*
X102630568Y-77217734D01*
X102726739Y-77011496D01*
X102785635Y-76791692D01*
X102805468Y-76565000D01*
X102785635Y-76338308D01*
X102726739Y-76118504D01*
X102630568Y-75912266D01*
X102500047Y-75725861D01*
X102500045Y-75725858D01*
X102339143Y-75564956D01*
X102314536Y-75547726D01*
X102270912Y-75493149D01*
X102263719Y-75423650D01*
X102295241Y-75361296D01*
X102355471Y-75325882D01*
X102372404Y-75322861D01*
X102407483Y-75319091D01*
X102542331Y-75268796D01*
X102657546Y-75182546D01*
X102743796Y-75067331D01*
X102794091Y-74932483D01*
X102800500Y-74872873D01*
X102800499Y-74024998D01*
X107814532Y-74024998D01*
X107814532Y-74025001D01*
X107834364Y-74251686D01*
X107834366Y-74251697D01*
X107893258Y-74471488D01*
X107893261Y-74471497D01*
X107989431Y-74677732D01*
X107989432Y-74677734D01*
X108119954Y-74864141D01*
X108280858Y-75025045D01*
X108280861Y-75025047D01*
X108467266Y-75155568D01*
X108525865Y-75182893D01*
X108578305Y-75229065D01*
X108597457Y-75296258D01*
X108577242Y-75363139D01*
X108525867Y-75407657D01*
X108467515Y-75434867D01*
X108281179Y-75565342D01*
X108120342Y-75726179D01*
X107989865Y-75912517D01*
X107893734Y-76118673D01*
X107893730Y-76118682D01*
X107841127Y-76314999D01*
X107841128Y-76315000D01*
X108804314Y-76315000D01*
X108799920Y-76319394D01*
X108747259Y-76410606D01*
X108720000Y-76512339D01*
X108720000Y-76617661D01*
X108747259Y-76719394D01*
X108799920Y-76810606D01*
X108804314Y-76815000D01*
X107841128Y-76815000D01*
X107893730Y-77011317D01*
X107893734Y-77011326D01*
X107989865Y-77217482D01*
X108120342Y-77403820D01*
X108281179Y-77564657D01*
X108467517Y-77695134D01*
X108673673Y-77791265D01*
X108673682Y-77791269D01*
X108869999Y-77843872D01*
X108870000Y-77843871D01*
X108870000Y-76880686D01*
X108874394Y-76885080D01*
X108965606Y-76937741D01*
X109067339Y-76965000D01*
X109172661Y-76965000D01*
X109274394Y-76937741D01*
X109365606Y-76885080D01*
X109370000Y-76880686D01*
X109370000Y-77843872D01*
X109566317Y-77791269D01*
X109566326Y-77791265D01*
X109772482Y-77695134D01*
X109958820Y-77564657D01*
X110119657Y-77403820D01*
X110250134Y-77217482D01*
X110346265Y-77011326D01*
X110346269Y-77011317D01*
X110398872Y-76815000D01*
X109435686Y-76815000D01*
X109440080Y-76810606D01*
X109492741Y-76719394D01*
X109520000Y-76617661D01*
X109520000Y-76512339D01*
X109492741Y-76410606D01*
X109440080Y-76319394D01*
X109435686Y-76315000D01*
X110398872Y-76315000D01*
X110398872Y-76314999D01*
X110346269Y-76118682D01*
X110346265Y-76118673D01*
X110250134Y-75912517D01*
X110119657Y-75726179D01*
X109958820Y-75565342D01*
X109772482Y-75434865D01*
X109714133Y-75407657D01*
X109661694Y-75361484D01*
X109642542Y-75294291D01*
X109662758Y-75227410D01*
X109714129Y-75182895D01*
X109772734Y-75155568D01*
X109959139Y-75025047D01*
X110120047Y-74864139D01*
X110250568Y-74677734D01*
X110346739Y-74471496D01*
X110405635Y-74251692D01*
X110425468Y-74025000D01*
X110405635Y-73798308D01*
X110346739Y-73578504D01*
X110250568Y-73372266D01*
X110199967Y-73300000D01*
X123219678Y-73300000D01*
X123238915Y-73483029D01*
X123238916Y-73483032D01*
X123295783Y-73658053D01*
X123295786Y-73658059D01*
X123387805Y-73817440D01*
X123497327Y-73939077D01*
X123510949Y-73954206D01*
X123510951Y-73954208D01*
X123659834Y-74062378D01*
X123659835Y-74062378D01*
X123659839Y-74062381D01*
X123796953Y-74123428D01*
X123827961Y-74137234D01*
X123827966Y-74137236D01*
X124007981Y-74175500D01*
X124192019Y-74175500D01*
X124372034Y-74137236D01*
X124540161Y-74062381D01*
X124689050Y-73954207D01*
X124812195Y-73817440D01*
X124904214Y-73658059D01*
X124961085Y-73483029D01*
X124980322Y-73300000D01*
X124961085Y-73116971D01*
X124917448Y-72982671D01*
X124904216Y-72941946D01*
X124904213Y-72941940D01*
X124876784Y-72894432D01*
X124832619Y-72817935D01*
X124816146Y-72750035D01*
X124838999Y-72684008D01*
X124893920Y-72640817D01*
X124963473Y-72634176D01*
X125012888Y-72655615D01*
X125128159Y-72739364D01*
X125159839Y-72762381D01*
X125327961Y-72837234D01*
X125327966Y-72837236D01*
X125507981Y-72875500D01*
X125510258Y-72875500D01*
X125511528Y-72875873D01*
X125514448Y-72876180D01*
X125514391Y-72876713D01*
X125577297Y-72895185D01*
X125597939Y-72911819D01*
X125846635Y-73160515D01*
X125977865Y-73236281D01*
X126124233Y-73275500D01*
X126124234Y-73275500D01*
X135584874Y-73275500D01*
X135651913Y-73295185D01*
X135677022Y-73316526D01*
X135692649Y-73333882D01*
X135722879Y-73396872D01*
X135724500Y-73416854D01*
X135724500Y-76410258D01*
X135704815Y-76477297D01*
X135688181Y-76497939D01*
X133147939Y-79038181D01*
X133086616Y-79071666D01*
X133060258Y-79074500D01*
X132957981Y-79074500D01*
X132777966Y-79112763D01*
X132777961Y-79112765D01*
X132609839Y-79187619D01*
X132609834Y-79187621D01*
X132460951Y-79295791D01*
X132460949Y-79295793D01*
X132337804Y-79432561D01*
X132245786Y-79591940D01*
X132245783Y-79591946D01*
X132188916Y-79766967D01*
X132188915Y-79766971D01*
X132169678Y-79950000D01*
X132188915Y-80133029D01*
X132188916Y-80133032D01*
X132245783Y-80308053D01*
X132245786Y-80308059D01*
X132337805Y-80467440D01*
X132447327Y-80589077D01*
X132460949Y-80604206D01*
X132460951Y-80604208D01*
X132609834Y-80712378D01*
X132609835Y-80712378D01*
X132609839Y-80712381D01*
X132746953Y-80773428D01*
X132777961Y-80787234D01*
X132777966Y-80787236D01*
X132957981Y-80825500D01*
X133142019Y-80825500D01*
X133322034Y-80787236D01*
X133490161Y-80712381D01*
X133639050Y-80604207D01*
X133762195Y-80467440D01*
X133854214Y-80308059D01*
X133911085Y-80133029D01*
X133930322Y-79950000D01*
X133930186Y-79948708D01*
X133930322Y-79947965D01*
X133930322Y-79943500D01*
X133931138Y-79943500D01*
X133942747Y-79879979D01*
X133965821Y-79848057D01*
X136760515Y-77053365D01*
X136836281Y-76922135D01*
X136875500Y-76775767D01*
X136875500Y-76624234D01*
X136875500Y-73416854D01*
X136895185Y-73349815D01*
X136907346Y-73333886D01*
X137012195Y-73217440D01*
X137104214Y-73058059D01*
X137161085Y-72883029D01*
X137180322Y-72700000D01*
X137161085Y-72516971D01*
X137104214Y-72341941D01*
X137012195Y-72182560D01*
X136889050Y-72045793D01*
X136889048Y-72045791D01*
X136740165Y-71937621D01*
X136740162Y-71937619D01*
X136740161Y-71937619D01*
X136643083Y-71894397D01*
X136572038Y-71862765D01*
X136572033Y-71862763D01*
X136392019Y-71824500D01*
X136289742Y-71824500D01*
X136222703Y-71804815D01*
X136202061Y-71788181D01*
X133553367Y-69139487D01*
X133553365Y-69139485D01*
X133496904Y-69106887D01*
X133448688Y-69056320D01*
X133435466Y-68987713D01*
X133461434Y-68922848D01*
X133518348Y-68882320D01*
X133558904Y-68875500D01*
X137810258Y-68875500D01*
X137877297Y-68895185D01*
X137897939Y-68911819D01*
X140288181Y-71302061D01*
X140321666Y-71363384D01*
X140324500Y-71389742D01*
X140324500Y-87210258D01*
X140304815Y-87277297D01*
X140288181Y-87297939D01*
X139997939Y-87588181D01*
X139936616Y-87621666D01*
X139910258Y-87624500D01*
X139807981Y-87624500D01*
X139627966Y-87662763D01*
X139627961Y-87662765D01*
X139459839Y-87737619D01*
X139459834Y-87737621D01*
X139310951Y-87845791D01*
X139310949Y-87845793D01*
X139187804Y-87982561D01*
X139095786Y-88141940D01*
X139095783Y-88141946D01*
X139038916Y-88316967D01*
X139038915Y-88316971D01*
X139019678Y-88500000D01*
X139038915Y-88683029D01*
X139038916Y-88683032D01*
X139095783Y-88858053D01*
X139095786Y-88858059D01*
X139187805Y-89017440D01*
X139245846Y-89081901D01*
X139310949Y-89154206D01*
X139310951Y-89154208D01*
X139459834Y-89262378D01*
X139459835Y-89262378D01*
X139459839Y-89262381D01*
X139596953Y-89323428D01*
X139627961Y-89337234D01*
X139627966Y-89337236D01*
X139807981Y-89375500D01*
X139992019Y-89375500D01*
X140172034Y-89337236D01*
X140340161Y-89262381D01*
X140489050Y-89154207D01*
X140612195Y-89017440D01*
X140704214Y-88858059D01*
X140761085Y-88683029D01*
X140780322Y-88500000D01*
X140780186Y-88498708D01*
X140780322Y-88497965D01*
X140780322Y-88493500D01*
X140781138Y-88493500D01*
X140792747Y-88429979D01*
X140815821Y-88398057D01*
X141360515Y-87853365D01*
X141368111Y-87840207D01*
X141418676Y-87791990D01*
X141487283Y-87778765D01*
X141552148Y-87804731D01*
X141592679Y-87861644D01*
X141599500Y-87902204D01*
X141599500Y-89447870D01*
X141599501Y-89447876D01*
X141605908Y-89507483D01*
X141656202Y-89642328D01*
X141656206Y-89642335D01*
X141742452Y-89757544D01*
X141742455Y-89757547D01*
X141857664Y-89843793D01*
X141857671Y-89843797D01*
X141992517Y-89894091D01*
X141992516Y-89894091D01*
X141999444Y-89894835D01*
X142052127Y-89900500D01*
X143947872Y-89900499D01*
X144007483Y-89894091D01*
X144142331Y-89843796D01*
X144257546Y-89757546D01*
X144343796Y-89642331D01*
X144360430Y-89597734D01*
X144372455Y-89565493D01*
X144414326Y-89509559D01*
X144479790Y-89485141D01*
X144548063Y-89499992D01*
X144579866Y-89524843D01*
X144587302Y-89532920D01*
X144588215Y-89533912D01*
X144588222Y-89533918D01*
X144771365Y-89676464D01*
X144771371Y-89676468D01*
X144771374Y-89676470D01*
X144921185Y-89757544D01*
X144970328Y-89784139D01*
X144975497Y-89786936D01*
X145089487Y-89826068D01*
X145195015Y-89862297D01*
X145195017Y-89862297D01*
X145195019Y-89862298D01*
X145423951Y-89900500D01*
X145423952Y-89900500D01*
X145656048Y-89900500D01*
X145656049Y-89900500D01*
X145884981Y-89862298D01*
X146104503Y-89786936D01*
X146308626Y-89676470D01*
X146491784Y-89533913D01*
X146648979Y-89363153D01*
X146775924Y-89168849D01*
X146869157Y-88956300D01*
X146926134Y-88731305D01*
X146927211Y-88718308D01*
X146945300Y-88500006D01*
X146945300Y-88499993D01*
X146926135Y-88268702D01*
X146926133Y-88268691D01*
X146869157Y-88043699D01*
X146775924Y-87831151D01*
X146648983Y-87636852D01*
X146648980Y-87636849D01*
X146648979Y-87636847D01*
X146491784Y-87466087D01*
X146491779Y-87466083D01*
X146491777Y-87466081D01*
X146308634Y-87323535D01*
X146308628Y-87323531D01*
X146104504Y-87213064D01*
X146104495Y-87213061D01*
X145884984Y-87137702D01*
X145694450Y-87105908D01*
X145656049Y-87099500D01*
X145423951Y-87099500D01*
X145385550Y-87105908D01*
X145195015Y-87137702D01*
X144975504Y-87213061D01*
X144975495Y-87213064D01*
X144771371Y-87323531D01*
X144771365Y-87323535D01*
X144588222Y-87466081D01*
X144588218Y-87466085D01*
X144579866Y-87475158D01*
X144519979Y-87511148D01*
X144450141Y-87509047D01*
X144392525Y-87469522D01*
X144372455Y-87434507D01*
X144343797Y-87357671D01*
X144343793Y-87357664D01*
X144257547Y-87242455D01*
X144257544Y-87242452D01*
X144142335Y-87156206D01*
X144142328Y-87156202D01*
X144007482Y-87105908D01*
X144007483Y-87105908D01*
X143947883Y-87099501D01*
X143947881Y-87099500D01*
X143947873Y-87099500D01*
X143947864Y-87099500D01*
X142052129Y-87099500D01*
X142052123Y-87099501D01*
X141992516Y-87105908D01*
X141857671Y-87156202D01*
X141857664Y-87156206D01*
X141742455Y-87242452D01*
X141698766Y-87300813D01*
X141642832Y-87342683D01*
X141573140Y-87347667D01*
X141511817Y-87314181D01*
X141478333Y-87252857D01*
X141475500Y-87226501D01*
X141475500Y-71024236D01*
X141475500Y-71024234D01*
X141436281Y-70877865D01*
X141360515Y-70746635D01*
X141253365Y-70639485D01*
X138453365Y-67839485D01*
X138367189Y-67789731D01*
X138322136Y-67763719D01*
X138248950Y-67744109D01*
X138175766Y-67724500D01*
X126424234Y-67724500D01*
X126277863Y-67763719D01*
X126232811Y-67789731D01*
X126170858Y-67825500D01*
X126163660Y-67829655D01*
X126146635Y-67839484D01*
X123639487Y-70346632D01*
X123639485Y-70346635D01*
X123563719Y-70477863D01*
X123524500Y-70624234D01*
X123524500Y-72583145D01*
X123504815Y-72650184D01*
X123492650Y-72666117D01*
X123387804Y-72782561D01*
X123295786Y-72941940D01*
X123295783Y-72941946D01*
X123243386Y-73103210D01*
X123238915Y-73116971D01*
X123219678Y-73300000D01*
X110199967Y-73300000D01*
X110120047Y-73185861D01*
X110120045Y-73185858D01*
X109959141Y-73024954D01*
X109772734Y-72894432D01*
X109772732Y-72894431D01*
X109566497Y-72798261D01*
X109566488Y-72798258D01*
X109346697Y-72739366D01*
X109346693Y-72739365D01*
X109346692Y-72739365D01*
X109346691Y-72739364D01*
X109346686Y-72739364D01*
X109120002Y-72719532D01*
X109119998Y-72719532D01*
X108893313Y-72739364D01*
X108893302Y-72739366D01*
X108673511Y-72798258D01*
X108673502Y-72798261D01*
X108467267Y-72894431D01*
X108467265Y-72894432D01*
X108280858Y-73024954D01*
X108119954Y-73185858D01*
X107989432Y-73372265D01*
X107989431Y-73372267D01*
X107893261Y-73578502D01*
X107893258Y-73578511D01*
X107834366Y-73798302D01*
X107834364Y-73798313D01*
X107814532Y-74024998D01*
X102800499Y-74024998D01*
X102800499Y-73177128D01*
X102794091Y-73117517D01*
X102793887Y-73116971D01*
X102743797Y-72982671D01*
X102743793Y-72982664D01*
X102657547Y-72867455D01*
X102657544Y-72867452D01*
X102542335Y-72781206D01*
X102542328Y-72781202D01*
X102407482Y-72730908D01*
X102407483Y-72730908D01*
X102347883Y-72724501D01*
X102347881Y-72724500D01*
X102347873Y-72724500D01*
X102347864Y-72724500D01*
X100652129Y-72724500D01*
X100652123Y-72724501D01*
X100592516Y-72730908D01*
X100457671Y-72781202D01*
X100457664Y-72781206D01*
X100342455Y-72867452D01*
X100342452Y-72867455D01*
X100256206Y-72982664D01*
X100256202Y-72982671D01*
X100205908Y-73117517D01*
X100201286Y-73160512D01*
X100199501Y-73177123D01*
X100199500Y-73177135D01*
X100199500Y-74872870D01*
X100199501Y-74872876D01*
X100205908Y-74932483D01*
X100256202Y-75067328D01*
X100256206Y-75067335D01*
X100342452Y-75182544D01*
X100342455Y-75182547D01*
X100457664Y-75268793D01*
X100457671Y-75268797D01*
X100502618Y-75285561D01*
X100592517Y-75319091D01*
X100627596Y-75322862D01*
X100692144Y-75349599D01*
X100731993Y-75406991D01*
X100734488Y-75476816D01*
X100698836Y-75536905D01*
X100685464Y-75547725D01*
X100660858Y-75564954D01*
X100499954Y-75725858D01*
X100369432Y-75912265D01*
X100369431Y-75912267D01*
X100273261Y-76118502D01*
X100273258Y-76118511D01*
X100214366Y-76338302D01*
X100214364Y-76338313D01*
X100194532Y-76564998D01*
X82874742Y-76564998D01*
X83264158Y-75735009D01*
X83265663Y-75731916D01*
X83898008Y-74477733D01*
X83899579Y-74474724D01*
X84567193Y-73238882D01*
X84568825Y-73235962D01*
X85271112Y-72019566D01*
X85272878Y-72016604D01*
X86009310Y-70820563D01*
X86011135Y-70817691D01*
X86781136Y-69642941D01*
X86783038Y-69640128D01*
X87476343Y-68644998D01*
X92869437Y-68644998D01*
X92869437Y-68645001D01*
X92889650Y-68876044D01*
X92889651Y-68876051D01*
X92949678Y-69100074D01*
X92949679Y-69100076D01*
X92949680Y-69100079D01*
X93047699Y-69310282D01*
X93180730Y-69500269D01*
X93344731Y-69664270D01*
X93534718Y-69797301D01*
X93546121Y-69802618D01*
X93598560Y-69848790D01*
X93617712Y-69915984D01*
X93597496Y-69982865D01*
X93546123Y-70027381D01*
X93534720Y-70032698D01*
X93534714Y-70032701D01*
X93344735Y-70165726D01*
X93344729Y-70165731D01*
X93180731Y-70329729D01*
X93180726Y-70329735D01*
X93047701Y-70519714D01*
X93047699Y-70519718D01*
X92949681Y-70729917D01*
X92889651Y-70953948D01*
X92889650Y-70953955D01*
X92869437Y-71184998D01*
X92869437Y-71185001D01*
X92889650Y-71416044D01*
X92889651Y-71416051D01*
X92949678Y-71640074D01*
X92949679Y-71640076D01*
X92949680Y-71640079D01*
X93047699Y-71850282D01*
X93180729Y-72040267D01*
X93180730Y-72040269D01*
X93336034Y-72195573D01*
X93369519Y-72256896D01*
X93364535Y-72326588D01*
X93322663Y-72382521D01*
X93274447Y-72401496D01*
X93275068Y-72404124D01*
X93267520Y-72405907D01*
X93132671Y-72456202D01*
X93132664Y-72456206D01*
X93017455Y-72542452D01*
X93017452Y-72542455D01*
X92931206Y-72657664D01*
X92931202Y-72657671D01*
X92880908Y-72792517D01*
X92880291Y-72798261D01*
X92874501Y-72852123D01*
X92874500Y-72852135D01*
X92874500Y-74597870D01*
X92874501Y-74597876D01*
X92880908Y-74657483D01*
X92931202Y-74792328D01*
X92931206Y-74792335D01*
X93017452Y-74907544D01*
X93017455Y-74907547D01*
X93132664Y-74993793D01*
X93132671Y-74993797D01*
X93267517Y-75044091D01*
X93267516Y-75044091D01*
X93274444Y-75044835D01*
X93327127Y-75050500D01*
X95072872Y-75050499D01*
X95132483Y-75044091D01*
X95267331Y-74993796D01*
X95382546Y-74907546D01*
X95468796Y-74792331D01*
X95519091Y-74657483D01*
X95525500Y-74597873D01*
X95525499Y-73646153D01*
X95939500Y-73646153D01*
X95939500Y-73803846D01*
X95970261Y-73958489D01*
X95970264Y-73958501D01*
X96030602Y-74104172D01*
X96030609Y-74104185D01*
X96118210Y-74235288D01*
X96118213Y-74235292D01*
X96229707Y-74346786D01*
X96229711Y-74346789D01*
X96360814Y-74434390D01*
X96360827Y-74434397D01*
X96506498Y-74494735D01*
X96506503Y-74494737D01*
X96656131Y-74524500D01*
X96661153Y-74525499D01*
X96661156Y-74525500D01*
X96661158Y-74525500D01*
X96818844Y-74525500D01*
X96818845Y-74525499D01*
X96973497Y-74494737D01*
X97119179Y-74434394D01*
X97250289Y-74346789D01*
X97361789Y-74235289D01*
X97449394Y-74104179D01*
X97509737Y-73958497D01*
X97540500Y-73803842D01*
X97540500Y-73646158D01*
X97540500Y-73646155D01*
X97540499Y-73646153D01*
X97509738Y-73491510D01*
X97509737Y-73491503D01*
X97470540Y-73396872D01*
X97449397Y-73345827D01*
X97449390Y-73345814D01*
X97361789Y-73214711D01*
X97361786Y-73214707D01*
X97250292Y-73103213D01*
X97250288Y-73103210D01*
X97119185Y-73015609D01*
X97119172Y-73015602D01*
X96973501Y-72955264D01*
X96973489Y-72955261D01*
X96818845Y-72924500D01*
X96818842Y-72924500D01*
X96661158Y-72924500D01*
X96661155Y-72924500D01*
X96506510Y-72955261D01*
X96506498Y-72955264D01*
X96360827Y-73015602D01*
X96360814Y-73015609D01*
X96229711Y-73103210D01*
X96229707Y-73103213D01*
X96118213Y-73214707D01*
X96118210Y-73214711D01*
X96030609Y-73345814D01*
X96030602Y-73345827D01*
X95970264Y-73491498D01*
X95970261Y-73491510D01*
X95939500Y-73646153D01*
X95525499Y-73646153D01*
X95525499Y-72852128D01*
X95520299Y-72803757D01*
X95519091Y-72792516D01*
X95468797Y-72657671D01*
X95468793Y-72657664D01*
X95382547Y-72542455D01*
X95382544Y-72542452D01*
X95267335Y-72456206D01*
X95267328Y-72456202D01*
X95132482Y-72405908D01*
X95124938Y-72404126D01*
X95125614Y-72401263D01*
X95073790Y-72379765D01*
X95033971Y-72322352D01*
X95031514Y-72252526D01*
X95063962Y-72195576D01*
X95219270Y-72040269D01*
X95352301Y-71850282D01*
X95450320Y-71640079D01*
X95510349Y-71416050D01*
X95530563Y-71185000D01*
X95523665Y-71106153D01*
X95939500Y-71106153D01*
X95939500Y-71263846D01*
X95970261Y-71418489D01*
X95970264Y-71418501D01*
X96030602Y-71564172D01*
X96030609Y-71564185D01*
X96118210Y-71695288D01*
X96118213Y-71695292D01*
X96229707Y-71806786D01*
X96229711Y-71806789D01*
X96360814Y-71894390D01*
X96360827Y-71894397D01*
X96465176Y-71937619D01*
X96506503Y-71954737D01*
X96661153Y-71985499D01*
X96661156Y-71985500D01*
X96661158Y-71985500D01*
X96818844Y-71985500D01*
X96818845Y-71985499D01*
X96973497Y-71954737D01*
X97119179Y-71894394D01*
X97250289Y-71806789D01*
X97361789Y-71695289D01*
X97449394Y-71564179D01*
X97509737Y-71418497D01*
X97540500Y-71263842D01*
X97540500Y-71106158D01*
X97540500Y-71106155D01*
X97540499Y-71106153D01*
X97509737Y-70951503D01*
X97489258Y-70902061D01*
X97449397Y-70805827D01*
X97449390Y-70805814D01*
X97361789Y-70674711D01*
X97361786Y-70674707D01*
X97250292Y-70563213D01*
X97250288Y-70563210D01*
X97119185Y-70475609D01*
X97119172Y-70475602D01*
X96973501Y-70415264D01*
X96973489Y-70415261D01*
X96818845Y-70384500D01*
X96818842Y-70384500D01*
X96661158Y-70384500D01*
X96661155Y-70384500D01*
X96506510Y-70415261D01*
X96506498Y-70415264D01*
X96360827Y-70475602D01*
X96360814Y-70475609D01*
X96229711Y-70563210D01*
X96229707Y-70563213D01*
X96118213Y-70674707D01*
X96118210Y-70674711D01*
X96030609Y-70805814D01*
X96030602Y-70805827D01*
X95970264Y-70951498D01*
X95970261Y-70951510D01*
X95939500Y-71106153D01*
X95523665Y-71106153D01*
X95510349Y-70953950D01*
X95450320Y-70729921D01*
X95352301Y-70519719D01*
X95352299Y-70519716D01*
X95352298Y-70519714D01*
X95219273Y-70329735D01*
X95219268Y-70329729D01*
X95055269Y-70165730D01*
X94911479Y-70065047D01*
X94865282Y-70032699D01*
X94853878Y-70027381D01*
X94801440Y-69981210D01*
X94782288Y-69914016D01*
X94802504Y-69847135D01*
X94853878Y-69802618D01*
X94865282Y-69797301D01*
X95055269Y-69664270D01*
X95219270Y-69500269D01*
X95352301Y-69310282D01*
X95450320Y-69100079D01*
X95510349Y-68876050D01*
X95530563Y-68645000D01*
X95523665Y-68566153D01*
X95939500Y-68566153D01*
X95939500Y-68723846D01*
X95970261Y-68878489D01*
X95970264Y-68878501D01*
X96030602Y-69024172D01*
X96030609Y-69024185D01*
X96118210Y-69155288D01*
X96118213Y-69155292D01*
X96229707Y-69266786D01*
X96229711Y-69266789D01*
X96360814Y-69354390D01*
X96360827Y-69354397D01*
X96506498Y-69414735D01*
X96506503Y-69414737D01*
X96661153Y-69445499D01*
X96661156Y-69445500D01*
X96661158Y-69445500D01*
X96818844Y-69445500D01*
X96818845Y-69445499D01*
X96973497Y-69414737D01*
X97119179Y-69354394D01*
X97250289Y-69266789D01*
X97361789Y-69155289D01*
X97422120Y-69064998D01*
X100194532Y-69064998D01*
X100194532Y-69065001D01*
X100214364Y-69291686D01*
X100214366Y-69291697D01*
X100273258Y-69511488D01*
X100273261Y-69511497D01*
X100369431Y-69717732D01*
X100369432Y-69717734D01*
X100499954Y-69904141D01*
X100660858Y-70065045D01*
X100660861Y-70065047D01*
X100847266Y-70195568D01*
X101053504Y-70291739D01*
X101273308Y-70350635D01*
X101435230Y-70364801D01*
X101499998Y-70370468D01*
X101500000Y-70370468D01*
X101500002Y-70370468D01*
X101556673Y-70365509D01*
X101726692Y-70350635D01*
X101946496Y-70291739D01*
X102152734Y-70195568D01*
X102339139Y-70065047D01*
X102500047Y-69904139D01*
X102630568Y-69717734D01*
X102726739Y-69511496D01*
X102785635Y-69291692D01*
X102804189Y-69079617D01*
X102805468Y-69065001D01*
X102805468Y-69064998D01*
X102790611Y-68895185D01*
X102785635Y-68838308D01*
X102726739Y-68618504D01*
X102630568Y-68412266D01*
X102500047Y-68225861D01*
X102500045Y-68225858D01*
X102339143Y-68064956D01*
X102314536Y-68047726D01*
X102270912Y-67993149D01*
X102263719Y-67923650D01*
X102295241Y-67861296D01*
X102355471Y-67825882D01*
X102372404Y-67822861D01*
X102407483Y-67819091D01*
X102542331Y-67768796D01*
X102657546Y-67682546D01*
X102743796Y-67567331D01*
X102794091Y-67432483D01*
X102800500Y-67372873D01*
X102800499Y-66524998D01*
X107814532Y-66524998D01*
X107814532Y-66525001D01*
X107834364Y-66751686D01*
X107834366Y-66751697D01*
X107893258Y-66971488D01*
X107893261Y-66971497D01*
X107989431Y-67177732D01*
X107989432Y-67177734D01*
X108119954Y-67364141D01*
X108280858Y-67525045D01*
X108280861Y-67525047D01*
X108467266Y-67655568D01*
X108525865Y-67682893D01*
X108578305Y-67729065D01*
X108597457Y-67796258D01*
X108577242Y-67863139D01*
X108525867Y-67907657D01*
X108467515Y-67934867D01*
X108281179Y-68065342D01*
X108120342Y-68226179D01*
X107989865Y-68412517D01*
X107893734Y-68618673D01*
X107893730Y-68618682D01*
X107841127Y-68814999D01*
X107841128Y-68815000D01*
X108804314Y-68815000D01*
X108799920Y-68819394D01*
X108747259Y-68910606D01*
X108720000Y-69012339D01*
X108720000Y-69117661D01*
X108747259Y-69219394D01*
X108799920Y-69310606D01*
X108804314Y-69315000D01*
X107841128Y-69315000D01*
X107893730Y-69511317D01*
X107893734Y-69511326D01*
X107989865Y-69717482D01*
X108120342Y-69903820D01*
X108281179Y-70064657D01*
X108467517Y-70195134D01*
X108673673Y-70291265D01*
X108673682Y-70291269D01*
X108869999Y-70343872D01*
X108870000Y-70343871D01*
X108870000Y-69380686D01*
X108874394Y-69385080D01*
X108965606Y-69437741D01*
X109067339Y-69465000D01*
X109172661Y-69465000D01*
X109274394Y-69437741D01*
X109365606Y-69385080D01*
X109370000Y-69380686D01*
X109370000Y-70343872D01*
X109566317Y-70291269D01*
X109566326Y-70291265D01*
X109772482Y-70195134D01*
X109958820Y-70064657D01*
X110119657Y-69903820D01*
X110250134Y-69717482D01*
X110346265Y-69511326D01*
X110346269Y-69511317D01*
X110398872Y-69315000D01*
X109435686Y-69315000D01*
X109440080Y-69310606D01*
X109492741Y-69219394D01*
X109520000Y-69117661D01*
X109520000Y-69012339D01*
X109492741Y-68910606D01*
X109440080Y-68819394D01*
X109435686Y-68815000D01*
X110398872Y-68815000D01*
X110398872Y-68814999D01*
X110346269Y-68618682D01*
X110346265Y-68618673D01*
X110250134Y-68412517D01*
X110119657Y-68226179D01*
X109958820Y-68065342D01*
X109772482Y-67934865D01*
X109714133Y-67907657D01*
X109661694Y-67861484D01*
X109642542Y-67794291D01*
X109662758Y-67727410D01*
X109714129Y-67682895D01*
X109772734Y-67655568D01*
X109959139Y-67525047D01*
X110120047Y-67364139D01*
X110250568Y-67177734D01*
X110346739Y-66971496D01*
X110405635Y-66751692D01*
X110425468Y-66525000D01*
X110405635Y-66298308D01*
X110346739Y-66078504D01*
X110250568Y-65872266D01*
X110120047Y-65685861D01*
X110120045Y-65685858D01*
X109959141Y-65524954D01*
X109780686Y-65400000D01*
X124800000Y-65400000D01*
X131100000Y-65400000D01*
X131100000Y-58700000D01*
X124800000Y-58700000D01*
X124800000Y-65400000D01*
X109780686Y-65400000D01*
X109772734Y-65394432D01*
X109772732Y-65394431D01*
X109566497Y-65298261D01*
X109566488Y-65298258D01*
X109346697Y-65239366D01*
X109346693Y-65239365D01*
X109346692Y-65239365D01*
X109346691Y-65239364D01*
X109346686Y-65239364D01*
X109120002Y-65219532D01*
X109119998Y-65219532D01*
X108893313Y-65239364D01*
X108893302Y-65239366D01*
X108673511Y-65298258D01*
X108673502Y-65298261D01*
X108467267Y-65394431D01*
X108467265Y-65394432D01*
X108280858Y-65524954D01*
X108119954Y-65685858D01*
X107989432Y-65872265D01*
X107989431Y-65872267D01*
X107893261Y-66078502D01*
X107893258Y-66078511D01*
X107834366Y-66298302D01*
X107834364Y-66298313D01*
X107814532Y-66524998D01*
X102800499Y-66524998D01*
X102800499Y-65677128D01*
X102794091Y-65617517D01*
X102759567Y-65524954D01*
X102743797Y-65482671D01*
X102743793Y-65482664D01*
X102657547Y-65367455D01*
X102657544Y-65367452D01*
X102542335Y-65281206D01*
X102542328Y-65281202D01*
X102407482Y-65230908D01*
X102407483Y-65230908D01*
X102347883Y-65224501D01*
X102347881Y-65224500D01*
X102347873Y-65224500D01*
X102347864Y-65224500D01*
X100652129Y-65224500D01*
X100652123Y-65224501D01*
X100592516Y-65230908D01*
X100457671Y-65281202D01*
X100457664Y-65281206D01*
X100342455Y-65367452D01*
X100342452Y-65367455D01*
X100256206Y-65482664D01*
X100256202Y-65482671D01*
X100205908Y-65617517D01*
X100199501Y-65677116D01*
X100199501Y-65677123D01*
X100199500Y-65677135D01*
X100199500Y-67372870D01*
X100199501Y-67372876D01*
X100205908Y-67432483D01*
X100256202Y-67567328D01*
X100256206Y-67567335D01*
X100342452Y-67682544D01*
X100342455Y-67682547D01*
X100457664Y-67768793D01*
X100457671Y-67768797D01*
X100502618Y-67785561D01*
X100592517Y-67819091D01*
X100627596Y-67822862D01*
X100692144Y-67849599D01*
X100731993Y-67906991D01*
X100734488Y-67976816D01*
X100698836Y-68036905D01*
X100685464Y-68047725D01*
X100660858Y-68064954D01*
X100499954Y-68225858D01*
X100369432Y-68412265D01*
X100369431Y-68412267D01*
X100273261Y-68618502D01*
X100273258Y-68618511D01*
X100214366Y-68838302D01*
X100214364Y-68838313D01*
X100194532Y-69064998D01*
X97422120Y-69064998D01*
X97449394Y-69024179D01*
X97509737Y-68878497D01*
X97540500Y-68723842D01*
X97540500Y-68566158D01*
X97540500Y-68566155D01*
X97540499Y-68566153D01*
X97509737Y-68411503D01*
X97509735Y-68411498D01*
X97449397Y-68265827D01*
X97449390Y-68265814D01*
X97361789Y-68134711D01*
X97361786Y-68134707D01*
X97250292Y-68023213D01*
X97250288Y-68023210D01*
X97119185Y-67935609D01*
X97119172Y-67935602D01*
X96973501Y-67875264D01*
X96973489Y-67875261D01*
X96818845Y-67844500D01*
X96818842Y-67844500D01*
X96661158Y-67844500D01*
X96661155Y-67844500D01*
X96506510Y-67875261D01*
X96506498Y-67875264D01*
X96360827Y-67935602D01*
X96360814Y-67935609D01*
X96229711Y-68023210D01*
X96229707Y-68023213D01*
X96118213Y-68134707D01*
X96118210Y-68134711D01*
X96030609Y-68265814D01*
X96030602Y-68265827D01*
X95970264Y-68411498D01*
X95970261Y-68411510D01*
X95939500Y-68566153D01*
X95523665Y-68566153D01*
X95510349Y-68413950D01*
X95450320Y-68189921D01*
X95352301Y-67979719D01*
X95352299Y-67979716D01*
X95352298Y-67979714D01*
X95219273Y-67789735D01*
X95219268Y-67789729D01*
X95055269Y-67625730D01*
X95055263Y-67625726D01*
X94865282Y-67492699D01*
X94655079Y-67394680D01*
X94655076Y-67394679D01*
X94655074Y-67394678D01*
X94431051Y-67334651D01*
X94431044Y-67334650D01*
X94200002Y-67314437D01*
X94199998Y-67314437D01*
X93968955Y-67334650D01*
X93968948Y-67334651D01*
X93744917Y-67394681D01*
X93534718Y-67492699D01*
X93534714Y-67492701D01*
X93344735Y-67625726D01*
X93344729Y-67625731D01*
X93180731Y-67789729D01*
X93180726Y-67789735D01*
X93047701Y-67979714D01*
X93047699Y-67979718D01*
X92949681Y-68189917D01*
X92889651Y-68413948D01*
X92889650Y-68413955D01*
X92869437Y-68644998D01*
X87476343Y-68644998D01*
X87585929Y-68487705D01*
X87587958Y-68484880D01*
X87911276Y-68047725D01*
X88423158Y-67355615D01*
X88425229Y-67352896D01*
X89292068Y-66247696D01*
X89294184Y-66245076D01*
X90191972Y-65164826D01*
X90194168Y-65162258D01*
X91122137Y-64107880D01*
X91124449Y-64105327D01*
X92081900Y-63077615D01*
X92084236Y-63075178D01*
X93070400Y-62074960D01*
X93072786Y-62072607D01*
X94086848Y-61100706D01*
X94089344Y-61098381D01*
X95130525Y-60155548D01*
X95133074Y-60153306D01*
X96200483Y-59240345D01*
X96203078Y-59238189D01*
X97295903Y-58355795D01*
X97298574Y-58353699D01*
X98415940Y-57502577D01*
X98418688Y-57500546D01*
X99559688Y-56681388D01*
X99562439Y-56679471D01*
X100726171Y-55892925D01*
X100729029Y-55891051D01*
X101914570Y-55137743D01*
X101917424Y-55135986D01*
X103123778Y-54416546D01*
X103126723Y-54414845D01*
X104352954Y-53729832D01*
X104355978Y-53728199D01*
X105601054Y-53078186D01*
X105604124Y-53076637D01*
X106867137Y-52462099D01*
X106870253Y-52460638D01*
X108150102Y-51882109D01*
X108153270Y-51880731D01*
X109448991Y-51338648D01*
X109452167Y-51337371D01*
X110762740Y-50832160D01*
X110765940Y-50830978D01*
X112090275Y-50363061D01*
X112093558Y-50361953D01*
X113430538Y-49931722D01*
X113433869Y-49930701D01*
X114782583Y-49538449D01*
X114785839Y-49537552D01*
X116145114Y-49183624D01*
X116148409Y-49182816D01*
X117517163Y-48867495D01*
X117520499Y-48866777D01*
X118897602Y-48590320D01*
X118900931Y-48589701D01*
X120285288Y-48352329D01*
X120288739Y-48351788D01*
X121158512Y-48227875D01*
X121227656Y-48237907D01*
G37*
%TD.AperFunction*%
%TD*%
M02*
