%TF.GenerationSoftware,KiCad,Pcbnew,8.0.7-unknown-202412152340~ed5068829f~ubuntu24.04.1*%
%TF.CreationDate,2025-01-04T16:16:26+01:00*%
%TF.ProjectId,sterownik_rolety_Zigbee,73746572-6f77-46e6-996b-5f726f6c6574,rev?*%
%TF.SameCoordinates,Original*%
%TF.FileFunction,Copper,L1,Top*%
%TF.FilePolarity,Positive*%
%FSLAX46Y46*%
G04 Gerber Fmt 4.6, Leading zero omitted, Abs format (unit mm)*
G04 Created by KiCad (PCBNEW 8.0.7-unknown-202412152340~ed5068829f~ubuntu24.04.1) date 2025-01-04 16:16:26*
%MOMM*%
%LPD*%
G01*
G04 APERTURE LIST*
G04 Aperture macros list*
%AMRoundRect*
0 Rectangle with rounded corners*
0 $1 Rounding radius*
0 $2 $3 $4 $5 $6 $7 $8 $9 X,Y pos of 4 corners*
0 Add a 4 corners polygon primitive as box body*
4,1,4,$2,$3,$4,$5,$6,$7,$8,$9,$2,$3,0*
0 Add four circle primitives for the rounded corners*
1,1,$1+$1,$2,$3*
1,1,$1+$1,$4,$5*
1,1,$1+$1,$6,$7*
1,1,$1+$1,$8,$9*
0 Add four rect primitives between the rounded corners*
20,1,$1+$1,$2,$3,$4,$5,0*
20,1,$1+$1,$4,$5,$6,$7,0*
20,1,$1+$1,$6,$7,$8,$9,0*
20,1,$1+$1,$8,$9,$2,$3,0*%
G04 Aperture macros list end*
%TA.AperFunction,EtchedComponent*%
%ADD10C,0.000000*%
%TD*%
%TA.AperFunction,SMDPad,CuDef*%
%ADD11RoundRect,0.237500X0.300000X0.237500X-0.300000X0.237500X-0.300000X-0.237500X0.300000X-0.237500X0*%
%TD*%
%TA.AperFunction,SMDPad,CuDef*%
%ADD12RoundRect,0.237500X-0.237500X0.250000X-0.237500X-0.250000X0.237500X-0.250000X0.237500X0.250000X0*%
%TD*%
%TA.AperFunction,ComponentPad*%
%ADD13R,1.600000X1.600000*%
%TD*%
%TA.AperFunction,ComponentPad*%
%ADD14O,1.600000X1.600000*%
%TD*%
%TA.AperFunction,ComponentPad*%
%ADD15R,1.800000X1.800000*%
%TD*%
%TA.AperFunction,ComponentPad*%
%ADD16C,1.800000*%
%TD*%
%TA.AperFunction,SMDPad,CuDef*%
%ADD17RoundRect,0.237500X0.237500X-0.300000X0.237500X0.300000X-0.237500X0.300000X-0.237500X-0.300000X0*%
%TD*%
%TA.AperFunction,SMDPad,CuDef*%
%ADD18RoundRect,0.237500X0.237500X-0.287500X0.237500X0.287500X-0.237500X0.287500X-0.237500X-0.287500X0*%
%TD*%
%TA.AperFunction,SMDPad,CuDef*%
%ADD19RoundRect,0.237500X-0.300000X-0.237500X0.300000X-0.237500X0.300000X0.237500X-0.300000X0.237500X0*%
%TD*%
%TA.AperFunction,ComponentPad*%
%ADD20C,1.650000*%
%TD*%
%TA.AperFunction,SMDPad,CuDef*%
%ADD21RoundRect,0.200000X0.250000X0.200000X-0.250000X0.200000X-0.250000X-0.200000X0.250000X-0.200000X0*%
%TD*%
%TA.AperFunction,ConnectorPad*%
%ADD22R,0.500000X0.500000*%
%TD*%
%TA.AperFunction,ComponentPad*%
%ADD23R,0.900000X0.500000*%
%TD*%
%TA.AperFunction,ComponentPad*%
%ADD24R,1.905000X2.000000*%
%TD*%
%TA.AperFunction,ComponentPad*%
%ADD25O,1.905000X2.000000*%
%TD*%
%TA.AperFunction,SMDPad,CuDef*%
%ADD26RoundRect,0.237500X-0.237500X0.300000X-0.237500X-0.300000X0.237500X-0.300000X0.237500X0.300000X0*%
%TD*%
%TA.AperFunction,SMDPad,CuDef*%
%ADD27R,1.600000X0.800000*%
%TD*%
%TA.AperFunction,SMDPad,CuDef*%
%ADD28R,3.000000X2.100000*%
%TD*%
%TA.AperFunction,ComponentPad*%
%ADD29R,1.650000X1.650000*%
%TD*%
%TA.AperFunction,SMDPad,CuDef*%
%ADD30R,0.700000X0.275000*%
%TD*%
%TA.AperFunction,SMDPad,CuDef*%
%ADD31R,0.245000X0.450000*%
%TD*%
%TA.AperFunction,ComponentPad*%
%ADD32C,1.400000*%
%TD*%
%TA.AperFunction,SMDPad,CuDef*%
%ADD33R,0.850000X0.300000*%
%TD*%
%TA.AperFunction,SMDPad,CuDef*%
%ADD34R,0.300000X0.850000*%
%TD*%
%TA.AperFunction,SMDPad,CuDef*%
%ADD35R,3.700000X3.700000*%
%TD*%
%TA.AperFunction,ViaPad*%
%ADD36C,0.750000*%
%TD*%
%TA.AperFunction,Conductor*%
%ADD37C,0.150000*%
%TD*%
%TA.AperFunction,Conductor*%
%ADD38C,0.800000*%
%TD*%
G04 APERTURE END LIST*
D10*
%TA.AperFunction,EtchedComponent*%
%TO.C,AE1*%
G36*
X131400000Y-53615000D02*
G01*
X133400000Y-53615000D01*
X133400000Y-50975000D01*
X136100000Y-50975000D01*
X136100000Y-53615000D01*
X138100000Y-53615000D01*
X138100000Y-50975000D01*
X140800000Y-50975000D01*
X140800000Y-55415000D01*
X140300000Y-55415000D01*
X140300000Y-51475000D01*
X138600000Y-51475000D01*
X138600000Y-54115000D01*
X135600000Y-54115000D01*
X135600000Y-51475000D01*
X133900000Y-51475000D01*
X133900000Y-54115000D01*
X130900000Y-54115000D01*
X130900000Y-51475000D01*
X129200000Y-51475000D01*
X129200000Y-56375000D01*
X128700000Y-56375000D01*
X128700000Y-51475000D01*
X127300000Y-51475000D01*
X127300000Y-56375000D01*
X126400000Y-56375000D01*
X126400000Y-56131785D01*
X126702417Y-56131785D01*
X126712258Y-56179395D01*
X126736326Y-56221797D01*
X126774269Y-56254581D01*
X126782181Y-56258935D01*
X126824844Y-56271043D01*
X126873363Y-56270300D01*
X126918878Y-56257400D01*
X126937489Y-56246787D01*
X126971132Y-56211553D01*
X126991691Y-56166368D01*
X126998222Y-56116842D01*
X126989782Y-56068583D01*
X126972888Y-56036357D01*
X126937628Y-56003687D01*
X126892318Y-55983592D01*
X126842733Y-55977018D01*
X126794647Y-55984908D01*
X126761755Y-56001814D01*
X126726815Y-56038584D01*
X126707153Y-56083378D01*
X126702417Y-56131785D01*
X126400000Y-56131785D01*
X126400000Y-50975000D01*
X131400000Y-50975000D01*
X131400000Y-53615000D01*
G37*
%TD.AperFunction*%
%TD*%
D11*
%TO.P,C17,1*%
%TO.N,VDD*%
X140762500Y-78000000D03*
%TO.P,C17,2*%
%TO.N,GND*%
X139037500Y-78000000D03*
%TD*%
D12*
%TO.P,R4,1*%
%TO.N,Net-(Q4-Pad6)*%
X117200000Y-98500000D03*
%TO.P,R4,2*%
%TO.N,L_connector*%
X117200000Y-100325000D03*
%TD*%
D13*
%TO.P,Q3,1,1*%
%TO.N,Net-(Q3-Pad1)*%
X135800000Y-94025000D03*
D14*
%TO.P,Q3,2,2*%
%TO.N,Net-(D1-A)*%
X135800000Y-91485000D03*
%TO.P,Q3,3,3*%
%TO.N,unconnected-(Q3-Pad3)*%
X135800000Y-88945000D03*
%TO.P,Q3,4,4*%
%TO.N,Net-(Q3-Pad4)*%
X128180000Y-88945000D03*
%TO.P,Q3,5,5*%
%TO.N,unconnected-(Q3-Pad5)*%
X128180000Y-91485000D03*
%TO.P,Q3,6,6*%
%TO.N,Net-(Q3-Pad6)*%
X128180000Y-94025000D03*
%TD*%
D15*
%TO.P,D2,1,K*%
%TO.N,Motor_output_2*%
X108040000Y-88000000D03*
D16*
%TO.P,D2,2,A*%
%TO.N,Net-(D2-A)*%
X105500000Y-88000000D03*
%TD*%
D17*
%TO.P,C10,1*%
%TO.N,VDD*%
X125500000Y-70500000D03*
%TO.P,C10,2*%
%TO.N,GND*%
X125500000Y-68775000D03*
%TD*%
D18*
%TO.P,L1,1,1*%
%TO.N,Net-(IC1-RF)*%
X134500000Y-68500000D03*
%TO.P,L1,2,2*%
%TO.N,Net-(FL1-IN)*%
X134500000Y-66750000D03*
%TD*%
D19*
%TO.P,C15,1*%
%TO.N,Net-(FL1-IN)*%
X134500000Y-64500000D03*
%TO.P,C15,2*%
%TO.N,GND*%
X136225000Y-64500000D03*
%TD*%
D17*
%TO.P,C4,1*%
%TO.N,Net-(IC1-VDDHPA)*%
X132500000Y-70500000D03*
%TO.P,C4,2*%
%TO.N,GND*%
X132500000Y-68775000D03*
%TD*%
D12*
%TO.P,R6,1*%
%TO.N,VDD*%
X123618000Y-83475500D03*
%TO.P,R6,2*%
%TO.N,Net-(Q4-Pad1)*%
X123618000Y-85300500D03*
%TD*%
D17*
%TO.P,C2,1*%
%TO.N,VDD*%
X127500000Y-70475000D03*
%TO.P,C2,2*%
%TO.N,GND*%
X127500000Y-68750000D03*
%TD*%
D12*
%TO.P,R1,1*%
%TO.N,Net-(Q3-Pad4)*%
X125142000Y-92939500D03*
%TO.P,R1,2*%
%TO.N,Net-(Q1-G)*%
X125142000Y-94764500D03*
%TD*%
D17*
%TO.P,C1,1*%
%TO.N,Net-(IC1-VCAP)*%
X123500000Y-70500000D03*
%TO.P,C1,2*%
%TO.N,GND*%
X123500000Y-68775000D03*
%TD*%
D13*
%TO.P,Q4,1,1*%
%TO.N,Net-(Q4-Pad1)*%
X121800000Y-94025000D03*
D14*
%TO.P,Q4,2,2*%
%TO.N,Net-(D2-A)*%
X121800000Y-91485000D03*
%TO.P,Q4,3,3*%
%TO.N,unconnected-(Q4-Pad3)*%
X121800000Y-88945000D03*
%TO.P,Q4,4,4*%
%TO.N,Net-(Q4-Pad4)*%
X114180000Y-88945000D03*
%TO.P,Q4,5,5*%
%TO.N,unconnected-(Q4-Pad5)*%
X114180000Y-91485000D03*
%TO.P,Q4,6,6*%
%TO.N,Net-(Q4-Pad6)*%
X114180000Y-94025000D03*
%TD*%
D13*
%TO.P,U1,1*%
%TO.N,Switch_input_1*%
X101500000Y-74025000D03*
D14*
%TO.P,U1,2*%
%TO.N,Switch_Common*%
X101500000Y-76565000D03*
%TO.P,U1,3*%
%TO.N,GND*%
X109120000Y-76565000D03*
%TO.P,U1,4*%
%TO.N,Net-(IC1-PA0)*%
X109120000Y-74025000D03*
%TD*%
D20*
%TO.P,J1,1,1*%
%TO.N,Q2_connector*%
X118480000Y-138700000D03*
%TO.P,J1,2,2*%
%TO.N,Q1_connector*%
X123480000Y-138700000D03*
%TO.P,J1,3,3*%
%TO.N,N_connector*%
X128480000Y-138700000D03*
%TO.P,J1,4,4*%
X133480000Y-138700000D03*
%TO.P,J1,5,5*%
%TO.N,L_connector*%
X138480000Y-138700000D03*
%TD*%
D12*
%TO.P,R3,1*%
%TO.N,Net-(Q4-Pad4)*%
X108886000Y-93290500D03*
%TO.P,R3,2*%
%TO.N,Net-(Q2-G)*%
X108886000Y-95115500D03*
%TD*%
D21*
%TO.P,Y1,1,1*%
%TO.N,Net-(IC1-OSC_OUT)*%
X130000000Y-63400000D03*
%TO.P,Y1,2,2*%
%TO.N,GND*%
X128600000Y-63400000D03*
%TO.P,Y1,3,3*%
%TO.N,Net-(IC1-OSC_IN)*%
X128600000Y-64500000D03*
%TO.P,Y1,4,4*%
%TO.N,GND*%
X130000000Y-64500000D03*
%TD*%
D19*
%TO.P,C12,1*%
%TO.N,Net-(IC1-PH3-BOOT0)*%
X136375000Y-75600000D03*
%TO.P,C12,2*%
%TO.N,GND*%
X138100000Y-75600000D03*
%TD*%
D11*
%TO.P,C5,1*%
%TO.N,VDD*%
X125175000Y-77450000D03*
%TO.P,C5,2*%
%TO.N,GND*%
X123450000Y-77450000D03*
%TD*%
D22*
%TO.P,AE1,1,A*%
%TO.N,Net-(AE1-A)*%
X128950000Y-56125000D03*
D23*
%TO.P,AE1,2*%
%TO.N,N/C*%
X126850000Y-56125000D03*
%TD*%
D17*
%TO.P,C3,1*%
%TO.N,VDD*%
X130500000Y-70500000D03*
%TO.P,C3,2*%
%TO.N,GND*%
X130500000Y-68775000D03*
%TD*%
D24*
%TO.P,Q2,1,A1*%
%TO.N,L_connector*%
X117308000Y-103438000D03*
D25*
%TO.P,Q2,2,A2*%
%TO.N,Q2_connector*%
X114768000Y-103438000D03*
%TO.P,Q2,3,G*%
%TO.N,Net-(Q2-G)*%
X112228000Y-103438000D03*
%TD*%
D13*
%TO.P,U2,1*%
%TO.N,Switch_Input_2*%
X101500000Y-66525000D03*
D14*
%TO.P,U2,2*%
%TO.N,Switch_Common*%
X101500000Y-69065000D03*
%TO.P,U2,3*%
%TO.N,GND*%
X109120000Y-69065000D03*
%TO.P,U2,4*%
%TO.N,Net-(IC1-PA1)*%
X109120000Y-66525000D03*
%TD*%
D19*
%TO.P,C9,1*%
%TO.N,VDD*%
X136375000Y-73900000D03*
%TO.P,C9,2*%
%TO.N,GND*%
X138100000Y-73900000D03*
%TD*%
D26*
%TO.P,C8,1*%
%TO.N,VDD*%
X130675000Y-79950000D03*
%TO.P,C8,2*%
%TO.N,GND*%
X130675000Y-81675000D03*
%TD*%
D19*
%TO.P,C11,1*%
%TO.N,Net-(IC1-RF)*%
X134637500Y-71000000D03*
%TO.P,C11,2*%
%TO.N,GND*%
X136362500Y-71000000D03*
%TD*%
D27*
%TO.P,J3,1,1*%
%TO.N,GND*%
X144175000Y-78500000D03*
%TO.P,J3,2,2*%
%TO.N,VDD*%
X144175000Y-77250000D03*
%TO.P,J3,3,3*%
%TO.N,JTCK{slash}SWCLK*%
X144175000Y-76000000D03*
%TO.P,J3,4,4*%
%TO.N,JTMS{slash}SWDIO*%
X144175000Y-74750000D03*
%TO.P,J3,5,5*%
%TO.N,Negated Reset*%
X144175000Y-73500000D03*
D28*
%TO.P,J3,6,6*%
%TO.N,unconnected-(J3-Pad6)*%
X147075000Y-70950000D03*
%TO.P,J3,7,7*%
%TO.N,unconnected-(J3-Pad7)*%
X147075000Y-81050000D03*
%TD*%
D29*
%TO.P,J2,1,1*%
%TO.N,Switch_input_1*%
X94200000Y-73725000D03*
D20*
%TO.P,J2,2,2*%
%TO.N,Switch_Input_2*%
X94200000Y-71185000D03*
%TO.P,J2,3,3*%
%TO.N,Switch_Common*%
X94200000Y-68645000D03*
%TD*%
D11*
%TO.P,C6,1*%
%TO.N,VDD*%
X125175000Y-75450000D03*
%TO.P,C6,2*%
%TO.N,GND*%
X123450000Y-75450000D03*
%TD*%
D26*
%TO.P,C14,1*%
%TO.N,GND*%
X130000000Y-59775000D03*
%TO.P,C14,2*%
%TO.N,Net-(IC1-OSC_OUT)*%
X130000000Y-61500000D03*
%TD*%
D30*
%TO.P,FL1,1,IN*%
%TO.N,Net-(FL1-IN)*%
X135500000Y-61112000D03*
D31*
%TO.P,FL1,2,GND_1*%
%TO.N,GND*%
X135727000Y-60500000D03*
D30*
%TO.P,FL1,3,OUT*%
%TO.N,Net-(AE1-A)*%
X135500000Y-59887000D03*
D31*
%TO.P,FL1,4,GND_2*%
%TO.N,GND*%
X135273000Y-60500000D03*
%TD*%
D32*
%TO.P,U3,1,+V*%
%TO.N,VDD*%
X150620000Y-99000000D03*
%TO.P,U3,2,-V*%
%TO.N,GND*%
X143020000Y-99000000D03*
%TO.P,U3,3,AC/N*%
%TO.N,N_connector*%
X143000000Y-127000000D03*
%TO.P,U3,4,AC/L*%
%TO.N,L_connector*%
X158200000Y-127000000D03*
%TD*%
D12*
%TO.P,R5,1*%
%TO.N,VDD*%
X137080000Y-83384500D03*
%TO.P,R5,2*%
%TO.N,Net-(Q3-Pad1)*%
X137080000Y-85209500D03*
%TD*%
D24*
%TO.P,Q1,1,A1*%
%TO.N,L_connector*%
X129500000Y-103438000D03*
D25*
%TO.P,Q1,2,A2*%
%TO.N,Q1_connector*%
X126960000Y-103438000D03*
%TO.P,Q1,3,G*%
%TO.N,Net-(Q1-G)*%
X124420000Y-103438000D03*
%TD*%
D12*
%TO.P,R2,1*%
%TO.N,Net-(Q3-Pad6)*%
X129400000Y-98687500D03*
%TO.P,R2,2*%
%TO.N,L_connector*%
X129400000Y-100512500D03*
%TD*%
D26*
%TO.P,C7,1*%
%TO.N,VDD*%
X128750000Y-79950000D03*
%TO.P,C7,2*%
%TO.N,GND*%
X128750000Y-81675000D03*
%TD*%
D11*
%TO.P,C16,1*%
%TO.N,VDD*%
X140762500Y-79800000D03*
%TO.P,C16,2*%
%TO.N,GND*%
X139037500Y-79800000D03*
%TD*%
D33*
%TO.P,IC1,1,PB12*%
%TO.N,unconnected-(IC1-PB12-Pad1)*%
X127275000Y-73450000D03*
%TO.P,IC1,2,PA8*%
%TO.N,Motor_output_1*%
X127275000Y-73950000D03*
%TO.P,IC1,3,PA7*%
%TO.N,unconnected-(IC1-PA7-Pad3)*%
X127275000Y-74450000D03*
%TO.P,IC1,4,PA6*%
%TO.N,unconnected-(IC1-PA6-Pad4)*%
X127275000Y-74950000D03*
%TO.P,IC1,5,VDDA*%
%TO.N,VDD*%
X127275000Y-75450000D03*
%TO.P,IC1,6,PA5*%
%TO.N,unconnected-(IC1-PA5-Pad6)*%
X127275000Y-75950000D03*
%TO.P,IC1,7,PA2*%
%TO.N,unconnected-(IC1-PA2-Pad7)*%
X127275000Y-76450000D03*
%TO.P,IC1,8,PA1*%
%TO.N,Net-(IC1-PA1)*%
X127275000Y-76950000D03*
D34*
%TO.P,IC1,9,PA0*%
%TO.N,Net-(IC1-PA0)*%
X127975000Y-77650000D03*
%TO.P,IC1,10,PB9*%
%TO.N,unconnected-(IC1-PB9-Pad10)*%
X128475000Y-77650000D03*
%TO.P,IC1,11,PB8*%
%TO.N,unconnected-(IC1-PB8-Pad11)*%
X128975000Y-77650000D03*
%TO.P,IC1,12,PC15-OSC32_OUT*%
%TO.N,unconnected-(IC1-PC15-OSC32_OUT-Pad12)*%
X129475000Y-77650000D03*
%TO.P,IC1,13,PC14-OSC32_IN*%
%TO.N,unconnected-(IC1-PC14-OSC32_IN-Pad13)*%
X129975000Y-77650000D03*
%TO.P,IC1,14,VDD_1*%
%TO.N,VDD*%
X130475000Y-77650000D03*
%TO.P,IC1,15,PB4*%
%TO.N,unconnected-(IC1-PB4-Pad15)*%
X130975000Y-77650000D03*
%TO.P,IC1,16,PB3*%
%TO.N,unconnected-(IC1-PB3-Pad16)*%
X131475000Y-77650000D03*
D33*
%TO.P,IC1,17,PA15*%
%TO.N,unconnected-(IC1-PA15-Pad17)*%
X132175000Y-76950000D03*
%TO.P,IC1,18,PA14*%
%TO.N,JTCK{slash}SWCLK*%
X132175000Y-76450000D03*
%TO.P,IC1,19,PA13*%
%TO.N,JTMS{slash}SWDIO*%
X132175000Y-75950000D03*
%TO.P,IC1,20,PA12*%
%TO.N,Motor_output_2*%
X132175000Y-75450000D03*
%TO.P,IC1,21,PB15*%
%TO.N,unconnected-(IC1-PB15-Pad21)*%
X132175000Y-74950000D03*
%TO.P,IC1,22,PH3-BOOT0*%
%TO.N,Net-(IC1-PH3-BOOT0)*%
X132175000Y-74450000D03*
%TO.P,IC1,23,VDD_2*%
%TO.N,VDD*%
X132175000Y-73950000D03*
%TO.P,IC1,24,NRST*%
%TO.N,Negated Reset*%
X132175000Y-73450000D03*
D34*
%TO.P,IC1,25,RF*%
%TO.N,Net-(IC1-RF)*%
X131475000Y-72750000D03*
%TO.P,IC1,26,VDDHPA*%
%TO.N,Net-(IC1-VDDHPA)*%
X130975000Y-72750000D03*
%TO.P,IC1,27,VDDRF*%
%TO.N,VDD*%
X130475000Y-72750000D03*
%TO.P,IC1,28,OSC_OUT*%
%TO.N,Net-(IC1-OSC_OUT)*%
X129975000Y-72750000D03*
%TO.P,IC1,29,OSC_IN*%
%TO.N,Net-(IC1-OSC_IN)*%
X129475000Y-72750000D03*
%TO.P,IC1,30,VDDRFPA*%
%TO.N,VDD*%
X128975000Y-72750000D03*
%TO.P,IC1,31,VDD_3*%
X128475000Y-72750000D03*
%TO.P,IC1,32,VCAP*%
%TO.N,Net-(IC1-VCAP)*%
X127975000Y-72750000D03*
D35*
%TO.P,IC1,33,VSS*%
%TO.N,GND*%
X129725000Y-75200000D03*
%TD*%
D15*
%TO.P,D1,1,K*%
%TO.N,Motor_output_1*%
X143000000Y-88500000D03*
D16*
%TO.P,D1,2,A*%
%TO.N,Net-(D1-A)*%
X145540000Y-88500000D03*
%TD*%
D26*
%TO.P,C13,1*%
%TO.N,GND*%
X126000000Y-62675000D03*
%TO.P,C13,2*%
%TO.N,Net-(IC1-OSC_IN)*%
X126000000Y-64400000D03*
%TD*%
D36*
%TO.N,VDD*%
X125600000Y-72000000D03*
X131500000Y-69600000D03*
X133050000Y-79950000D03*
X136300000Y-72700000D03*
%TO.N,Motor_output_2*%
X134500000Y-75400000D03*
X110700000Y-88000000D03*
%TO.N,Motor_output_1*%
X139900000Y-88500000D03*
X124100000Y-73300000D03*
%TO.N,GND*%
X123600000Y-60900000D03*
X136225000Y-63300000D03*
X136500000Y-69500000D03*
X132000000Y-65300000D03*
X121225000Y-68775000D03*
X129725000Y-75200000D03*
X122300000Y-74000000D03*
X139500000Y-73000000D03*
X137100000Y-81675000D03*
X143400000Y-79900000D03*
%TD*%
D37*
%TO.N,Net-(IC1-RF)*%
X134637500Y-71000000D02*
X134637500Y-68637500D01*
X133700000Y-71000000D02*
X134637500Y-71000000D01*
X131950000Y-72750000D02*
X133700000Y-71000000D01*
X134637500Y-68637500D02*
X134500000Y-68500000D01*
X131475000Y-72750000D02*
X131950000Y-72750000D01*
%TO.N,VDD*%
X128975000Y-71950000D02*
X127500000Y-70475000D01*
X136300000Y-73825000D02*
X136375000Y-73900000D01*
X125175000Y-75450000D02*
X123500000Y-73775000D01*
X125175000Y-75450000D02*
X127275000Y-75450000D01*
X125525000Y-70475000D02*
X125500000Y-70500000D01*
X123618000Y-83475500D02*
X124160069Y-83475500D01*
X136300000Y-72700000D02*
X136300000Y-73825000D01*
X124160069Y-83475500D02*
X127684569Y-87000000D01*
X127684569Y-87000000D02*
X131800000Y-87000000D01*
X128750000Y-79950000D02*
X130675000Y-79950000D01*
X128475000Y-71975000D02*
X128475000Y-72750000D01*
X131400000Y-69600000D02*
X130500000Y-70500000D01*
X131500000Y-69600000D02*
X131400000Y-69600000D01*
X150620000Y-99080000D02*
X150620000Y-99000000D01*
X127500000Y-70475000D02*
X127500000Y-70500000D01*
X123500000Y-73775000D02*
X123500000Y-73051471D01*
X131800000Y-87000000D02*
X131800000Y-93200000D01*
X128750000Y-79950000D02*
X131050000Y-79950000D01*
X128975000Y-72750000D02*
X128975000Y-71950000D01*
X125500000Y-70500000D02*
X125500000Y-71900000D01*
X140762500Y-79800000D02*
X144331250Y-83368750D01*
X150600000Y-89637500D02*
X150600000Y-96500000D01*
X135100000Y-96500000D02*
X150600000Y-96500000D01*
X141512500Y-77250000D02*
X144175000Y-77250000D01*
X150600000Y-96500000D02*
X150600000Y-99100000D01*
X130475000Y-79750000D02*
X130675000Y-79950000D01*
X131800000Y-93200000D02*
X135100000Y-96500000D01*
X130675000Y-79950000D02*
X133050000Y-79950000D01*
X125500000Y-71900000D02*
X125600000Y-72000000D01*
X144315500Y-83384500D02*
X144331250Y-83368750D01*
X123064344Y-69737500D02*
X124737500Y-69737500D01*
X130475000Y-72750000D02*
X130475000Y-70525000D01*
X136375000Y-73900000D02*
X136325000Y-73950000D01*
X128000000Y-71500000D02*
X128475000Y-71975000D01*
X124737500Y-69737500D02*
X125500000Y-70500000D01*
X126500000Y-71500000D02*
X128000000Y-71500000D01*
X136325000Y-73950000D02*
X132175000Y-73950000D01*
X127500000Y-70475000D02*
X125525000Y-70475000D01*
X125500000Y-70500000D02*
X126500000Y-71500000D01*
X140762500Y-78000000D02*
X141512500Y-77250000D01*
X137080000Y-83384500D02*
X144315500Y-83384500D01*
X140762500Y-78000000D02*
X140762500Y-79800000D01*
X130475000Y-77650000D02*
X130475000Y-79750000D01*
X123500000Y-73051471D02*
X122800000Y-72351471D01*
X130475000Y-70525000D02*
X130500000Y-70500000D01*
X125175000Y-75450000D02*
X125175000Y-77450000D01*
X150600000Y-99100000D02*
X150620000Y-99080000D01*
X133050000Y-79950000D02*
X133100000Y-80000000D01*
X144331250Y-83368750D02*
X150600000Y-89637500D01*
X122800000Y-70001844D02*
X123064344Y-69737500D01*
X122800000Y-72351471D02*
X122800000Y-70001844D01*
X127684569Y-81015431D02*
X127684569Y-87000000D01*
X128750000Y-79950000D02*
X127684569Y-81015431D01*
%TO.N,Net-(IC1-PH3-BOOT0)*%
X135225000Y-74450000D02*
X136375000Y-75600000D01*
X132175000Y-74450000D02*
X135225000Y-74450000D01*
%TO.N,JTCK{slash}SWCLK*%
X132175000Y-76450000D02*
X133602580Y-76450000D01*
X142175000Y-76925000D02*
X143100000Y-76000000D01*
X134077580Y-76925000D02*
X142175000Y-76925000D01*
X133602580Y-76450000D02*
X134077580Y-76925000D01*
X143100000Y-76000000D02*
X144175000Y-76000000D01*
%TO.N,Net-(IC1-OSC_IN)*%
X126000000Y-64612500D02*
X128487500Y-64612500D01*
X129475000Y-71975000D02*
X129475000Y-72750000D01*
X128487500Y-64612500D02*
X128600000Y-64500000D01*
X128600000Y-64500000D02*
X128600000Y-71100000D01*
X128600000Y-71100000D02*
X129475000Y-71975000D01*
%TO.N,Net-(IC1-OSC_OUT)*%
X129300000Y-71375736D02*
X129975000Y-72050736D01*
X130100000Y-63300000D02*
X130000000Y-63400000D01*
X129975000Y-72050736D02*
X129975000Y-72750000D01*
X130000000Y-63400000D02*
X130000000Y-61500000D01*
X129300000Y-64100000D02*
X129300000Y-71375736D01*
X130000000Y-63400000D02*
X129300000Y-64100000D01*
%TO.N,Net-(IC1-PA1)*%
X126050000Y-79450000D02*
X127275000Y-78225000D01*
X109120000Y-66525000D02*
X122045000Y-79450000D01*
X127275000Y-78225000D02*
X127275000Y-76950000D01*
X122045000Y-79450000D02*
X126050000Y-79450000D01*
%TO.N,Motor_output_2*%
X132175000Y-75450000D02*
X134450000Y-75450000D01*
X134450000Y-75450000D02*
X134500000Y-75400000D01*
X108040000Y-88000000D02*
X110700000Y-88000000D01*
%TO.N,Motor_output_1*%
X124750000Y-73950000D02*
X127275000Y-73950000D01*
X143000000Y-88500000D02*
X139900000Y-88500000D01*
X124100000Y-73300000D02*
X124750000Y-73950000D01*
%TO.N,JTMS{slash}SWDIO*%
X143000000Y-74750000D02*
X144175000Y-74750000D01*
X132175000Y-75950000D02*
X133526844Y-75950000D01*
X133526844Y-75950000D02*
X134201844Y-76625000D01*
X134201844Y-76625000D02*
X141125000Y-76625000D01*
X141125000Y-76625000D02*
X143000000Y-74750000D01*
%TO.N,Net-(IC1-PA0)*%
X127975000Y-78125000D02*
X127975000Y-77650000D01*
X114845000Y-79750000D02*
X126350000Y-79750000D01*
X126350000Y-79750000D02*
X127975000Y-78125000D01*
X109120000Y-74025000D02*
X114845000Y-79750000D01*
%TO.N,Negated Reset*%
X133675000Y-71950000D02*
X142625000Y-71950000D01*
X132175000Y-73450000D02*
X133675000Y-71950000D01*
X142625000Y-71950000D02*
X144175000Y-73500000D01*
%TO.N,GND*%
X127500000Y-68750000D02*
X125525000Y-68750000D01*
X139037500Y-79800000D02*
X139037500Y-78000000D01*
X136362500Y-69637500D02*
X136500000Y-69500000D01*
X121225000Y-68775000D02*
X121200000Y-68800000D01*
X131200000Y-64500000D02*
X130000000Y-64500000D01*
X139037500Y-79800000D02*
X137162500Y-81675000D01*
X128600000Y-61175000D02*
X130000000Y-59775000D01*
X144175000Y-78500000D02*
X144175000Y-79125000D01*
X136225000Y-63300000D02*
X136225000Y-60998000D01*
X128600000Y-63400000D02*
X128600000Y-61175000D01*
X132500000Y-68775000D02*
X130500000Y-68775000D01*
X132000000Y-65300000D02*
X131200000Y-64500000D01*
X136225000Y-60998000D02*
X135727000Y-60500000D01*
X130000000Y-68275000D02*
X130500000Y-68775000D01*
X123450000Y-75450000D02*
X123450000Y-77450000D01*
X123600000Y-60900000D02*
X126100000Y-60900000D01*
X128750000Y-81675000D02*
X130675000Y-81675000D01*
X126100000Y-60900000D02*
X128600000Y-63400000D01*
X125500000Y-68775000D02*
X123500000Y-68775000D01*
X138100000Y-75600000D02*
X138100000Y-73900000D01*
X122300000Y-74000000D02*
X123450000Y-75150000D01*
X125375000Y-62675000D02*
X123600000Y-60900000D01*
X123500000Y-68775000D02*
X121225000Y-68775000D01*
X126000000Y-62675000D02*
X125375000Y-62675000D01*
X144175000Y-79125000D02*
X143400000Y-79900000D01*
X137100000Y-81675000D02*
X130675000Y-81675000D01*
X137162500Y-81675000D02*
X137100000Y-81675000D01*
X130000000Y-64500000D02*
X130000000Y-68275000D01*
X138100000Y-73900000D02*
X138637500Y-73900000D01*
X136362500Y-71000000D02*
X136362500Y-69637500D01*
X138637500Y-73900000D02*
X139500000Y-73037500D01*
X136225000Y-64500000D02*
X136225000Y-63300000D01*
X125525000Y-68750000D02*
X125500000Y-68775000D01*
X139500000Y-73037500D02*
X139500000Y-73000000D01*
X135273000Y-60500000D02*
X135727000Y-60500000D01*
X123450000Y-75150000D02*
X123450000Y-75450000D01*
%TO.N,Net-(FL1-IN)*%
X134500000Y-66750000D02*
X134500000Y-64500000D01*
X134500000Y-64500000D02*
X134500000Y-62112000D01*
X134500000Y-62112000D02*
X135500000Y-61112000D01*
%TO.N,Net-(D1-A)*%
X135800000Y-91485000D02*
X144415000Y-91485000D01*
X145540000Y-90360000D02*
X145540000Y-88500000D01*
X144415000Y-91485000D02*
X145540000Y-90360000D01*
%TO.N,Net-(D2-A)*%
X107900000Y-85600000D02*
X105500000Y-88000000D01*
X115915000Y-85600000D02*
X107900000Y-85600000D01*
X121800000Y-91485000D02*
X115915000Y-85600000D01*
%TO.N,Net-(AE1-A)*%
X131738000Y-56125000D02*
X135500000Y-59887000D01*
X128950000Y-56125000D02*
X131738000Y-56125000D01*
D38*
%TO.N,Q1_connector*%
X126960000Y-135220000D02*
X123480000Y-138700000D01*
X126960000Y-103438000D02*
X126960000Y-135220000D01*
%TO.N,L_connector*%
X129500000Y-103438000D02*
X129500000Y-100612500D01*
X129500000Y-100612500D02*
X129400000Y-100512500D01*
X137105000Y-140075000D02*
X138480000Y-138700000D01*
X150180000Y-127000000D02*
X158200000Y-127000000D01*
X122910456Y-140075000D02*
X137105000Y-140075000D01*
X117308000Y-100433000D02*
X117200000Y-100325000D01*
X117308000Y-134472544D02*
X122910456Y-140075000D01*
X138480000Y-138700000D02*
X150180000Y-127000000D01*
X129500000Y-106320000D02*
X150180000Y-127000000D01*
X129500000Y-103438000D02*
X129500000Y-106320000D01*
X117308000Y-103438000D02*
X117308000Y-134472544D01*
X117308000Y-103438000D02*
X117308000Y-100433000D01*
%TO.N,Q2_connector*%
X114768000Y-103438000D02*
X114768000Y-134988000D01*
X114768000Y-134988000D02*
X118480000Y-138700000D01*
%TO.N,N_connector*%
X143000000Y-127000000D02*
X142900000Y-127100000D01*
X142900000Y-127100000D02*
X142900000Y-129280000D01*
X128480000Y-138700000D02*
X133480000Y-138700000D01*
X142900000Y-129280000D02*
X133480000Y-138700000D01*
%TO.N,Switch_Input_2*%
X92100000Y-66600000D02*
X92175000Y-66525000D01*
X92100000Y-69085000D02*
X92100000Y-66600000D01*
X92175000Y-66525000D02*
X101500000Y-66525000D01*
X94200000Y-71185000D02*
X92100000Y-69085000D01*
%TO.N,Switch_Common*%
X103365000Y-69065000D02*
X104100000Y-69800000D01*
X104100000Y-75400000D02*
X102935000Y-76565000D01*
X102935000Y-76565000D02*
X101500000Y-76565000D01*
X100665000Y-69900000D02*
X101500000Y-69065000D01*
X104100000Y-69800000D02*
X104100000Y-75400000D01*
X94200000Y-68645000D02*
X95455000Y-69900000D01*
X101500000Y-69065000D02*
X103365000Y-69065000D01*
X95455000Y-69900000D02*
X100665000Y-69900000D01*
%TO.N,Switch_input_1*%
X99525000Y-76000000D02*
X101500000Y-74025000D01*
X94200000Y-75100000D02*
X95100000Y-76000000D01*
X94200000Y-73725000D02*
X94200000Y-75100000D01*
X95100000Y-76000000D02*
X99525000Y-76000000D01*
%TO.N,Net-(Q1-G)*%
X124420000Y-103438000D02*
X124420000Y-95486500D01*
X124420000Y-95486500D02*
X125142000Y-94764500D01*
%TO.N,Net-(Q2-G)*%
X112228000Y-98457500D02*
X108886000Y-95115500D01*
X112228000Y-103438000D02*
X112228000Y-98457500D01*
D37*
%TO.N,Net-(Q3-Pad1)*%
X136590500Y-85209500D02*
X133700000Y-88100000D01*
X137080000Y-85209500D02*
X136590500Y-85209500D01*
X134625000Y-94025000D02*
X135800000Y-94025000D01*
X133700000Y-88100000D02*
X133700000Y-93100000D01*
X133700000Y-93100000D02*
X134625000Y-94025000D01*
D38*
%TO.N,Net-(Q3-Pad6)*%
X129400000Y-95245000D02*
X128180000Y-94025000D01*
X129400000Y-98687500D02*
X129400000Y-95245000D01*
%TO.N,Net-(Q3-Pad4)*%
X125142000Y-91983000D02*
X128180000Y-88945000D01*
X125142000Y-92939500D02*
X125142000Y-91983000D01*
%TO.N,Net-(Q4-Pad6)*%
X117200000Y-98500000D02*
X117200000Y-95100000D01*
X116125000Y-94025000D02*
X114180000Y-94025000D01*
X117200000Y-95100000D02*
X116125000Y-94025000D01*
%TO.N,Net-(Q4-Pad4)*%
X108886000Y-92314000D02*
X112255000Y-88945000D01*
X112255000Y-88945000D02*
X114180000Y-88945000D01*
X108886000Y-93290500D02*
X108886000Y-92314000D01*
D37*
%TO.N,Net-(Q4-Pad1)*%
X121800000Y-94025000D02*
X123618000Y-92207000D01*
X123618000Y-92207000D02*
X123618000Y-85300500D01*
%TO.N,Net-(IC1-VCAP)*%
X123500000Y-70500000D02*
X123500000Y-71250000D01*
X125000000Y-72750000D02*
X127975000Y-72750000D01*
X123500000Y-71250000D02*
X125000000Y-72750000D01*
%TO.N,Net-(IC1-VDDHPA)*%
X130975000Y-72750000D02*
X130975000Y-72025000D01*
X130975000Y-72025000D02*
X132500000Y-70500000D01*
%TD*%
M02*
