M48
; DRILL file {KiCad 8.0.7-unknown-202412152340~ed5068829f~ubuntu24.04.1} date 2025-01-04T16:17:28+0100
; FORMAT={-:-/ absolute / metric / decimal}
; #@! TF.CreationDate,2025-01-04T16:17:28+01:00
; #@! TF.GenerationSoftware,Kicad,Pcbnew,8.0.7-unknown-202412152340~ed5068829f~ubuntu24.04.1
; #@! TF.FileFunction,Plated,1,2,PTH
FMAT,2
METRIC
; #@! TA.AperFunction,Plated,PTH,ComponentDrill
T1C0.300
; #@! TA.AperFunction,Plated,PTH,ViaDrill
T2C0.500
; #@! TA.AperFunction,Plated,PTH,ComponentDrill
T3C0.800
; #@! TA.AperFunction,Plated,PTH,ComponentDrill
T4C0.900
; #@! TA.AperFunction,Plated,PTH,ComponentDrill
T5C1.100
%
G90
G05
T1
X126.85Y-56.125
T2
X110.7Y-88.0
X121.225Y-68.775
X122.3Y-74.0
X123.6Y-60.9
X124.1Y-73.3
X125.6Y-72.0
X129.725Y-75.2
X131.5Y-69.6
X132.0Y-65.3
X133.05Y-79.95
X134.5Y-75.4
X136.225Y-63.3
X136.3Y-72.7
X136.5Y-69.5
X137.1Y-81.675
X139.5Y-73.0
X139.9Y-88.5
X143.4Y-79.9
T3
X101.5Y-66.525
X101.5Y-69.065
X101.5Y-74.025
X101.5Y-76.565
X109.12Y-66.525
X109.12Y-69.065
X109.12Y-74.025
X109.12Y-76.565
X114.18Y-88.945
X114.18Y-91.485
X114.18Y-94.025
X121.8Y-88.945
X121.8Y-91.485
X121.8Y-94.025
X128.18Y-88.945
X128.18Y-91.485
X128.18Y-94.025
X135.8Y-88.945
X135.8Y-91.485
X135.8Y-94.025
T4
X105.5Y-88.0
X108.04Y-88.0
X143.0Y-88.5
X143.0Y-127.0
X143.02Y-99.0
X145.54Y-88.5
X150.62Y-99.0
X158.2Y-127.0
T5
X94.2Y-68.645
X94.2Y-71.185
X94.2Y-73.725
X112.228Y-103.438
X114.768Y-103.438
X117.308Y-103.438
X118.48Y-138.7
X123.48Y-138.7
X124.42Y-103.438
X126.96Y-103.438
X128.48Y-138.7
X129.5Y-103.438
X133.48Y-138.7
X138.48Y-138.7
M30
