%TF.GenerationSoftware,KiCad,Pcbnew,8.0.7-unknown-202412152340~ed5068829f~ubuntu24.04.1*%
%TF.CreationDate,2025-01-04T16:16:45+01:00*%
%TF.ProjectId,sterownik_rolety_Zigbee,73746572-6f77-46e6-996b-5f726f6c6574,rev?*%
%TF.SameCoordinates,Original*%
%TF.FileFunction,Soldermask,Bot*%
%TF.FilePolarity,Negative*%
%FSLAX46Y46*%
G04 Gerber Fmt 4.6, Leading zero omitted, Abs format (unit mm)*
G04 Created by KiCad (PCBNEW 8.0.7-unknown-202412152340~ed5068829f~ubuntu24.04.1) date 2025-01-04 16:16:45*
%MOMM*%
%LPD*%
G01*
G04 APERTURE LIST*
%ADD10R,1.600000X1.600000*%
%ADD11O,1.600000X1.600000*%
%ADD12R,1.800000X1.800000*%
%ADD13C,1.800000*%
%ADD14C,1.650000*%
%ADD15R,1.905000X2.000000*%
%ADD16O,1.905000X2.000000*%
%ADD17C,1.100000*%
%ADD18R,1.650000X1.650000*%
%ADD19C,4.500000*%
%ADD20C,1.400000*%
G04 APERTURE END LIST*
D10*
%TO.C,Q3*%
X135800000Y-94025000D03*
D11*
X135800000Y-91485000D03*
X135800000Y-88945000D03*
X128180000Y-88945000D03*
X128180000Y-91485000D03*
X128180000Y-94025000D03*
%TD*%
D12*
%TO.C,D2*%
X108040000Y-88000000D03*
D13*
X105500000Y-88000000D03*
%TD*%
D10*
%TO.C,Q4*%
X121800000Y-94025000D03*
D11*
X121800000Y-91485000D03*
X121800000Y-88945000D03*
X114180000Y-88945000D03*
X114180000Y-91485000D03*
X114180000Y-94025000D03*
%TD*%
D10*
%TO.C,U1*%
X101500000Y-74025000D03*
D11*
X101500000Y-76565000D03*
X109120000Y-76565000D03*
X109120000Y-74025000D03*
%TD*%
D14*
%TO.C,J1*%
X118480000Y-138700000D03*
X123480000Y-138700000D03*
X128480000Y-138700000D03*
X133480000Y-138700000D03*
X138480000Y-138700000D03*
%TD*%
D15*
%TO.C,Q2*%
X117308000Y-103438000D03*
D16*
X114768000Y-103438000D03*
X112228000Y-103438000D03*
%TD*%
D10*
%TO.C,U2*%
X101500000Y-66525000D03*
D11*
X101500000Y-69065000D03*
X109120000Y-69065000D03*
X109120000Y-66525000D03*
%TD*%
D17*
%TO.C,J2*%
X96740000Y-73725000D03*
X96740000Y-71185000D03*
X96740000Y-68645000D03*
D18*
X94200000Y-73725000D03*
D14*
X94200000Y-71185000D03*
X94200000Y-68645000D03*
%TD*%
D19*
%TO.C,U3*%
X150600000Y-105500000D03*
X150600000Y-120500000D03*
D20*
X150620000Y-99000000D03*
X143020000Y-99000000D03*
X143000000Y-127000000D03*
X158200000Y-127000000D03*
%TD*%
D15*
%TO.C,Q1*%
X129500000Y-103438000D03*
D16*
X126960000Y-103438000D03*
X124420000Y-103438000D03*
%TD*%
D12*
%TO.C,D1*%
X143000000Y-88500000D03*
D13*
X145540000Y-88500000D03*
%TD*%
M02*
