%TF.GenerationSoftware,KiCad,Pcbnew,8.0.7-unknown-202412152340~ed5068829f~ubuntu24.04.1*%
%TF.CreationDate,2025-01-05T18:10:25+01:00*%
%TF.ProjectId,sterownik_rolety_Zigbee,73746572-6f77-46e6-996b-5f726f6c6574,rev?*%
%TF.SameCoordinates,Original*%
%TF.FileFunction,Copper,L2,Bot*%
%TF.FilePolarity,Positive*%
%FSLAX46Y46*%
G04 Gerber Fmt 4.6, Leading zero omitted, Abs format (unit mm)*
G04 Created by KiCad (PCBNEW 8.0.7-unknown-202412152340~ed5068829f~ubuntu24.04.1) date 2025-01-05 18:10:25*
%MOMM*%
%LPD*%
G01*
G04 APERTURE LIST*
G04 Aperture macros list*
%AMRoundRect*
0 Rectangle with rounded corners*
0 $1 Rounding radius*
0 $2 $3 $4 $5 $6 $7 $8 $9 X,Y pos of 4 corners*
0 Add a 4 corners polygon primitive as box body*
4,1,4,$2,$3,$4,$5,$6,$7,$8,$9,$2,$3,0*
0 Add four circle primitives for the rounded corners*
1,1,$1+$1,$2,$3*
1,1,$1+$1,$4,$5*
1,1,$1+$1,$6,$7*
1,1,$1+$1,$8,$9*
0 Add four rect primitives between the rounded corners*
20,1,$1+$1,$2,$3,$4,$5,0*
20,1,$1+$1,$4,$5,$6,$7,0*
20,1,$1+$1,$6,$7,$8,$9,0*
20,1,$1+$1,$8,$9,$2,$3,0*%
%AMHorizOval*
0 Thick line with rounded ends*
0 $1 width*
0 $2 $3 position (X,Y) of the first rounded end (center of the circle)*
0 $4 $5 position (X,Y) of the second rounded end (center of the circle)*
0 Add line between two ends*
20,1,$1,$2,$3,$4,$5,0*
0 Add two circle primitives to create the rounded ends*
1,1,$1,$2,$3*
1,1,$1,$4,$5*%
%AMRotRect*
0 Rectangle, with rotation*
0 The origin of the aperture is its center*
0 $1 length*
0 $2 width*
0 $3 Rotation angle, in degrees counterclockwise*
0 Add horizontal line*
21,1,$1,$2,0,0,$3*%
G04 Aperture macros list end*
%TA.AperFunction,SMDPad,CuDef*%
%ADD10RoundRect,0.237500X0.287500X0.237500X-0.287500X0.237500X-0.287500X-0.237500X0.287500X-0.237500X0*%
%TD*%
%TA.AperFunction,ComponentPad*%
%ADD11C,1.650000*%
%TD*%
%TA.AperFunction,SMDPad,CuDef*%
%ADD12RoundRect,0.237500X-0.287500X-0.237500X0.287500X-0.237500X0.287500X0.237500X-0.287500X0.237500X0*%
%TD*%
%TA.AperFunction,ComponentPad*%
%ADD13RotRect,1.905000X2.000000X240.000000*%
%TD*%
%TA.AperFunction,ComponentPad*%
%ADD14HorizOval,1.905000X-0.041136X0.023750X0.041136X-0.023750X0*%
%TD*%
%TA.AperFunction,ComponentPad*%
%ADD15R,1.650000X1.650000*%
%TD*%
%TA.AperFunction,ComponentPad*%
%ADD16RotRect,1.905000X2.000000X120.000000*%
%TD*%
%TA.AperFunction,ComponentPad*%
%ADD17HorizOval,1.905000X0.041136X0.023750X-0.041136X-0.023750X0*%
%TD*%
%TA.AperFunction,ComponentPad*%
%ADD18R,2.000000X2.000000*%
%TD*%
%TA.AperFunction,ComponentPad*%
%ADD19C,2.000000*%
%TD*%
%TA.AperFunction,ViaPad*%
%ADD20C,0.750000*%
%TD*%
%TA.AperFunction,Conductor*%
%ADD21C,0.150000*%
%TD*%
%TA.AperFunction,Conductor*%
%ADD22C,0.800000*%
%TD*%
G04 APERTURE END LIST*
D10*
%TO.P,D1,1,K*%
%TO.N,Motor_output_1*%
X109750000Y-80250000D03*
%TO.P,D1,2,A*%
%TO.N,Net-(D1-A)*%
X108000000Y-80250000D03*
%TD*%
D11*
%TO.P,J1,1,1*%
%TO.N,Q2_connector*%
X136600000Y-94500000D03*
%TO.P,J1,2,2*%
%TO.N,Q1_connector*%
X131600000Y-94500000D03*
%TO.P,J1,3,3*%
%TO.N,N_connector*%
X126600000Y-94500000D03*
%TO.P,J1,4,4*%
X121600000Y-94500000D03*
%TO.P,J1,5,5*%
%TO.N,L_connector*%
X116600000Y-94500000D03*
%TD*%
D12*
%TO.P,D2,1,K*%
%TO.N,Motor_output_2*%
X143125000Y-80000000D03*
%TO.P,D2,2,A*%
%TO.N,Net-(D2-A)*%
X144875000Y-80000000D03*
%TD*%
D13*
%TO.P,Q2,1,A1*%
%TO.N,L_connector*%
X145329999Y-90199705D03*
D14*
%TO.P,Q2,2,A2*%
%TO.N,Q2_connector*%
X146600000Y-88000000D03*
%TO.P,Q2,3,G*%
%TO.N,Net-(Q2-G)*%
X147869999Y-85800295D03*
%TD*%
D15*
%TO.P,J2,1,1*%
%TO.N,Switch_input_1*%
X122260000Y-56060000D03*
D11*
%TO.P,J2,2,2*%
%TO.N,Switch_Input_2*%
X124800000Y-56060000D03*
%TO.P,J2,3,3*%
%TO.N,Switch_Common*%
X127340000Y-56060000D03*
%TD*%
D16*
%TO.P,Q1,1,A1*%
%TO.N,L_connector*%
X108800000Y-90800000D03*
D17*
%TO.P,Q1,2,A2*%
%TO.N,Q1_connector*%
X107529999Y-88600295D03*
%TO.P,Q1,3,G*%
%TO.N,Net-(Q1-G)*%
X106260000Y-86400590D03*
%TD*%
D18*
%TO.P,PS1,1,AC(L)*%
%TO.N,L_connector*%
X130170000Y-85002500D03*
D19*
%TO.P,PS1,2,AC(N)*%
%TO.N,N_connector*%
X134070000Y-85002500D03*
%TO.P,PS1,3,NC*%
%TO.N,unconnected-(PS1-NC-Pad3)*%
X113770000Y-64242500D03*
%TO.P,PS1,4,-Vout*%
%TO.N,GND*%
X125200000Y-64242500D03*
%TO.P,PS1,5,+Vout*%
%TO.N,VDD*%
X135360000Y-64242500D03*
%TD*%
D20*
%TO.N,VDD*%
X120200000Y-84600000D03*
X129250000Y-69425000D03*
X131650000Y-75325000D03*
X121300000Y-76200000D03*
X117800000Y-83000000D03*
X128550000Y-80125000D03*
%TO.N,Motor_output_2*%
X125850000Y-78325000D03*
%TO.N,Motor_output_1*%
X127400000Y-69800000D03*
%TO.N,GND*%
X128400000Y-64200000D03*
X141600000Y-71000000D03*
X123800000Y-66000000D03*
X141600000Y-71000000D03*
X118400000Y-72600000D03*
X133800000Y-76300000D03*
X118400000Y-74600000D03*
X131750000Y-80325000D03*
X136700000Y-76600000D03*
X135100000Y-80000000D03*
X132800000Y-66100000D03*
X117400000Y-67600000D03*
X126050000Y-73550000D03*
X142600000Y-72200000D03*
X141600000Y-71000000D03*
X125800000Y-66000000D03*
X128250000Y-83325000D03*
X133800000Y-74300000D03*
X113600000Y-74000000D03*
%TO.N,Net-(D1-A)*%
X107600000Y-82000000D03*
%TO.N,Net-(D2-A)*%
X146300000Y-80000000D03*
%TD*%
D21*
%TO.N,VDD*%
X128550000Y-80125000D02*
X128550000Y-78425000D01*
X131650000Y-73201471D02*
X135360000Y-69491471D01*
X128550000Y-78425000D02*
X131650000Y-75325000D01*
X117800000Y-83000000D02*
X120200000Y-80600000D01*
X120200000Y-80600000D02*
X121300000Y-79500000D01*
X121300000Y-79500000D02*
X121300000Y-76200000D01*
X131650000Y-75325000D02*
X131650000Y-73201471D01*
X120200000Y-84600000D02*
X120200000Y-80600000D01*
X135360000Y-69491471D02*
X135360000Y-64242500D01*
%TO.N,Motor_output_2*%
X128450000Y-80925000D02*
X125850000Y-78325000D01*
X143125000Y-80000000D02*
X142200000Y-80925000D01*
X142200000Y-80925000D02*
X128450000Y-80925000D01*
%TO.N,Motor_output_1*%
X115625000Y-80250000D02*
X109750000Y-80250000D01*
X127400000Y-69800000D02*
X126075000Y-69800000D01*
X126075000Y-69800000D02*
X115625000Y-80250000D01*
%TO.N,GND*%
X118400000Y-72600000D02*
X118400000Y-73000000D01*
X118400000Y-74600000D02*
X118600000Y-74400000D01*
%TO.N,Net-(D1-A)*%
X108000000Y-81600000D02*
X108000000Y-80250000D01*
X107600000Y-82000000D02*
X108000000Y-81600000D01*
%TO.N,Net-(D2-A)*%
X146300000Y-80000000D02*
X144900000Y-80000000D01*
D22*
%TO.N,Q1_connector*%
X115200295Y-94476955D02*
X115200295Y-95044839D01*
X116030456Y-95875000D02*
X130225000Y-95875000D01*
X107529999Y-88600295D02*
X109323635Y-88600295D01*
X130225000Y-95875000D02*
X131600000Y-94500000D01*
X115200295Y-95044839D02*
X116030456Y-95875000D01*
X109323635Y-88600295D02*
X115200295Y-94476955D01*
%TO.N,Q2_connector*%
X143100000Y-88000000D02*
X146600000Y-88000000D01*
X136600000Y-94500000D02*
X143100000Y-88000000D01*
%TD*%
%TA.AperFunction,Conductor*%
%TO.N,GND*%
G36*
X127694094Y-52370522D02*
G01*
X127699021Y-52370720D01*
X128689035Y-52430605D01*
X128693976Y-52431004D01*
X129680752Y-52530702D01*
X129685686Y-52531301D01*
X130667637Y-52670650D01*
X130672534Y-52671446D01*
X131648086Y-52850222D01*
X131652970Y-52851219D01*
X132620513Y-53069127D01*
X132625340Y-53070317D01*
X133583373Y-53327022D01*
X133588122Y-53328398D01*
X134535011Y-53623460D01*
X134539687Y-53625021D01*
X135473969Y-53957987D01*
X135478578Y-53959735D01*
X136398682Y-54330045D01*
X136403221Y-54331978D01*
X137297589Y-54734500D01*
X137307650Y-54739028D01*
X137312153Y-54741165D01*
X138199445Y-55184297D01*
X138203845Y-55186606D01*
X139072571Y-55665104D01*
X139076876Y-55667589D01*
X139925646Y-56180689D01*
X139929817Y-56183326D01*
X140171084Y-56342785D01*
X140216158Y-56396170D01*
X140225215Y-56465451D01*
X140195378Y-56528629D01*
X140187522Y-56536695D01*
X135000000Y-61400000D01*
X135986935Y-62629340D01*
X136013554Y-62693940D01*
X136001021Y-62762677D01*
X135953317Y-62813726D01*
X135885586Y-62830881D01*
X135849977Y-62824249D01*
X135729616Y-62782929D01*
X135484335Y-62742000D01*
X135235665Y-62742000D01*
X134990383Y-62782929D01*
X134755197Y-62863669D01*
X134755188Y-62863672D01*
X134536493Y-62982024D01*
X134340257Y-63134761D01*
X134171833Y-63317717D01*
X134035826Y-63525893D01*
X133935936Y-63753618D01*
X133874892Y-63994675D01*
X133874890Y-63994687D01*
X133854357Y-64242494D01*
X133854357Y-64242505D01*
X133874890Y-64490312D01*
X133874892Y-64490324D01*
X133935936Y-64731381D01*
X134035826Y-64959106D01*
X134171833Y-65167282D01*
X134171836Y-65167285D01*
X134340256Y-65350238D01*
X134536491Y-65502974D01*
X134536494Y-65502976D01*
X134536496Y-65502977D01*
X134719517Y-65602023D01*
X134769108Y-65651243D01*
X134784500Y-65711078D01*
X134784500Y-69201729D01*
X134764815Y-69268768D01*
X134748181Y-69289410D01*
X131189487Y-72848103D01*
X131189485Y-72848106D01*
X131113719Y-72979334D01*
X131074500Y-73125705D01*
X131074500Y-74608145D01*
X131054815Y-74675184D01*
X131042650Y-74691117D01*
X130937804Y-74807561D01*
X130845786Y-74966940D01*
X130845783Y-74966946D01*
X130798984Y-75110982D01*
X130788915Y-75141971D01*
X130777741Y-75248288D01*
X130769678Y-75325000D01*
X130769815Y-75326301D01*
X130769678Y-75327050D01*
X130769678Y-75331498D01*
X130768865Y-75331498D01*
X130757245Y-75395031D01*
X130734175Y-75426943D01*
X128196635Y-77964485D01*
X128089487Y-78071632D01*
X128089485Y-78071635D01*
X128013719Y-78202863D01*
X127974500Y-78349234D01*
X127974500Y-79336259D01*
X127954815Y-79403298D01*
X127902011Y-79449053D01*
X127832853Y-79458997D01*
X127769297Y-79429972D01*
X127762819Y-79423940D01*
X126765824Y-78426945D01*
X126732339Y-78365622D01*
X126730471Y-78331500D01*
X126730322Y-78331500D01*
X126730322Y-78328771D01*
X126730186Y-78326291D01*
X126730322Y-78325000D01*
X126711085Y-78141971D01*
X126654214Y-77966941D01*
X126562195Y-77807560D01*
X126439050Y-77670793D01*
X126439048Y-77670791D01*
X126290165Y-77562621D01*
X126290162Y-77562619D01*
X126290161Y-77562619D01*
X126229112Y-77535438D01*
X126122038Y-77487765D01*
X126122033Y-77487763D01*
X125942019Y-77449500D01*
X125757981Y-77449500D01*
X125577966Y-77487763D01*
X125577961Y-77487765D01*
X125409839Y-77562619D01*
X125409834Y-77562621D01*
X125260951Y-77670791D01*
X125260949Y-77670793D01*
X125137804Y-77807561D01*
X125045786Y-77966940D01*
X125045783Y-77966946D01*
X124988916Y-78141967D01*
X124988915Y-78141971D01*
X124969678Y-78325000D01*
X124988915Y-78508029D01*
X124988916Y-78508032D01*
X125045783Y-78683053D01*
X125045786Y-78683059D01*
X125137805Y-78842440D01*
X125247327Y-78964077D01*
X125260949Y-78979206D01*
X125260951Y-78979208D01*
X125409834Y-79087378D01*
X125409835Y-79087378D01*
X125409839Y-79087381D01*
X125493210Y-79124500D01*
X125577961Y-79162234D01*
X125577966Y-79162236D01*
X125757981Y-79200500D01*
X125860258Y-79200500D01*
X125927297Y-79220185D01*
X125947939Y-79236819D01*
X127985144Y-81274023D01*
X127985154Y-81274034D01*
X127989484Y-81278364D01*
X127989485Y-81278365D01*
X128096635Y-81385515D01*
X128227865Y-81461281D01*
X128374233Y-81500500D01*
X128374234Y-81500500D01*
X128374235Y-81500500D01*
X142275764Y-81500500D01*
X142275766Y-81500500D01*
X142422135Y-81461281D01*
X142553365Y-81385515D01*
X142927061Y-81011817D01*
X142988384Y-80978333D01*
X143014742Y-80975499D01*
X143461670Y-80975499D01*
X143461676Y-80975499D01*
X143562753Y-80965174D01*
X143726516Y-80910908D01*
X143873350Y-80820340D01*
X143912319Y-80781371D01*
X143973642Y-80747886D01*
X144043334Y-80752870D01*
X144087681Y-80781371D01*
X144126650Y-80820340D01*
X144273484Y-80910908D01*
X144437247Y-80965174D01*
X144538323Y-80975500D01*
X145211676Y-80975499D01*
X145211684Y-80975498D01*
X145211687Y-80975498D01*
X145267030Y-80969844D01*
X145312753Y-80965174D01*
X145476516Y-80910908D01*
X145623350Y-80820340D01*
X145681551Y-80762138D01*
X145742870Y-80728656D01*
X145812562Y-80733640D01*
X145842113Y-80749503D01*
X145846748Y-80752870D01*
X145859839Y-80762381D01*
X145990017Y-80820340D01*
X146027961Y-80837234D01*
X146027966Y-80837236D01*
X146207981Y-80875500D01*
X146392019Y-80875500D01*
X146572034Y-80837236D01*
X146740161Y-80762381D01*
X146889050Y-80654207D01*
X147012195Y-80517440D01*
X147104214Y-80358059D01*
X147161085Y-80183029D01*
X147180322Y-80000000D01*
X147161085Y-79816971D01*
X147104214Y-79641941D01*
X147012195Y-79482560D01*
X146889050Y-79345793D01*
X146889048Y-79345791D01*
X146740165Y-79237621D01*
X146740162Y-79237619D01*
X146740161Y-79237619D01*
X146678707Y-79210258D01*
X146572038Y-79162765D01*
X146572033Y-79162763D01*
X146392019Y-79124500D01*
X146207981Y-79124500D01*
X146027966Y-79162763D01*
X145859841Y-79237617D01*
X145842108Y-79250500D01*
X145776301Y-79273975D01*
X145708248Y-79258146D01*
X145681548Y-79237858D01*
X145623351Y-79179661D01*
X145623350Y-79179660D01*
X145484465Y-79093995D01*
X145476518Y-79089093D01*
X145476513Y-79089091D01*
X145471350Y-79087380D01*
X145312753Y-79034826D01*
X145312751Y-79034825D01*
X145211678Y-79024500D01*
X144538330Y-79024500D01*
X144538312Y-79024501D01*
X144437247Y-79034825D01*
X144273484Y-79089092D01*
X144273481Y-79089093D01*
X144126648Y-79179661D01*
X144087681Y-79218629D01*
X144026358Y-79252114D01*
X143956666Y-79247130D01*
X143912319Y-79218629D01*
X143873351Y-79179661D01*
X143873350Y-79179660D01*
X143734465Y-79093995D01*
X143726518Y-79089093D01*
X143726513Y-79089091D01*
X143721350Y-79087380D01*
X143562753Y-79034826D01*
X143562751Y-79034825D01*
X143461678Y-79024500D01*
X142788330Y-79024500D01*
X142788312Y-79024501D01*
X142687247Y-79034825D01*
X142523484Y-79089092D01*
X142523481Y-79089093D01*
X142376648Y-79179661D01*
X142254661Y-79301648D01*
X142164093Y-79448481D01*
X142164091Y-79448486D01*
X142156699Y-79470793D01*
X142109826Y-79612247D01*
X142109826Y-79612248D01*
X142109825Y-79612248D01*
X142099500Y-79713315D01*
X142099500Y-80160256D01*
X142079815Y-80227295D01*
X142063182Y-80247937D01*
X141997939Y-80313181D01*
X141936616Y-80346666D01*
X141910257Y-80349500D01*
X129544442Y-80349500D01*
X129477403Y-80329815D01*
X129431648Y-80277011D01*
X129421121Y-80212538D01*
X129421218Y-80211619D01*
X129430322Y-80125000D01*
X129411085Y-79941971D01*
X129354214Y-79766941D01*
X129262195Y-79607560D01*
X129181633Y-79518087D01*
X129157350Y-79491117D01*
X129127120Y-79428125D01*
X129125500Y-79408145D01*
X129125500Y-78714742D01*
X129145185Y-78647703D01*
X129161819Y-78627061D01*
X131552061Y-76236819D01*
X131613384Y-76203334D01*
X131639742Y-76200500D01*
X131742019Y-76200500D01*
X131922034Y-76162236D01*
X132090161Y-76087381D01*
X132239050Y-75979207D01*
X132362195Y-75842440D01*
X132454214Y-75683059D01*
X132511085Y-75508029D01*
X132530322Y-75325000D01*
X132511085Y-75141971D01*
X132454214Y-74966941D01*
X132362195Y-74807560D01*
X132257350Y-74691117D01*
X132227120Y-74628125D01*
X132225500Y-74608145D01*
X132225500Y-73491213D01*
X132245185Y-73424174D01*
X132261819Y-73403532D01*
X135788319Y-69877032D01*
X135849642Y-69843547D01*
X135919334Y-69848531D01*
X135975267Y-69890403D01*
X135999684Y-69955867D01*
X136000000Y-69964713D01*
X136000000Y-75000000D01*
X140600000Y-75000000D01*
X140600000Y-69000000D01*
X136059500Y-69000000D01*
X135992461Y-68980315D01*
X135946706Y-68927511D01*
X135935500Y-68876000D01*
X135935500Y-65711078D01*
X135955185Y-65644039D01*
X136000483Y-65602023D01*
X136183503Y-65502977D01*
X136183505Y-65502976D01*
X136183504Y-65502976D01*
X136183509Y-65502974D01*
X136379744Y-65350238D01*
X136548164Y-65167285D01*
X136684173Y-64959107D01*
X136784063Y-64731381D01*
X136845108Y-64490321D01*
X136865643Y-64242500D01*
X136851193Y-64068113D01*
X136865274Y-63999677D01*
X136914119Y-63949718D01*
X136982220Y-63934097D01*
X137047955Y-63957774D01*
X137071464Y-63980245D01*
X146326166Y-75508032D01*
X146400000Y-75600000D01*
X151289880Y-75688906D01*
X151356550Y-75709806D01*
X151401337Y-75763434D01*
X151411399Y-75805399D01*
X151429277Y-76100947D01*
X151429478Y-76105937D01*
X151449449Y-77097503D01*
X151449449Y-77102497D01*
X151429478Y-78094062D01*
X151429277Y-78099052D01*
X151369395Y-79089017D01*
X151368993Y-79093995D01*
X151269298Y-80080741D01*
X151268696Y-80085698D01*
X151129351Y-81067621D01*
X151128550Y-81072551D01*
X150949778Y-82048081D01*
X150948779Y-82052974D01*
X150730874Y-83020502D01*
X150729679Y-83025351D01*
X150472984Y-83983349D01*
X150471594Y-83988145D01*
X150176549Y-84934980D01*
X150174968Y-84939717D01*
X149842023Y-85873939D01*
X149840252Y-85878609D01*
X149469966Y-86798654D01*
X149468009Y-86803248D01*
X149060971Y-87707650D01*
X149058830Y-87712162D01*
X148615708Y-88599434D01*
X148613387Y-88603856D01*
X148134901Y-89472561D01*
X148132404Y-89476886D01*
X147619326Y-90325621D01*
X147616657Y-90329842D01*
X147069815Y-91157235D01*
X147066978Y-91161345D01*
X146487266Y-91966048D01*
X146484266Y-91970040D01*
X145872625Y-92750741D01*
X145869466Y-92754609D01*
X145226892Y-93510042D01*
X145223581Y-93513781D01*
X144551078Y-94242761D01*
X144547618Y-94246362D01*
X143846362Y-94947618D01*
X143842761Y-94951078D01*
X143113781Y-95623581D01*
X143110042Y-95626892D01*
X142354609Y-96269466D01*
X142350741Y-96272625D01*
X141570040Y-96884266D01*
X141566048Y-96887266D01*
X140761345Y-97466978D01*
X140757235Y-97469815D01*
X139929842Y-98016657D01*
X139925621Y-98019326D01*
X139076886Y-98532404D01*
X139072561Y-98534901D01*
X138203856Y-99013387D01*
X138199434Y-99015708D01*
X137312162Y-99458830D01*
X137307650Y-99460971D01*
X136403248Y-99868009D01*
X136398654Y-99869966D01*
X135478609Y-100240252D01*
X135473939Y-100242023D01*
X134539717Y-100574968D01*
X134534980Y-100576549D01*
X133588145Y-100871594D01*
X133583349Y-100872984D01*
X132625351Y-101129679D01*
X132620502Y-101130874D01*
X131652974Y-101348779D01*
X131648081Y-101349778D01*
X130672551Y-101528550D01*
X130667621Y-101529351D01*
X129685698Y-101668696D01*
X129680741Y-101669298D01*
X128693995Y-101768993D01*
X128689017Y-101769395D01*
X127699052Y-101829277D01*
X127694062Y-101829478D01*
X126702497Y-101849449D01*
X126697503Y-101849449D01*
X125705937Y-101829478D01*
X125700947Y-101829277D01*
X124710982Y-101769395D01*
X124706004Y-101768993D01*
X123719258Y-101669298D01*
X123714301Y-101668696D01*
X122732378Y-101529351D01*
X122727448Y-101528550D01*
X121751918Y-101349778D01*
X121747025Y-101348779D01*
X120779497Y-101130874D01*
X120774648Y-101129679D01*
X119816650Y-100872984D01*
X119811854Y-100871594D01*
X118865019Y-100576549D01*
X118860282Y-100574968D01*
X117926060Y-100242023D01*
X117921390Y-100240252D01*
X117785686Y-100185636D01*
X117001341Y-99869964D01*
X116996751Y-99868009D01*
X116092349Y-99460971D01*
X116087837Y-99458830D01*
X115200565Y-99015708D01*
X115196143Y-99013387D01*
X114327438Y-98534901D01*
X114323113Y-98532404D01*
X113892215Y-98271917D01*
X113474366Y-98019318D01*
X113470170Y-98016665D01*
X112642764Y-97469815D01*
X112638654Y-97466978D01*
X111833951Y-96887266D01*
X111829971Y-96884275D01*
X111317331Y-96482647D01*
X111049258Y-96272625D01*
X111045390Y-96269466D01*
X110289957Y-95626892D01*
X110286218Y-95623581D01*
X110281122Y-95618880D01*
X109557238Y-94951078D01*
X109553637Y-94947618D01*
X108852381Y-94246362D01*
X108848921Y-94242761D01*
X108176407Y-93513768D01*
X108173107Y-93510042D01*
X107530533Y-92754609D01*
X107527374Y-92750741D01*
X107303524Y-92465018D01*
X106915718Y-91970020D01*
X106912747Y-91966067D01*
X106333015Y-91161336D01*
X106330184Y-91157235D01*
X106182714Y-90934107D01*
X105783326Y-90329816D01*
X105780689Y-90325646D01*
X105267589Y-89476876D01*
X105265098Y-89472561D01*
X105261102Y-89465307D01*
X104786606Y-88603845D01*
X104784291Y-88599434D01*
X104777532Y-88585901D01*
X104341165Y-87712153D01*
X104339028Y-87707650D01*
X103931978Y-86803221D01*
X103930045Y-86798682D01*
X103764030Y-86386188D01*
X104761870Y-86386188D01*
X104761870Y-86386196D01*
X104773840Y-86614581D01*
X104773841Y-86614590D01*
X104821391Y-86838291D01*
X104903352Y-87051808D01*
X104903355Y-87051813D01*
X105017704Y-87249870D01*
X105017707Y-87249875D01*
X105032425Y-87268050D01*
X105161638Y-87427614D01*
X105331601Y-87580649D01*
X105331603Y-87580650D01*
X105331604Y-87580651D01*
X105484758Y-87680110D01*
X105523411Y-87705211D01*
X105732346Y-87798234D01*
X105953260Y-87857427D01*
X106057139Y-87868345D01*
X106121751Y-87894928D01*
X106161736Y-87952226D01*
X106164396Y-88022045D01*
X106157455Y-88042099D01*
X106114970Y-88137524D01*
X106114967Y-88137531D01*
X106055777Y-88358436D01*
X106031869Y-88585893D01*
X106031869Y-88585901D01*
X106043839Y-88814286D01*
X106043840Y-88814295D01*
X106091390Y-89037996D01*
X106173351Y-89251513D01*
X106173354Y-89251518D01*
X106287703Y-89449575D01*
X106287705Y-89449578D01*
X106287707Y-89449581D01*
X106431637Y-89627319D01*
X106601600Y-89780354D01*
X106601602Y-89780355D01*
X106601603Y-89780356D01*
X106765590Y-89886850D01*
X106793410Y-89904916D01*
X106999718Y-89996769D01*
X107052955Y-90042019D01*
X107073277Y-90108868D01*
X107054232Y-90176092D01*
X107044903Y-90188997D01*
X107025963Y-90211935D01*
X106969307Y-90344242D01*
X106952219Y-90487144D01*
X106952220Y-90487145D01*
X106976088Y-90629073D01*
X106987763Y-90655465D01*
X107000344Y-90683907D01*
X108000715Y-92416596D01*
X108000717Y-92416600D01*
X108026211Y-92451515D01*
X108036071Y-92465018D01*
X108091561Y-92510835D01*
X108147048Y-92556650D01*
X108147049Y-92556650D01*
X108147051Y-92556652D01*
X108279354Y-92613306D01*
X108406994Y-92628568D01*
X108422257Y-92630393D01*
X108422257Y-92630392D01*
X108422258Y-92630393D01*
X108541384Y-92610360D01*
X108564182Y-92606527D01*
X108564182Y-92606526D01*
X108564187Y-92606526D01*
X108619015Y-92582271D01*
X110433983Y-91534398D01*
X110482404Y-91499043D01*
X110574038Y-91388062D01*
X110581032Y-91371730D01*
X110625517Y-91317852D01*
X110692069Y-91296577D01*
X110759558Y-91314661D01*
X110782701Y-91332861D01*
X114263476Y-94813635D01*
X114296961Y-94874958D01*
X114299795Y-94901316D01*
X114299795Y-95133535D01*
X114334398Y-95307497D01*
X114334400Y-95307505D01*
X114363375Y-95377456D01*
X114402279Y-95471381D01*
X114402280Y-95471382D01*
X114402282Y-95471386D01*
X114455144Y-95550498D01*
X114455144Y-95550499D01*
X114500832Y-95618877D01*
X114500835Y-95618880D01*
X115456420Y-96574464D01*
X115456422Y-96574466D01*
X115515492Y-96613933D01*
X115515495Y-96613936D01*
X115603905Y-96673010D01*
X115603909Y-96673013D01*
X115685849Y-96706953D01*
X115767790Y-96740895D01*
X115941759Y-96775499D01*
X115941763Y-96775500D01*
X115941764Y-96775500D01*
X130313693Y-96775500D01*
X130313694Y-96775499D01*
X130487666Y-96740895D01*
X130569606Y-96706953D01*
X130651547Y-96673013D01*
X130651549Y-96673011D01*
X130651552Y-96673010D01*
X130739955Y-96613939D01*
X130739955Y-96613938D01*
X130739959Y-96613936D01*
X130799036Y-96574464D01*
X131506642Y-95866856D01*
X131567963Y-95833373D01*
X131594586Y-95831721D01*
X131594586Y-95830563D01*
X131600002Y-95830563D01*
X131657762Y-95825509D01*
X131831050Y-95810349D01*
X132055079Y-95750320D01*
X132265282Y-95652301D01*
X132455269Y-95519270D01*
X132619270Y-95355269D01*
X132752301Y-95165282D01*
X132850320Y-94955079D01*
X132910349Y-94731050D01*
X132927675Y-94533007D01*
X132930563Y-94500001D01*
X132930563Y-94499998D01*
X135269437Y-94499998D01*
X135269437Y-94500001D01*
X135289650Y-94731044D01*
X135289651Y-94731051D01*
X135349678Y-94955074D01*
X135349679Y-94955076D01*
X135349680Y-94955079D01*
X135447699Y-95165282D01*
X135580730Y-95355269D01*
X135744731Y-95519270D01*
X135934718Y-95652301D01*
X136144921Y-95750320D01*
X136368950Y-95810349D01*
X136533985Y-95824787D01*
X136599998Y-95830563D01*
X136600000Y-95830563D01*
X136600002Y-95830563D01*
X136657762Y-95825509D01*
X136831050Y-95810349D01*
X137055079Y-95750320D01*
X137265282Y-95652301D01*
X137455269Y-95519270D01*
X137619270Y-95355269D01*
X137752301Y-95165282D01*
X137850320Y-94955079D01*
X137910349Y-94731050D01*
X137927675Y-94533007D01*
X137930563Y-94500001D01*
X137930563Y-94494586D01*
X137933204Y-94494586D01*
X137944602Y-94436964D01*
X137966855Y-94406643D01*
X143436681Y-88936819D01*
X143498004Y-88903334D01*
X143524362Y-88900500D01*
X144132693Y-88900500D01*
X144199732Y-88920185D01*
X144245487Y-88972989D01*
X144255431Y-89042147D01*
X144240080Y-89086500D01*
X143530343Y-90315803D01*
X143506086Y-90370635D01*
X143482219Y-90512559D01*
X143482218Y-90512560D01*
X143499306Y-90655462D01*
X143499306Y-90655464D01*
X143499307Y-90655465D01*
X143555961Y-90787767D01*
X143647595Y-90898748D01*
X143647597Y-90898750D01*
X143696005Y-90934097D01*
X143696020Y-90934107D01*
X144253141Y-91255760D01*
X145510983Y-91981975D01*
X145565812Y-92006231D01*
X145707741Y-92030098D01*
X145850645Y-92013011D01*
X145982948Y-91956357D01*
X146093928Y-91864723D01*
X146129284Y-91816303D01*
X147129655Y-90083607D01*
X147153911Y-90028778D01*
X147177779Y-89886849D01*
X147160691Y-89743945D01*
X147104037Y-89611643D01*
X147085095Y-89588701D01*
X147057592Y-89524476D01*
X147069178Y-89455573D01*
X147116177Y-89403873D01*
X147130269Y-89396479D01*
X147336589Y-89304621D01*
X147528400Y-89180059D01*
X147698362Y-89027024D01*
X147842292Y-88849286D01*
X147956647Y-88651220D01*
X148038608Y-88437703D01*
X148086160Y-88213995D01*
X148098130Y-87985601D01*
X148074224Y-87758146D01*
X148015031Y-87537232D01*
X147972543Y-87441802D01*
X147963260Y-87372556D01*
X147992888Y-87309280D01*
X148052023Y-87272067D01*
X148072855Y-87268051D01*
X148176739Y-87257133D01*
X148397653Y-87197939D01*
X148606588Y-87104916D01*
X148798399Y-86980354D01*
X148968361Y-86827319D01*
X149112291Y-86649581D01*
X149226646Y-86451515D01*
X149308607Y-86237998D01*
X149356159Y-86014290D01*
X149368129Y-85785896D01*
X149344223Y-85558441D01*
X149285030Y-85337527D01*
X149192007Y-85128592D01*
X149184764Y-85117438D01*
X149067446Y-84936784D01*
X149067442Y-84936779D01*
X148914410Y-84766821D01*
X148736671Y-84622889D01*
X148736665Y-84622885D01*
X148456336Y-84461036D01*
X148456331Y-84461033D01*
X148242814Y-84379072D01*
X148019113Y-84331522D01*
X148019104Y-84331521D01*
X147790719Y-84319551D01*
X147790711Y-84319551D01*
X147720875Y-84326891D01*
X147563259Y-84343458D01*
X147563256Y-84343458D01*
X147563254Y-84343459D01*
X147342349Y-84402649D01*
X147342347Y-84402650D01*
X147133405Y-84495676D01*
X146941603Y-84620233D01*
X146771638Y-84773269D01*
X146627709Y-84951006D01*
X146627703Y-84951014D01*
X146513354Y-85149071D01*
X146513351Y-85149076D01*
X146431390Y-85362593D01*
X146383840Y-85586294D01*
X146383839Y-85586303D01*
X146373378Y-85785896D01*
X146371869Y-85814695D01*
X146395776Y-86042149D01*
X146395776Y-86042152D01*
X146395777Y-86042153D01*
X146454967Y-86263058D01*
X146454970Y-86263065D01*
X146497455Y-86358490D01*
X146506739Y-86427740D01*
X146477110Y-86491016D01*
X146417975Y-86528229D01*
X146397139Y-86532244D01*
X146293260Y-86543163D01*
X146293257Y-86543163D01*
X146293255Y-86543164D01*
X146072350Y-86602354D01*
X146072348Y-86602355D01*
X145863406Y-86695381D01*
X145671604Y-86819938D01*
X145501639Y-86972974D01*
X145436401Y-87053536D01*
X145378913Y-87093248D01*
X145340035Y-87099500D01*
X143011303Y-87099500D01*
X142837341Y-87134103D01*
X142837329Y-87134106D01*
X142755392Y-87168045D01*
X142755393Y-87168046D01*
X142673455Y-87201985D01*
X142601784Y-87249875D01*
X142525961Y-87300537D01*
X136693357Y-93133141D01*
X136632034Y-93166626D01*
X136605413Y-93168318D01*
X136605413Y-93169437D01*
X136599998Y-93169437D01*
X136368955Y-93189650D01*
X136368948Y-93189651D01*
X136144917Y-93249681D01*
X135934718Y-93347699D01*
X135934714Y-93347701D01*
X135744735Y-93480726D01*
X135744729Y-93480731D01*
X135580731Y-93644729D01*
X135580726Y-93644735D01*
X135447701Y-93834714D01*
X135447699Y-93834718D01*
X135349681Y-94044917D01*
X135289651Y-94268948D01*
X135289650Y-94268955D01*
X135269437Y-94499998D01*
X132930563Y-94499998D01*
X132910349Y-94268955D01*
X132910349Y-94268950D01*
X132850320Y-94044921D01*
X132752301Y-93834719D01*
X132752299Y-93834716D01*
X132752298Y-93834714D01*
X132619273Y-93644735D01*
X132619268Y-93644729D01*
X132455269Y-93480730D01*
X132455263Y-93480726D01*
X132265282Y-93347699D01*
X132055079Y-93249680D01*
X132055076Y-93249679D01*
X132055074Y-93249678D01*
X131831051Y-93189651D01*
X131831044Y-93189650D01*
X131600002Y-93169437D01*
X131599998Y-93169437D01*
X131368955Y-93189650D01*
X131368948Y-93189651D01*
X131144917Y-93249681D01*
X130934718Y-93347699D01*
X130934714Y-93347701D01*
X130744735Y-93480726D01*
X130744729Y-93480731D01*
X130580731Y-93644729D01*
X130580726Y-93644735D01*
X130447701Y-93834714D01*
X130447699Y-93834718D01*
X130349681Y-94044917D01*
X130289651Y-94268948D01*
X130289650Y-94268955D01*
X130269437Y-94499998D01*
X130269437Y-94505413D01*
X130266878Y-94505413D01*
X130255200Y-94563410D01*
X130233141Y-94593358D01*
X129888319Y-94938181D01*
X129826996Y-94971666D01*
X129800638Y-94974500D01*
X128006717Y-94974500D01*
X127939678Y-94954815D01*
X127893923Y-94902011D01*
X127883979Y-94832853D01*
X127886942Y-94818407D01*
X127896742Y-94781830D01*
X127910349Y-94731050D01*
X127927675Y-94533007D01*
X127930563Y-94500001D01*
X127930563Y-94499998D01*
X127910349Y-94268955D01*
X127910349Y-94268950D01*
X127850320Y-94044921D01*
X127752301Y-93834719D01*
X127752299Y-93834716D01*
X127752298Y-93834714D01*
X127619273Y-93644735D01*
X127619268Y-93644729D01*
X127455269Y-93480730D01*
X127455263Y-93480726D01*
X127265282Y-93347699D01*
X127055079Y-93249680D01*
X127055076Y-93249679D01*
X127055074Y-93249678D01*
X126831051Y-93189651D01*
X126831044Y-93189650D01*
X126600002Y-93169437D01*
X126599998Y-93169437D01*
X126368955Y-93189650D01*
X126368948Y-93189651D01*
X126144917Y-93249681D01*
X125934718Y-93347699D01*
X125934714Y-93347701D01*
X125744735Y-93480726D01*
X125744729Y-93480731D01*
X125580731Y-93644729D01*
X125580726Y-93644735D01*
X125447701Y-93834714D01*
X125447699Y-93834718D01*
X125349681Y-94044917D01*
X125289651Y-94268948D01*
X125289650Y-94268955D01*
X125269437Y-94499998D01*
X125269437Y-94500001D01*
X125289650Y-94731044D01*
X125289652Y-94731055D01*
X125313058Y-94818407D01*
X125311395Y-94888257D01*
X125272232Y-94946119D01*
X125208004Y-94973623D01*
X125193283Y-94974500D01*
X123006717Y-94974500D01*
X122939678Y-94954815D01*
X122893923Y-94902011D01*
X122883979Y-94832853D01*
X122886942Y-94818407D01*
X122896742Y-94781830D01*
X122910349Y-94731050D01*
X122927675Y-94533007D01*
X122930563Y-94500001D01*
X122930563Y-94499998D01*
X122910349Y-94268955D01*
X122910349Y-94268950D01*
X122850320Y-94044921D01*
X122752301Y-93834719D01*
X122752299Y-93834716D01*
X122752298Y-93834714D01*
X122619273Y-93644735D01*
X122619268Y-93644729D01*
X122455269Y-93480730D01*
X122455263Y-93480726D01*
X122265282Y-93347699D01*
X122055079Y-93249680D01*
X122055076Y-93249679D01*
X122055074Y-93249678D01*
X121831051Y-93189651D01*
X121831044Y-93189650D01*
X121600002Y-93169437D01*
X121599998Y-93169437D01*
X121368955Y-93189650D01*
X121368948Y-93189651D01*
X121144917Y-93249681D01*
X120934718Y-93347699D01*
X120934714Y-93347701D01*
X120744735Y-93480726D01*
X120744729Y-93480731D01*
X120580731Y-93644729D01*
X120580726Y-93644735D01*
X120447701Y-93834714D01*
X120447699Y-93834718D01*
X120349681Y-94044917D01*
X120289651Y-94268948D01*
X120289650Y-94268955D01*
X120269437Y-94499998D01*
X120269437Y-94500001D01*
X120289650Y-94731044D01*
X120289652Y-94731055D01*
X120313058Y-94818407D01*
X120311395Y-94888257D01*
X120272232Y-94946119D01*
X120208004Y-94973623D01*
X120193283Y-94974500D01*
X118006717Y-94974500D01*
X117939678Y-94954815D01*
X117893923Y-94902011D01*
X117883979Y-94832853D01*
X117886942Y-94818407D01*
X117896742Y-94781830D01*
X117910349Y-94731050D01*
X117927675Y-94533007D01*
X117930563Y-94500001D01*
X117930563Y-94499998D01*
X117910349Y-94268955D01*
X117910349Y-94268950D01*
X117850320Y-94044921D01*
X117752301Y-93834719D01*
X117752299Y-93834716D01*
X117752298Y-93834714D01*
X117619273Y-93644735D01*
X117619268Y-93644729D01*
X117455269Y-93480730D01*
X117455263Y-93480726D01*
X117265282Y-93347699D01*
X117055079Y-93249680D01*
X117055076Y-93249679D01*
X117055074Y-93249678D01*
X116831051Y-93189651D01*
X116831044Y-93189650D01*
X116600002Y-93169437D01*
X116599998Y-93169437D01*
X116368955Y-93189650D01*
X116368948Y-93189651D01*
X116144917Y-93249681D01*
X115934718Y-93347699D01*
X115934714Y-93347701D01*
X115744728Y-93480731D01*
X115698828Y-93526630D01*
X115637505Y-93560114D01*
X115567813Y-93555128D01*
X115523468Y-93526628D01*
X109897674Y-87900833D01*
X109897669Y-87900829D01*
X109854365Y-87871895D01*
X109832712Y-87857427D01*
X109832709Y-87857425D01*
X109750187Y-87802285D01*
X109750175Y-87802278D01*
X109668242Y-87768341D01*
X109668241Y-87768341D01*
X109586301Y-87734400D01*
X109586293Y-87734398D01*
X109412331Y-87699795D01*
X109412327Y-87699795D01*
X109412326Y-87699795D01*
X108789964Y-87699795D01*
X108722925Y-87680110D01*
X108693598Y-87653831D01*
X108634337Y-87580651D01*
X108628361Y-87573271D01*
X108628359Y-87573269D01*
X108458403Y-87420239D01*
X108458400Y-87420237D01*
X108458399Y-87420236D01*
X108266588Y-87295674D01*
X108057653Y-87202651D01*
X107836739Y-87143457D01*
X107765058Y-87135923D01*
X107732862Y-87132539D01*
X107668247Y-87105954D01*
X107628263Y-87048656D01*
X107625603Y-86978837D01*
X107632541Y-86958790D01*
X107675031Y-86863358D01*
X107734224Y-86642444D01*
X107758130Y-86414989D01*
X107746160Y-86186595D01*
X107698608Y-85962887D01*
X107641720Y-85814688D01*
X107616649Y-85749374D01*
X107616647Y-85749371D01*
X107616647Y-85749370D01*
X107502292Y-85551304D01*
X107358362Y-85373566D01*
X107358360Y-85373564D01*
X107188404Y-85220534D01*
X107188401Y-85220532D01*
X107188400Y-85220531D01*
X106996589Y-85095969D01*
X106787654Y-85002946D01*
X106593842Y-84951014D01*
X106566744Y-84943753D01*
X106566743Y-84943752D01*
X106566740Y-84943752D01*
X106339286Y-84919846D01*
X106339283Y-84919846D01*
X106110894Y-84931815D01*
X106110890Y-84931816D01*
X105887183Y-84979368D01*
X105673667Y-85061328D01*
X105673662Y-85061331D01*
X105393333Y-85223180D01*
X105393327Y-85223185D01*
X105215588Y-85367115D01*
X105062552Y-85537080D01*
X104937995Y-85728882D01*
X104844969Y-85937824D01*
X104844968Y-85937826D01*
X104785778Y-86158731D01*
X104785777Y-86158736D01*
X104774821Y-86262974D01*
X104761870Y-86386188D01*
X103764030Y-86386188D01*
X103559735Y-85878578D01*
X103557987Y-85873969D01*
X103225021Y-84939687D01*
X103223460Y-84935011D01*
X102928398Y-83988122D01*
X102927022Y-83983373D01*
X102670317Y-83025340D01*
X102669125Y-83020502D01*
X102664507Y-82999999D01*
X102451219Y-82052970D01*
X102450221Y-82048081D01*
X102441410Y-82000000D01*
X106719678Y-82000000D01*
X106738915Y-82183029D01*
X106738916Y-82183032D01*
X106795783Y-82358053D01*
X106795786Y-82358059D01*
X106887805Y-82517440D01*
X106997327Y-82639077D01*
X107010949Y-82654206D01*
X107010951Y-82654208D01*
X107159834Y-82762378D01*
X107159835Y-82762378D01*
X107159839Y-82762381D01*
X107282441Y-82816967D01*
X107327961Y-82837234D01*
X107327966Y-82837236D01*
X107507981Y-82875500D01*
X107692019Y-82875500D01*
X107872034Y-82837236D01*
X108040161Y-82762381D01*
X108189050Y-82654207D01*
X108312195Y-82517440D01*
X108404214Y-82358059D01*
X108461085Y-82183029D01*
X108480322Y-82000000D01*
X108477336Y-81971593D01*
X108489903Y-81902864D01*
X108493244Y-81896674D01*
X108536281Y-81822135D01*
X108575500Y-81675767D01*
X108575500Y-81524234D01*
X108575500Y-81246161D01*
X108595185Y-81179122D01*
X108634402Y-81140623D01*
X108748350Y-81070340D01*
X108787319Y-81031371D01*
X108848642Y-80997886D01*
X108918334Y-81002870D01*
X108962681Y-81031371D01*
X109001650Y-81070340D01*
X109148484Y-81160908D01*
X109312247Y-81215174D01*
X109413323Y-81225500D01*
X110086676Y-81225499D01*
X110086684Y-81225498D01*
X110086687Y-81225498D01*
X110142030Y-81219844D01*
X110187753Y-81215174D01*
X110351516Y-81160908D01*
X110498350Y-81070340D01*
X110620340Y-80948350D01*
X110659783Y-80884403D01*
X110711730Y-80837679D01*
X110765321Y-80825500D01*
X115700764Y-80825500D01*
X115700766Y-80825500D01*
X115847135Y-80786281D01*
X115978365Y-80710515D01*
X120263201Y-76425677D01*
X120324522Y-76392194D01*
X120394214Y-76397178D01*
X120450147Y-76439050D01*
X120468811Y-76475041D01*
X120495784Y-76558055D01*
X120495786Y-76558059D01*
X120587805Y-76717440D01*
X120692650Y-76833883D01*
X120722880Y-76896873D01*
X120724500Y-76916854D01*
X120724500Y-79210258D01*
X120704815Y-79277297D01*
X120688181Y-79297939D01*
X117897939Y-82088181D01*
X117836616Y-82121666D01*
X117810258Y-82124500D01*
X117707981Y-82124500D01*
X117527966Y-82162763D01*
X117527961Y-82162765D01*
X117359839Y-82237619D01*
X117359834Y-82237621D01*
X117210951Y-82345791D01*
X117210949Y-82345793D01*
X117087804Y-82482561D01*
X116995786Y-82641940D01*
X116995783Y-82641946D01*
X116956652Y-82762381D01*
X116938915Y-82816971D01*
X116919678Y-83000000D01*
X116938915Y-83183029D01*
X116938916Y-83183032D01*
X116995783Y-83358053D01*
X116995786Y-83358059D01*
X117087805Y-83517440D01*
X117124961Y-83558706D01*
X117210949Y-83654206D01*
X117210951Y-83654208D01*
X117359834Y-83762378D01*
X117359835Y-83762378D01*
X117359839Y-83762381D01*
X117496953Y-83823428D01*
X117527961Y-83837234D01*
X117527966Y-83837236D01*
X117707981Y-83875500D01*
X117892019Y-83875500D01*
X118072034Y-83837236D01*
X118240161Y-83762381D01*
X118389050Y-83654207D01*
X118512195Y-83517440D01*
X118604214Y-83358059D01*
X118661085Y-83183029D01*
X118680322Y-83000000D01*
X118680186Y-82998708D01*
X118680322Y-82997965D01*
X118680322Y-82993500D01*
X118681138Y-82993500D01*
X118692747Y-82929979D01*
X118715821Y-82898057D01*
X119412820Y-82201059D01*
X119474142Y-82167575D01*
X119543834Y-82172559D01*
X119599767Y-82214431D01*
X119624184Y-82279895D01*
X119624500Y-82288741D01*
X119624500Y-83883145D01*
X119604815Y-83950184D01*
X119592650Y-83966117D01*
X119487804Y-84082561D01*
X119395786Y-84241940D01*
X119395783Y-84241946D01*
X119338916Y-84416967D01*
X119338915Y-84416971D01*
X119319678Y-84600000D01*
X119338915Y-84783029D01*
X119338916Y-84783032D01*
X119395783Y-84958053D01*
X119395786Y-84958059D01*
X119487805Y-85117440D01*
X119580628Y-85220531D01*
X119610949Y-85254206D01*
X119610951Y-85254208D01*
X119759834Y-85362378D01*
X119759835Y-85362378D01*
X119759839Y-85362381D01*
X119896953Y-85423428D01*
X119927961Y-85437234D01*
X119927966Y-85437236D01*
X120107981Y-85475500D01*
X120292019Y-85475500D01*
X120472034Y-85437236D01*
X120640161Y-85362381D01*
X120789050Y-85254207D01*
X120912195Y-85117440D01*
X121004214Y-84958059D01*
X121061085Y-84783029D01*
X121080322Y-84600000D01*
X121061085Y-84416971D01*
X121004214Y-84241941D01*
X120912195Y-84082560D01*
X120825021Y-83985743D01*
X120807350Y-83966117D01*
X120801840Y-83954635D01*
X128669500Y-83954635D01*
X128669500Y-86050370D01*
X128669501Y-86050376D01*
X128675908Y-86109983D01*
X128726202Y-86244828D01*
X128726206Y-86244835D01*
X128812452Y-86360044D01*
X128812455Y-86360047D01*
X128927664Y-86446293D01*
X128927671Y-86446297D01*
X129062517Y-86496591D01*
X129062516Y-86496591D01*
X129069444Y-86497335D01*
X129122127Y-86503000D01*
X131217872Y-86502999D01*
X131277483Y-86496591D01*
X131412331Y-86446296D01*
X131527546Y-86360046D01*
X131613796Y-86244831D01*
X131664091Y-86109983D01*
X131670500Y-86050373D01*
X131670499Y-85002494D01*
X132564357Y-85002494D01*
X132564357Y-85002505D01*
X132584890Y-85250312D01*
X132584892Y-85250324D01*
X132645936Y-85491381D01*
X132745826Y-85719106D01*
X132881833Y-85927282D01*
X132881836Y-85927285D01*
X133050256Y-86110238D01*
X133246491Y-86262974D01*
X133465190Y-86381328D01*
X133700386Y-86462071D01*
X133945665Y-86503000D01*
X134194335Y-86503000D01*
X134439614Y-86462071D01*
X134674810Y-86381328D01*
X134893509Y-86262974D01*
X135089744Y-86110238D01*
X135258164Y-85927285D01*
X135394173Y-85719107D01*
X135494063Y-85491381D01*
X135555108Y-85250321D01*
X135557576Y-85220534D01*
X135575643Y-85002505D01*
X135575643Y-85002494D01*
X135555109Y-84754687D01*
X135555107Y-84754675D01*
X135494063Y-84513618D01*
X135394173Y-84285893D01*
X135258166Y-84077717D01*
X135175709Y-83988145D01*
X135089744Y-83894762D01*
X134893509Y-83742026D01*
X134893507Y-83742025D01*
X134893506Y-83742024D01*
X134674811Y-83623672D01*
X134674802Y-83623669D01*
X134439616Y-83542929D01*
X134194335Y-83502000D01*
X133945665Y-83502000D01*
X133700383Y-83542929D01*
X133465197Y-83623669D01*
X133465188Y-83623672D01*
X133246493Y-83742024D01*
X133050257Y-83894761D01*
X132881833Y-84077717D01*
X132745826Y-84285893D01*
X132645936Y-84513618D01*
X132584892Y-84754675D01*
X132584890Y-84754687D01*
X132564357Y-85002494D01*
X131670499Y-85002494D01*
X131670499Y-83954628D01*
X131664091Y-83895017D01*
X131642539Y-83837234D01*
X131613797Y-83760171D01*
X131613793Y-83760164D01*
X131527547Y-83644955D01*
X131527544Y-83644952D01*
X131412335Y-83558706D01*
X131412328Y-83558702D01*
X131277482Y-83508408D01*
X131277483Y-83508408D01*
X131217883Y-83502001D01*
X131217881Y-83502000D01*
X131217873Y-83502000D01*
X131217864Y-83502000D01*
X129122129Y-83502000D01*
X129122123Y-83502001D01*
X129062516Y-83508408D01*
X128927671Y-83558702D01*
X128927664Y-83558706D01*
X128812455Y-83644952D01*
X128812452Y-83644955D01*
X128726206Y-83760164D01*
X128726202Y-83760171D01*
X128675908Y-83895017D01*
X128669501Y-83954616D01*
X128669501Y-83954623D01*
X128669500Y-83954635D01*
X120801840Y-83954635D01*
X120777120Y-83903125D01*
X120775500Y-83883145D01*
X120775500Y-80889742D01*
X120795185Y-80822703D01*
X120811819Y-80802061D01*
X121284065Y-80329815D01*
X121760515Y-79853365D01*
X121836281Y-79722135D01*
X121875500Y-79575766D01*
X121875500Y-79424233D01*
X121875500Y-76916854D01*
X121895185Y-76849815D01*
X121907346Y-76833886D01*
X122012195Y-76717440D01*
X122104214Y-76558059D01*
X122161085Y-76383029D01*
X122180322Y-76200000D01*
X122161085Y-76016971D01*
X122124061Y-75903023D01*
X122104216Y-75841946D01*
X122104213Y-75841940D01*
X122079999Y-75800000D01*
X122012195Y-75682560D01*
X121889050Y-75545793D01*
X121889048Y-75545791D01*
X121740165Y-75437621D01*
X121740162Y-75437619D01*
X121740161Y-75437619D01*
X121644507Y-75395031D01*
X121566697Y-75360387D01*
X121513460Y-75315137D01*
X121493139Y-75248288D01*
X121512184Y-75181064D01*
X121529448Y-75159431D01*
X126277061Y-70411819D01*
X126338384Y-70378334D01*
X126364742Y-70375500D01*
X126684873Y-70375500D01*
X126751912Y-70395185D01*
X126777023Y-70416528D01*
X126810944Y-70454202D01*
X126810951Y-70454208D01*
X126959834Y-70562378D01*
X126959835Y-70562378D01*
X126959839Y-70562381D01*
X127096953Y-70623428D01*
X127127961Y-70637234D01*
X127127966Y-70637236D01*
X127307981Y-70675500D01*
X127492019Y-70675500D01*
X127672034Y-70637236D01*
X127840161Y-70562381D01*
X127989050Y-70454207D01*
X128112195Y-70317440D01*
X128204214Y-70158059D01*
X128261085Y-69983029D01*
X128267420Y-69922751D01*
X128294003Y-69858140D01*
X128351300Y-69818155D01*
X128421119Y-69815495D01*
X128481293Y-69851004D01*
X128498127Y-69873716D01*
X128537805Y-69942440D01*
X128647327Y-70064077D01*
X128660949Y-70079206D01*
X128660951Y-70079208D01*
X128809834Y-70187378D01*
X128809835Y-70187378D01*
X128809839Y-70187381D01*
X128946953Y-70248428D01*
X128977961Y-70262234D01*
X128977966Y-70262236D01*
X129157981Y-70300500D01*
X129342019Y-70300500D01*
X129522034Y-70262236D01*
X129690161Y-70187381D01*
X129839050Y-70079207D01*
X129962195Y-69942440D01*
X130054214Y-69783059D01*
X130111085Y-69608029D01*
X130130322Y-69425000D01*
X130111085Y-69241971D01*
X130054214Y-69066941D01*
X129962195Y-68907560D01*
X129839050Y-68770793D01*
X129839048Y-68770791D01*
X129690165Y-68662621D01*
X129690162Y-68662619D01*
X129690161Y-68662619D01*
X129629112Y-68635438D01*
X129522038Y-68587765D01*
X129522033Y-68587763D01*
X129342019Y-68549500D01*
X129157981Y-68549500D01*
X128977966Y-68587763D01*
X128977961Y-68587765D01*
X128809839Y-68662619D01*
X128809834Y-68662621D01*
X128660951Y-68770791D01*
X128660949Y-68770793D01*
X128537804Y-68907561D01*
X128445786Y-69066940D01*
X128445783Y-69066946D01*
X128388916Y-69241967D01*
X128388915Y-69241971D01*
X128386493Y-69265019D01*
X128382580Y-69302246D01*
X128355995Y-69366860D01*
X128298697Y-69406844D01*
X128228878Y-69409504D01*
X128168704Y-69373994D01*
X128151874Y-69351286D01*
X128112195Y-69282560D01*
X127989050Y-69145793D01*
X127989048Y-69145791D01*
X127840165Y-69037621D01*
X127840162Y-69037619D01*
X127840161Y-69037619D01*
X127779112Y-69010438D01*
X127672038Y-68962765D01*
X127672033Y-68962763D01*
X127492019Y-68924500D01*
X127307981Y-68924500D01*
X127127966Y-68962763D01*
X127127961Y-68962765D01*
X126959839Y-69037619D01*
X126959834Y-69037621D01*
X126810951Y-69145791D01*
X126810944Y-69145797D01*
X126777023Y-69183472D01*
X126717537Y-69220121D01*
X126684873Y-69224500D01*
X125999234Y-69224500D01*
X125852863Y-69263719D01*
X125721635Y-69339485D01*
X125721632Y-69339487D01*
X115422939Y-79638181D01*
X115361616Y-79671666D01*
X115335258Y-79674500D01*
X110765321Y-79674500D01*
X110698282Y-79654815D01*
X110659782Y-79615596D01*
X110657716Y-79612247D01*
X110620340Y-79551650D01*
X110498350Y-79429660D01*
X110351516Y-79339092D01*
X110187753Y-79284826D01*
X110187751Y-79284825D01*
X110086678Y-79274500D01*
X109413330Y-79274500D01*
X109413312Y-79274501D01*
X109312247Y-79284825D01*
X109148484Y-79339092D01*
X109148481Y-79339093D01*
X109001648Y-79429661D01*
X108962681Y-79468629D01*
X108901358Y-79502114D01*
X108831666Y-79497130D01*
X108787319Y-79468629D01*
X108748351Y-79429661D01*
X108748350Y-79429660D01*
X108601516Y-79339092D01*
X108437753Y-79284826D01*
X108437751Y-79284825D01*
X108336678Y-79274500D01*
X107663330Y-79274500D01*
X107663312Y-79274501D01*
X107562247Y-79284825D01*
X107398484Y-79339092D01*
X107398481Y-79339093D01*
X107251648Y-79429661D01*
X107129661Y-79551648D01*
X107039093Y-79698481D01*
X107039092Y-79698484D01*
X106984826Y-79862247D01*
X106984826Y-79862248D01*
X106984825Y-79862248D01*
X106974500Y-79963315D01*
X106974500Y-80536669D01*
X106974501Y-80536687D01*
X106984825Y-80637752D01*
X107000522Y-80685121D01*
X107021856Y-80749503D01*
X107039092Y-80801515D01*
X107039093Y-80801518D01*
X107061830Y-80838380D01*
X107129659Y-80948349D01*
X107129661Y-80948351D01*
X107211535Y-81030225D01*
X107245020Y-81091548D01*
X107240036Y-81161240D01*
X107198164Y-81217173D01*
X107174290Y-81231185D01*
X107159839Y-81237618D01*
X107159834Y-81237621D01*
X107010951Y-81345791D01*
X107010949Y-81345793D01*
X106887804Y-81482561D01*
X106795786Y-81641940D01*
X106795783Y-81641946D01*
X106738916Y-81816967D01*
X106738915Y-81816971D01*
X106719678Y-82000000D01*
X102441410Y-82000000D01*
X102354223Y-81524234D01*
X102271446Y-81072534D01*
X102270648Y-81067621D01*
X102261459Y-81002870D01*
X102131301Y-80085686D01*
X102130701Y-80080741D01*
X102031004Y-79093976D01*
X102030604Y-79089017D01*
X102027326Y-79034825D01*
X101970720Y-78099021D01*
X101970522Y-78094094D01*
X101950550Y-77102482D01*
X101950550Y-77097503D01*
X101970522Y-76105903D01*
X101970720Y-76100980D01*
X102030605Y-75110960D01*
X102031006Y-75106004D01*
X102045057Y-74966941D01*
X102130702Y-74119241D01*
X102131303Y-74114301D01*
X102270651Y-73132354D01*
X102271444Y-73127473D01*
X102450223Y-72151904D01*
X102451220Y-72147025D01*
X102669125Y-71179497D01*
X102670320Y-71174648D01*
X102927025Y-70216613D01*
X102928394Y-70211890D01*
X103223465Y-69264973D01*
X103225016Y-69260326D01*
X103557993Y-68326013D01*
X103559728Y-68321437D01*
X103930052Y-67401299D01*
X103931970Y-67396796D01*
X104339040Y-66492322D01*
X104341155Y-66487865D01*
X104784307Y-65600533D01*
X104786595Y-65596174D01*
X105265116Y-64727406D01*
X105267576Y-64723144D01*
X105558140Y-64242494D01*
X112264357Y-64242494D01*
X112264357Y-64242505D01*
X112284890Y-64490312D01*
X112284892Y-64490324D01*
X112345936Y-64731381D01*
X112445826Y-64959106D01*
X112581833Y-65167282D01*
X112581836Y-65167285D01*
X112750256Y-65350238D01*
X112946491Y-65502974D01*
X112946493Y-65502975D01*
X113164332Y-65620864D01*
X113165190Y-65621328D01*
X113384141Y-65696494D01*
X113398964Y-65701583D01*
X113400386Y-65702071D01*
X113645665Y-65743000D01*
X113894335Y-65743000D01*
X114139614Y-65702071D01*
X114374810Y-65621328D01*
X114593509Y-65502974D01*
X114789744Y-65350238D01*
X114958164Y-65167285D01*
X115094173Y-64959107D01*
X115194063Y-64731381D01*
X115255108Y-64490321D01*
X115275643Y-64242500D01*
X115275643Y-64242494D01*
X123694859Y-64242494D01*
X123694859Y-64242505D01*
X123715385Y-64490229D01*
X123715387Y-64490238D01*
X123776412Y-64731217D01*
X123876267Y-64958867D01*
X123976562Y-65112381D01*
X124717037Y-64371908D01*
X124734075Y-64435493D01*
X124799901Y-64549507D01*
X124892993Y-64642599D01*
X125007007Y-64708425D01*
X125070591Y-64725462D01*
X124329943Y-65466109D01*
X124376768Y-65502555D01*
X124376771Y-65502557D01*
X124595385Y-65620864D01*
X124595396Y-65620869D01*
X124830506Y-65701583D01*
X125075707Y-65742500D01*
X125324293Y-65742500D01*
X125569493Y-65701583D01*
X125804603Y-65620869D01*
X125804614Y-65620864D01*
X126023230Y-65502556D01*
X126023236Y-65502551D01*
X126070055Y-65466110D01*
X126070056Y-65466109D01*
X125329408Y-64725462D01*
X125392993Y-64708425D01*
X125507007Y-64642599D01*
X125600099Y-64549507D01*
X125665925Y-64435493D01*
X125682962Y-64371909D01*
X126423435Y-65112382D01*
X126523733Y-64958864D01*
X126623587Y-64731217D01*
X126684612Y-64490238D01*
X126684614Y-64490229D01*
X126705141Y-64242505D01*
X126705141Y-64242494D01*
X126684614Y-63994770D01*
X126684612Y-63994761D01*
X126623587Y-63753782D01*
X126523732Y-63526132D01*
X126423435Y-63372616D01*
X125682962Y-64113090D01*
X125665925Y-64049507D01*
X125600099Y-63935493D01*
X125507007Y-63842401D01*
X125392993Y-63776575D01*
X125329409Y-63759537D01*
X126070055Y-63018889D01*
X126070055Y-63018888D01*
X126023236Y-62982447D01*
X126023231Y-62982444D01*
X125804614Y-62864135D01*
X125804603Y-62864130D01*
X125569493Y-62783416D01*
X125324293Y-62742500D01*
X125075707Y-62742500D01*
X124830506Y-62783416D01*
X124595396Y-62864130D01*
X124595385Y-62864135D01*
X124376770Y-62982443D01*
X124329943Y-63018889D01*
X125070591Y-63759537D01*
X125007007Y-63776575D01*
X124892993Y-63842401D01*
X124799901Y-63935493D01*
X124734075Y-64049507D01*
X124717037Y-64113091D01*
X123976563Y-63372617D01*
X123876267Y-63526133D01*
X123876265Y-63526137D01*
X123776412Y-63753782D01*
X123715387Y-63994761D01*
X123715385Y-63994770D01*
X123694859Y-64242494D01*
X115275643Y-64242494D01*
X115259651Y-64049507D01*
X115255109Y-63994687D01*
X115255107Y-63994675D01*
X115194063Y-63753618D01*
X115094173Y-63525893D01*
X114958166Y-63317717D01*
X114891006Y-63244762D01*
X114789744Y-63134762D01*
X114593509Y-62982026D01*
X114593507Y-62982025D01*
X114593506Y-62982024D01*
X114374811Y-62863672D01*
X114374802Y-62863669D01*
X114139616Y-62782929D01*
X113894335Y-62742000D01*
X113645665Y-62742000D01*
X113400383Y-62782929D01*
X113165197Y-62863669D01*
X113165188Y-62863672D01*
X112946493Y-62982024D01*
X112750257Y-63134761D01*
X112581833Y-63317717D01*
X112445826Y-63525893D01*
X112345936Y-63753618D01*
X112284892Y-63994675D01*
X112284890Y-63994687D01*
X112264357Y-64242494D01*
X105558140Y-64242494D01*
X105780703Y-63874330D01*
X105783311Y-63870205D01*
X106330206Y-63042731D01*
X106332998Y-63038686D01*
X106912765Y-62233907D01*
X106915700Y-62230002D01*
X107527386Y-61449242D01*
X107530533Y-61445390D01*
X108173107Y-60689957D01*
X108176385Y-60686255D01*
X108848944Y-59957213D01*
X108852356Y-59953662D01*
X109553662Y-59252356D01*
X109557213Y-59248944D01*
X110286255Y-58576385D01*
X110289942Y-58573119D01*
X110351035Y-58521153D01*
X121459500Y-58521153D01*
X121459500Y-58678846D01*
X121490261Y-58833489D01*
X121490264Y-58833501D01*
X121550602Y-58979172D01*
X121550609Y-58979185D01*
X121638210Y-59110288D01*
X121638213Y-59110292D01*
X121749707Y-59221786D01*
X121749711Y-59221789D01*
X121880814Y-59309390D01*
X121880827Y-59309397D01*
X122026498Y-59369735D01*
X122026503Y-59369737D01*
X122181153Y-59400499D01*
X122181156Y-59400500D01*
X122181158Y-59400500D01*
X122338844Y-59400500D01*
X122338845Y-59400499D01*
X122493497Y-59369737D01*
X122639179Y-59309394D01*
X122770289Y-59221789D01*
X122881789Y-59110289D01*
X122969394Y-58979179D01*
X123029737Y-58833497D01*
X123060500Y-58678842D01*
X123060500Y-58521158D01*
X123060500Y-58521155D01*
X123060499Y-58521153D01*
X123999500Y-58521153D01*
X123999500Y-58678846D01*
X124030261Y-58833489D01*
X124030264Y-58833501D01*
X124090602Y-58979172D01*
X124090609Y-58979185D01*
X124178210Y-59110288D01*
X124178213Y-59110292D01*
X124289707Y-59221786D01*
X124289711Y-59221789D01*
X124420814Y-59309390D01*
X124420827Y-59309397D01*
X124566498Y-59369735D01*
X124566503Y-59369737D01*
X124721153Y-59400499D01*
X124721156Y-59400500D01*
X124721158Y-59400500D01*
X124878844Y-59400500D01*
X124878845Y-59400499D01*
X125033497Y-59369737D01*
X125179179Y-59309394D01*
X125310289Y-59221789D01*
X125421789Y-59110289D01*
X125509394Y-58979179D01*
X125569737Y-58833497D01*
X125600500Y-58678842D01*
X125600500Y-58521158D01*
X125600500Y-58521155D01*
X125600499Y-58521153D01*
X126539500Y-58521153D01*
X126539500Y-58678846D01*
X126570261Y-58833489D01*
X126570264Y-58833501D01*
X126630602Y-58979172D01*
X126630609Y-58979185D01*
X126718210Y-59110288D01*
X126718213Y-59110292D01*
X126829707Y-59221786D01*
X126829711Y-59221789D01*
X126960814Y-59309390D01*
X126960827Y-59309397D01*
X127106498Y-59369735D01*
X127106503Y-59369737D01*
X127261153Y-59400499D01*
X127261156Y-59400500D01*
X127261158Y-59400500D01*
X127418844Y-59400500D01*
X127418845Y-59400499D01*
X127573497Y-59369737D01*
X127719179Y-59309394D01*
X127850289Y-59221789D01*
X127961789Y-59110289D01*
X128049394Y-58979179D01*
X128109737Y-58833497D01*
X128140500Y-58678842D01*
X128140500Y-58521158D01*
X128140500Y-58521155D01*
X128140499Y-58521153D01*
X128109737Y-58366503D01*
X128109735Y-58366498D01*
X128049397Y-58220827D01*
X128049390Y-58220814D01*
X127961789Y-58089711D01*
X127961786Y-58089707D01*
X127850292Y-57978213D01*
X127850288Y-57978210D01*
X127719185Y-57890609D01*
X127719172Y-57890602D01*
X127573501Y-57830264D01*
X127573489Y-57830261D01*
X127418845Y-57799500D01*
X127418842Y-57799500D01*
X127261158Y-57799500D01*
X127261155Y-57799500D01*
X127106510Y-57830261D01*
X127106498Y-57830264D01*
X126960827Y-57890602D01*
X126960814Y-57890609D01*
X126829711Y-57978210D01*
X126829707Y-57978213D01*
X126718213Y-58089707D01*
X126718210Y-58089711D01*
X126630609Y-58220814D01*
X126630602Y-58220827D01*
X126570264Y-58366498D01*
X126570261Y-58366510D01*
X126539500Y-58521153D01*
X125600499Y-58521153D01*
X125569737Y-58366503D01*
X125569735Y-58366498D01*
X125509397Y-58220827D01*
X125509390Y-58220814D01*
X125421789Y-58089711D01*
X125421786Y-58089707D01*
X125310292Y-57978213D01*
X125310288Y-57978210D01*
X125179185Y-57890609D01*
X125179172Y-57890602D01*
X125033501Y-57830264D01*
X125033489Y-57830261D01*
X124878845Y-57799500D01*
X124878842Y-57799500D01*
X124721158Y-57799500D01*
X124721155Y-57799500D01*
X124566510Y-57830261D01*
X124566498Y-57830264D01*
X124420827Y-57890602D01*
X124420814Y-57890609D01*
X124289711Y-57978210D01*
X124289707Y-57978213D01*
X124178213Y-58089707D01*
X124178210Y-58089711D01*
X124090609Y-58220814D01*
X124090602Y-58220827D01*
X124030264Y-58366498D01*
X124030261Y-58366510D01*
X123999500Y-58521153D01*
X123060499Y-58521153D01*
X123029737Y-58366503D01*
X123029735Y-58366498D01*
X122969397Y-58220827D01*
X122969390Y-58220814D01*
X122881789Y-58089711D01*
X122881786Y-58089707D01*
X122770292Y-57978213D01*
X122770288Y-57978210D01*
X122639185Y-57890609D01*
X122639172Y-57890602D01*
X122493501Y-57830264D01*
X122493489Y-57830261D01*
X122338845Y-57799500D01*
X122338842Y-57799500D01*
X122181158Y-57799500D01*
X122181155Y-57799500D01*
X122026510Y-57830261D01*
X122026498Y-57830264D01*
X121880827Y-57890602D01*
X121880814Y-57890609D01*
X121749711Y-57978210D01*
X121749707Y-57978213D01*
X121638213Y-58089707D01*
X121638210Y-58089711D01*
X121550609Y-58220814D01*
X121550602Y-58220827D01*
X121490264Y-58366498D01*
X121490261Y-58366510D01*
X121459500Y-58521153D01*
X110351035Y-58521153D01*
X110858259Y-58089707D01*
X111045390Y-57930533D01*
X111049242Y-57927386D01*
X111830002Y-57315700D01*
X111833907Y-57312765D01*
X112638686Y-56732998D01*
X112642731Y-56730206D01*
X113470205Y-56183311D01*
X113474330Y-56180703D01*
X114323144Y-55667576D01*
X114327406Y-55665116D01*
X115195194Y-55187135D01*
X120934500Y-55187135D01*
X120934500Y-56932870D01*
X120934501Y-56932876D01*
X120940908Y-56992483D01*
X120991202Y-57127328D01*
X120991206Y-57127335D01*
X121077452Y-57242544D01*
X121077455Y-57242547D01*
X121192664Y-57328793D01*
X121192671Y-57328797D01*
X121327517Y-57379091D01*
X121327516Y-57379091D01*
X121334444Y-57379835D01*
X121387127Y-57385500D01*
X123132872Y-57385499D01*
X123192483Y-57379091D01*
X123327331Y-57328796D01*
X123442546Y-57242546D01*
X123528796Y-57127331D01*
X123579091Y-56992483D01*
X123579091Y-56992481D01*
X123580874Y-56984938D01*
X123583747Y-56985616D01*
X123605191Y-56933843D01*
X123662582Y-56893993D01*
X123732407Y-56891497D01*
X123789426Y-56923965D01*
X123944731Y-57079270D01*
X124134718Y-57212301D01*
X124344921Y-57310320D01*
X124568950Y-57370349D01*
X124733985Y-57384787D01*
X124799998Y-57390563D01*
X124800000Y-57390563D01*
X124800002Y-57390563D01*
X124857894Y-57385498D01*
X125031050Y-57370349D01*
X125255079Y-57310320D01*
X125465282Y-57212301D01*
X125655269Y-57079270D01*
X125819270Y-56915269D01*
X125952301Y-56725282D01*
X125957618Y-56713878D01*
X126003790Y-56661440D01*
X126070984Y-56642288D01*
X126137865Y-56662504D01*
X126182381Y-56713878D01*
X126187699Y-56725282D01*
X126320730Y-56915269D01*
X126484731Y-57079270D01*
X126674718Y-57212301D01*
X126884921Y-57310320D01*
X127108950Y-57370349D01*
X127273985Y-57384787D01*
X127339998Y-57390563D01*
X127340000Y-57390563D01*
X127340002Y-57390563D01*
X127397894Y-57385498D01*
X127571050Y-57370349D01*
X127795079Y-57310320D01*
X128005282Y-57212301D01*
X128195269Y-57079270D01*
X128359270Y-56915269D01*
X128492301Y-56725282D01*
X128590320Y-56515079D01*
X128650349Y-56291050D01*
X128670563Y-56060000D01*
X128650349Y-55828950D01*
X128590320Y-55604921D01*
X128492301Y-55394719D01*
X128492299Y-55394716D01*
X128492298Y-55394714D01*
X128359273Y-55204735D01*
X128359268Y-55204729D01*
X128195269Y-55040730D01*
X128126624Y-54992664D01*
X128005282Y-54907699D01*
X127795079Y-54809680D01*
X127795076Y-54809679D01*
X127795074Y-54809678D01*
X127571051Y-54749651D01*
X127571044Y-54749650D01*
X127340002Y-54729437D01*
X127339998Y-54729437D01*
X127108955Y-54749650D01*
X127108948Y-54749651D01*
X126884917Y-54809681D01*
X126674718Y-54907699D01*
X126674714Y-54907701D01*
X126484735Y-55040726D01*
X126484729Y-55040731D01*
X126320731Y-55204729D01*
X126320726Y-55204735D01*
X126187701Y-55394714D01*
X126187698Y-55394720D01*
X126182381Y-55406123D01*
X126136207Y-55458562D01*
X126069013Y-55477712D01*
X126002133Y-55457495D01*
X125957619Y-55406123D01*
X125955931Y-55402504D01*
X125952301Y-55394719D01*
X125952299Y-55394716D01*
X125952298Y-55394714D01*
X125819273Y-55204735D01*
X125819268Y-55204729D01*
X125655269Y-55040730D01*
X125586624Y-54992664D01*
X125465282Y-54907699D01*
X125255079Y-54809680D01*
X125255076Y-54809679D01*
X125255074Y-54809678D01*
X125031051Y-54749651D01*
X125031044Y-54749650D01*
X124800002Y-54729437D01*
X124799998Y-54729437D01*
X124568955Y-54749650D01*
X124568948Y-54749651D01*
X124344917Y-54809681D01*
X124134718Y-54907699D01*
X124134714Y-54907701D01*
X123944735Y-55040726D01*
X123789426Y-55196035D01*
X123728103Y-55229519D01*
X123658411Y-55224535D01*
X123602478Y-55182663D01*
X123583517Y-55134443D01*
X123580876Y-55135068D01*
X123579092Y-55127520D01*
X123528797Y-54992671D01*
X123528793Y-54992664D01*
X123442547Y-54877455D01*
X123442544Y-54877452D01*
X123327335Y-54791206D01*
X123327328Y-54791202D01*
X123192482Y-54740908D01*
X123192483Y-54740908D01*
X123132883Y-54734501D01*
X123132881Y-54734500D01*
X123132873Y-54734500D01*
X123132864Y-54734500D01*
X121387129Y-54734500D01*
X121387123Y-54734501D01*
X121327516Y-54740908D01*
X121192671Y-54791202D01*
X121192664Y-54791206D01*
X121077455Y-54877452D01*
X121077452Y-54877455D01*
X120991206Y-54992664D01*
X120991202Y-54992671D01*
X120940908Y-55127517D01*
X120934501Y-55187116D01*
X120934500Y-55187135D01*
X115195194Y-55187135D01*
X115196174Y-55186595D01*
X115200533Y-55184307D01*
X116087865Y-54741155D01*
X116092322Y-54739040D01*
X116996796Y-54331970D01*
X117001299Y-54330052D01*
X117921437Y-53959728D01*
X117926013Y-53957993D01*
X118860326Y-53625016D01*
X118864973Y-53623465D01*
X119811890Y-53328394D01*
X119816613Y-53327025D01*
X120774670Y-53070314D01*
X120779474Y-53069130D01*
X121747039Y-52851217D01*
X121751904Y-52850223D01*
X122727473Y-52671444D01*
X122732354Y-52670651D01*
X123714319Y-52531300D01*
X123719241Y-52530702D01*
X124706027Y-52431004D01*
X124710960Y-52430605D01*
X125700980Y-52370720D01*
X125705903Y-52370522D01*
X126697518Y-52350550D01*
X126702482Y-52350550D01*
X127694094Y-52370522D01*
G37*
%TD.AperFunction*%
%TD*%
M02*
